{
.formatVersion = 3;
axes = (
{
name = Weight;
tag = wght;
},
{
name = Width;
tag = wdth;
}
);
classes = (
{
code = "zero one two three four five six seven eight nine zero one two three four five six seven eight nine";
name = case;
},
{
code = "zero.osf one.osf two.osf three.osf four.osf five.osf six.osf seven.osf eight.osf nine.osf zero.tosf one.tosf two.tosf three.tosf four.tosf five.tosf six.tosf seven.tosf eight.tosf nine.tosf";
name = case_lnum_onum;
},
{
code = "gravecomb acutecomb circumflexcomb tildecomb macroncomb brevecomb dotaccentcomb dieresiscomb ringcomb hungarumlautcomb caroncomb commaturnedabovecomb hookabovecomb";
name = ccmp;
},
{
code = "zero.dnom one.dnom two.dnom three.dnom four.dnom five.dnom six.dnom seven.dnom eight.dnom nine.dnom";
name = dnom_frac;
},
{
code = "zero one two three four five six seven eight nine";
name = dnom_frac_numr_ordn_sups;
},
{
code = "fraction zero.dnom one.dnom two.dnom three.dnom four.dnom five.dnom six.dnom seven.dnom eight.dnom nine.dnom zero.numr one.numr two.numr three.numr four.numr five.numr six.numr seven.numr eight.numr nine.numr";
name = frac;
},
{
code = "zero.numr one.numr two.numr three.numr four.numr five.numr six.numr seven.numr eight.numr nine.numr";
name = frac_numr;
},
{
code = "zero one two three four five six seven eight nine zero.tlf one.tlf two.tlf three.tlf four.tlf five.tlf six.tlf seven.tlf eight.tlf nine.tlf";
name = lnum_onum;
},
{
code = "Cacute Nacute Oacute Sacute Zacute cacute nacute oacute sacute zacute acutecomb";
name = locl;
},
{
code = "Cacute.loclPLK Nacute.loclPLK Oacute.loclPLK Sacute.loclPLK Zacute.loclPLK cacute.loclPLK nacute.loclPLK oacute.loclPLK sacute.loclPLK zacute.loclPLK acutecomb.loclPLK";
name = locl2;
},
{
code = "commaaccentcomb cedillacomb dotbelowcomb dieresisbelowcomb ringbelowcomb macronbelowcomb circumflexbelowcomb brevebelowcomb caronbelowcomb commaaccentcomb.loclMAH";
name = mkmk;
},
{

glyphs = (
{
glyphname = .notdef;
layers = (
{
layerId = "FC56AA79-0F4D-414B-B093-B262B77ED935";
shapes = (
{
closed = 1;
nodes = (
(75,0,l),
(482,0,l),
(482,707,l),
(75,707,l)
);
},
{
closed = 1;
nodes = (
(110,35,l),
(110,672,l),
(447,672,l),
(447,35,l)
);
}
);
width = 557;
},
{
layerId = "386C80E5-B742-4DC4-8C1D-118FE705019B";
shapes = (
{
closed = 1;
nodes = (
(75,0,l),
(482,0,l),
(482,707,l),
(75,707,l)
);
},
{
closed = 1;
nodes = (
(110,35,l),
(110,672,l),
(447,672,l),
(447,35,l)
);
}
);
width = 557;
},
{
layerId = "0F8D56E4-D9E3-4FE5-8622-D887DCE8F82E";
shapes = (
{
closed = 1;
nodes = (
(75,0,l),
(482,0,l),
(482,707,l),
(75,707,l)
);
},
{
closed = 1;
nodes = (
(110,35,l),
(110,672,l),
(447,672,l),
(447,35,l)
);
}
);
width = 557;
},
{
layerId = "B98D4703-DDC7-495E-B040-47EC823CED71";
shapes = (
{
closed = 1;
nodes = (
(75,0,l),
(482,0,l),
(482,707,l),
(75,707,l)
);
},
{
closed = 1;
nodes = (
(110,35,l),
(110,672,l),
(447,672,l),
(447,35,l)
);
}
);
width = 557;
},
{
layerId = "8C36FF45-EE0D-47F3-80A1-ABABB257461F";
shapes = (
{
closed = 1;
nodes = (
(75,0,l),
(482,0,l),
(482,707,l),
(75,707,l)
);
},
{
closed = 1;
nodes = (
(110,35,l),
(110,672,l),
(447,672,l),
(447,35,l)
);
}
);
width = 557;
}
);
},
{
glyphname = A;
layers = (
{
anchors = (
{
name = b.uni0324_2;
position = "{310, 0}";
},
{
name = m.uni0308_1;
position = "{310, 700}";
},
{
name = m.uni0328;
position = "{574, 10}";
}
);
layerId = "FC56AA79-0F4D-414B-B093-B262B77ED935";
shapes = (
{
closed = 1;
nodes = (
(2,0,l),
(184,0,l),
(217,115,l),
(422,115,l),
(453,0,l),
(637,0,l),
(390,700,l),
(249,700,l)
);
},
{
closed = 1;
nodes = (
(262,260,l),
(318,458,l),
(376,260,l)
);
}
);
width = 640;
},
{
anchors = (
{
name = b.uni0324_2;
position = "{302, 0}";
},
{
name = m.uni0308_1;
position = "{302, 700}";
},
{
name = m.uni0328;
position = "{535, 7}";
}
);
layerId = "386C80E5-B742-4DC4-8C1D-118FE705019B";
shapes = (
{
closed = 1;
nodes = (
(7,0,l),
(172,0,l),
(190,107,l),
(324,107,l),
(341,0,l),
(505,0,l),
(335,700,l),
(179,700,l)
);
},
{
closed = 1;
nodes = (
(218,250,l),
(258,495,l),
(296,250,l)
);
}
);
width = 512;
},
{
anchors = (
{
name = b.uni0324_2;
position = "{310, 0}";
},
{
name = m.uni0308_1;
position = "{310, 700}";
},
{
name = m.uni0328;
position = "{574, 10}";
}
);
layerId = "A1491DFB-4D7B-4F46-84CC-0E934EA2699F";
shapes = (
{
closed = 1;
nodes = (
(4,0,l),
(145,0,l),
(188,137,l),
(431,137,l),
(474,0,l),
(616,0,l),
(365,700,l),
(255,700,l)
);
},
{
closed = 1;
nodes = (
(224,249,l),
(309,513,l),
(395,249,l)
);
}
);
width = 620;
},
{
anchors = (
{
name = b.uni0324_2;
position = "{263, 0}";
},
{
name = m.uni0308_1;
position = "{263, 700}";
},
{
name = m.uni0328;
position = "{446, 10}";
}
);
layerId = "013B1E1E-EC1A-4004-9A9E-28013B12321E";
shapes = (
{
closed = 1;
nodes = (
(8,0,l),
(138,0,l),
(167,136,l),
(330,136,l),
(358,0,l),
(488,0,l),
(309,700,l),
(188,700,l)
);
},
{
closed = 1;
nodes = (
(190,248,l),
(249,532,l),
(307,248,l)
);
}
);
width = 496;
},
{
anchors = (
{
name = b.uni0324_2;
position = "{310, 0}";
},
{
name = m.uni0308_1;
position = "{310, 700}";
},
{
name = m.uni0328;
position = "{574, 10}";
}
);
layerId = "0F8D56E4-D9E3-4FE5-8622-D887DCE8F82E";
shapes = (
{
closed = 1;
nodes = (
(7,0,l),
(86,0,l),
(145,170,l),
(445,170,l),
(505,0,l),
(584,0,l),
(327,700,l),
(264,700,l)
);
},
{
closed = 1;
nodes = (
(167,233,l),
(295,595,l),
(424,233,l)
);
}
);
width = 590;
},
{
anchors = (
{
name = b.uni0324_2;
position = "{204, 0}";
},
{
name = m.uni0308_1;
position = "{204, 700}";
},
{
name = m.uni0328;
position = "{313, 15}";
}
);
layerId = "301B1BEE-A3B7-420C-AFCF-2213D48A32DD";
shapes = (
{
closed = 1;
nodes = (
(9,0,l),
(87,0,l),
(132,180,l),
(339,180,l),
(384,0,l),
(463,0,l),
(270,700,l),
(202,700,l)
);
},
{
closed = 1;
nodes = (
(148,245,l),
(236,587,l),
(323,245,l)
);
}
);
width = 472;
},
{
anchors = (
{
name = b.uni0324_2;
position = "{310, 0}";
},
{
name = m.uni0308_1;
position = "{310, 700}";
},
{
name = m.uni0328;
position = "{574, 10}";
}
);
layerId = "B98D4703-DDC7-495E-B040-47EC823CED71";
shapes = (
{
closed = 1;
nodes = (
(9,0,l),
(47,0,l),
(116,192,l),
(454,192,l),
(526,0,l),
(563,0,l),
(302,700,l),
(270,700,l)
);
},
{
closed = 1;
nodes = (
(129,222,l),
(286,650,l),
(443,222,l)
);
}
);
width = 570;
},
{
anchors = (
{
name = b.uni0324_2;
position = "{165, 0}";
},
{
name = m.uni0308_1;
position = "{165, 700}";
},
{
name = m.uni0328;
position = "{224, 18}";
}
);
layerId = "8C36FF45-EE0D-47F3-80A1-ABABB257461F";
shapes = (
{
closed = 1;
nodes = (
(10,0,l),
(53,0,l),
(109,209,l),
(345,209,l),
(401,0,l),
(446,0,l),
(244,700,l),
(211,700,l)
);
},
{
closed = 1;
nodes = (
(120,243,l),
(227,624,l),
(334,243,l)
);
}
);
width = 456;
}
);
leftKerningGroup = A2;
rightKerningGroup = A;
unicode = 65;
},
{
glyphname = B;
layers = (
{
anchors = (
{
name = b.uni0324_2;
position = "{306, 0}";
},
{
name = m.uni0308_1;
position = "{306, 700}";
}
);
layerId = "FC56AA79-0F4D-414B-B093-B262B77ED935";
shapes = (
{
closed = 1;
nodes = (
(45,0,l),
(342,0,ls),
(434,0,o),
(499,32,o),
(535,95,cs),
(552,126,o),
(561,164,o),
(561,207,cs),
(561,242,o),
(554,273,o),
(540,299,cs),
(525,325,o),
(505,345,o),
(478,360,c),
(523,392,o),
(553,445,o),
(553,498,cs),
(553,629,o),
(473,700,o),
(328,700,cs),
(45,700,l)
);
},
{
closed = 1;
nodes = (
(220,149,l),
(220,280,l),
(326,280,ls),
(367,280,o),
(388,256,o),
(388,219,cs),
(388,197,o),
(383,180,o),
(374,168,cs),
(364,155,o),
(348,149,o),
(326,149,cs)
);
},
{
closed = 1;
nodes = (
(220,430,l),
(220,551,l),
(316,551,ls),
(359,551,o),
(378,531,o),
(378,488,cs),
(378,451,o),
(361,430,o),
(316,430,cs)
);
}
);
width = 601;
},
{
anchors = (
{
name = b.uni0324_2;
position = "{274, 0}";
},
{
name = m.uni0308_1;
position = "{274, 700}";
}
);
layerId = "386C80E5-B742-4DC4-8C1D-118FE705019B";
shapes = (
{
closed = 1;
nodes = (
(33,0,l),
(228,0,ls),
(337,0,o),
(391,35,o),
(411,95,cs),
(421,124,o),
(426,163,o),
(426,210,cs),
(426,253,o),
(422,287,o),
(415,311,cs),
(408,335,o),
(390,355,o),
(362,370,c),
(409,399,o),
(427,440,o),
(427,507,cs),
(427,646,o),
(372,700,o),
(229,700,cs),
(33,700,l)
);
},
{
closed = 1;
nodes = (
(190,143,l),
(190,298,l),
(209,298,ls),
(256,298,o),
(267,278,o),
(267,221,cs),
(267,189,o),
(264,168,o),
(257,158,cs),
(250,148,o),
(234,143,o),
(209,143,cs)
);
},
{
closed = 1;
nodes = (
(190,435,l),
(190,557,l),
(210,557,ls),
(255,557,o),
(268,543,o),
(268,496,cs),
(268,448,o),
(258,435,o),
(211,435,cs)
);
}
);
width = 456;
},
{
anchors = (
{
name = b.uni0324_2;
position = "{306, 0}";
},
{
name = m.uni0308_1;
position = "{306, 700}";
}
);
layerId = "A1491DFB-4D7B-4F46-84CC-0E934EA2699F";
shapes = (
{
closed = 1;
nodes = (
(60,0,l),
(344,0,ls),
(435,0,o),
(500,32,o),
(535,93,cs),
(552,123,o),
(561,159,o),
(561,201,cs),
(561,239,o),
(553,272,o),
(536,299,cs),
(519,326,o),
(495,347,o),
(463,360,c),
(518,388,o),
(552,444,o),
(552,505,cs),
(552,630,o),
(473,700,o),
(333,700,cs),
(60,700,l)
);
},
{
closed = 1;
nodes = (
(195,116,l),
(195,298,l),
(331,298,ls),
(394,298,o),
(427,266,o),
(427,210,cs),
(427,180,o),
(419,157,o),
(403,141,cs),
(387,124,o),
(363,116,o),
(331,116,cs)
);
},
{
closed = 1;
nodes = (
(195,414,l),
(195,584,l),
(323,584,ls),
(386,584,o),
(417,556,o),
(417,497,cs),
(417,444,o),
(386,414,o),
(323,414,cs)
);
}
);
width = 612;
},
{
anchors = (
{
name = b.uni0324_2;
position = "{225, 0}";
},
{
name = m.uni0308_1;
position = "{225, 700}";
}
);
layerId = "013B1E1E-EC1A-4004-9A9E-28013B12321E";
shapes = (
{
closed = 1;
nodes = (
(45,0,l),
(234,0,ls),
(333,0,o),
(386,32,o),
(409,91,cs),
(420,120,o),
(426,158,o),
(426,203,cs),
(426,248,o),
(421,284,o),
(410,310,cs),
(399,335,o),
(378,354,o),
(348,367,c),
(401,394,o),
(424,439,o),
(424,511,cs),
(424,644,o),
(369,700,o),
(234,700,cs),
(45,700,l)
);
},
{
closed = 1;
nodes = (
(169,112,l),
(169,311,l),
(220,311,ls),
(279,311,o),
(301,281,o),
(301,212,cs),
(301,175,o),
(295,149,o),
(284,134,cs),
(272,119,o),
(251,112,o),
(220,112,cs)
);
},
{
closed = 1;
nodes = (
(169,419,l),
(169,588,l),
(221,588,ls),
(278,588,o),
(299,566,o),
(299,503,cs),
(299,443,o),
(278,419,o),
(221,419,cs)
);
}
);
width = 466;
},
{
anchors = (
{
name = b.uni0324_2;
position = "{306, 0}";
},
{
name = m.uni0308_1;
position = "{306, 700}";
}
);
layerId = "0F8D56E4-D9E3-4FE5-8622-D887DCE8F82E";
shapes = (
{
closed = 1;
nodes = (
(82,0,l),
(347,0,ls),
(435,0,o),
(502,31,o),
(536,89,cs),
(553,118,o),
(561,152,o),
(561,192,cs),
(561,234,o),
(551,270,o),
(531,299,cs),
(510,328,o),
(480,349,o),
(441,360,c),
(509,383,o),
(550,443,o),
(550,515,cs),
(550,632,o),
(473,700,o),
(341,700,cs),
(82,700,l)
);
},
{
closed = 1;
nodes = (
(157,66,l),
(157,325,l),
(339,325,ls),
(434,325,o),
(486,280,o),
(486,197,cs),
(486,155,o),
(473,123,o),
(448,100,cs),
(422,77,o),
(385,66,o),
(338,66,cs)
);
},
{
closed = 1;
nodes = (
(157,390,l),
(157,634,l),
(334,634,ls),
(426,634,o),
(475,592,o),
(475,511,cs),
(475,432,o),
(422,390,o),
(333,390,cs)
);
}
);
width = 628;
},
{
anchors = (
{
name = b.uni0324_2;
position = "{152, 0}";
},
{
name = m.uni0308_1;
position = "{152, 700}";
}
);
layerId = "301B1BEE-A3B7-420C-AFCF-2213D48A32DD";
shapes = (
{
closed = 1;
nodes = (
(63,0,l),
(243,0,ls),
(326,0,o),
(379,29,o),
(406,86,cs),
(419,115,o),
(426,150,o),
(426,193,cs),
(426,241,o),
(418,279,o),
(402,308,c),
(385,336,o),
(360,354,o),
(327,363,c),
(390,386,o),
(419,437,o),
(419,517,cs),
(419,642,o),
(365,700,o),
(242,700,cs),
(63,700,l)
);
},
{
closed = 1;
nodes = (
(137,66,l),
(137,330,l),
(237,330,ls),
(313,330,o),
(352,286,o),
(352,198,cs),
(352,153,o),
(343,119,o),
(324,98,cs),
(305,77,o),
(276,66,o),
(237,66,cs)
);
},
{
closed = 1;
nodes = (
(137,395,l),
(137,634,l),
(237,634,ls),
(313,634,o),
(345,600,o),
(345,513,cs),
(345,436,o),
(309,395,o),
(236,395,cs)
);
}
);
width = 481;
},
{
anchors = (
{
name = b.uni0324_2;
position = "{306, 0}";
},
{
name = m.uni0308_1;
position = "{306, 700}";
}
);
layerId = "B98D4703-DDC7-495E-B040-47EC823CED71";
shapes = (
{
closed = 1;
nodes = (
(97,0,l),
(349,0,ls),
(436,0,o),
(503,30,o),
(536,86,cs),
(553,114,o),
(561,147,o),
(561,186,cs),
(561,231,o),
(550,268,o),
(527,299,cs),
(504,330,o),
(471,350,o),
(426,360,c),
(503,379,o),
(549,442,o),
(549,522,cs),
(549,634,o),
(473,700,o),
(346,700,cs),
(97,700,l)
);
},
{
closed = 1;
nodes = (
(132,33,l),
(132,343,l),
(344,343,ls),
(460,343,o),
(525,289,o),
(525,188,cs),
(525,138,o),
(509,100,o),
(477,73,cs),
(445,46,o),
(400,33,o),
(343,33,cs)
);
},
{
closed = 1;
nodes = (
(132,374,l),
(132,667,l),
(341,667,ls),
(453,667,o),
(514,617,o),
(514,520,cs),
(514,425,o),
(447,374,o),
(340,374,cs)
);
}
);
width = 639;
},
{
anchors = (
{
name = b.uni0324_2;
position = "{103, 0}";
},
{
name = m.uni0308_1;
position = "{103, 700}";
}
);
layerId = "8C36FF45-EE0D-47F3-80A1-ABABB257461F";
shapes = (
{
closed = 1;
nodes = (
(75,0,l),
(249,0,ls),
(321,0,o),
(375,26,o),
(404,83,cs),
(419,111,o),
(426,145,o),
(426,186,cs),
(426,236,o),
(416,276,o),
(396,306,cs),
(376,336,o),
(348,354,o),
(313,360,c),
(382,380,o),
(416,436,o),
(416,521,cs),
(416,641,o),
(362,700,o),
(247,700,cs),
(75,700,l)
);
},
{
closed = 1;
nodes = (
(116,35,l),
(116,343,l),
(248,343,ls),
(336,343,o),
(386,289,o),
(386,189,cs),
(386,138,o),
(374,100,o),
(351,74,cs),
(328,48,o),
(293,35,o),
(248,35,cs)
);
},
{
closed = 1;
nodes = (
(116,379,l),
(116,665,l),
(248,665,ls),
(336,665,o),
(376,623,o),
(376,520,cs),
(376,431,o),
(330,379,o),
(246,379,cs)
);
}
);
width = 491;
}
);
unicode = 66;
},
{
glyphname = C;
layers = (
{
anchors = (
{
name = b.uni0324_2;
position = "{307, 0}";
},
{
name = m.uni0308_1;
position = "{307, 700}";
}
);
layerId = "FC56AA79-0F4D-414B-B093-B262B77ED935";
shapes = (
{
closed = 1;
nodes = (
(458,-8,o),
(565,59,o),
(565,219,cs),
(565,228,l),
(394,228,l),
(394,217,ls),
(394,181,o),
(360,147,o),
(307,147,cs),
(243,147,o),
(215,187,o),
(215,286,cs),
(215,409,ls),
(215,516,o),
(240,557,o),
(304,557,cs),
(360,557,o),
(394,519,o),
(394,474,cs),
(394,469,l),
(567,469,l),
(567,475,ls),
(567,635,o),
(451,708,o),
(306,708,cs),
(122,708,o),
(40,610,o),
(40,419,cs),
(40,280,ls),
(40,89,o),
(123,-8,o),
(303,-8,cs)
);
}
);
width = 607;
},
{
anchors = (
{
name = b.uni0324_2;
position = "{280, 0}";
},
{
name = m.uni0308_1;
position = "{280, 702}";
}
);
layerId = "386C80E5-B742-4DC4-8C1D-118FE705019B";
shapes = (
{
closed = 1;
nodes = (
(362,-8,o),
(440,68,o),
(440,196,cs),
(440,221,l),
(282,221,l),
(282,197,ls),
(282,157,o),
(265,135,o),
(237,135,cs),
(205,135,o),
(191,159,o),
(191,208,cs),
(191,486,ls),
(191,539,o),
(200,565,o),
(237,565,cs),
(262,565,o),
(282,544,o),
(282,504,cs),
(282,473,l),
(441,473,l),
(441,504,ls),
(441,636,o),
(370,708,o),
(243,708,cs),
(115,708,o),
(32,636,o),
(32,515,cs),
(32,186,ls),
(32,59,o),
(106,-8,o),
(230,-8,cs)
);
}
);
width = 472;
},
{
anchors = (
{
name = b.uni0324_2;
position = "{307, 0}";
},
{
name = m.uni0308_1;
position = "{307, 700}";
}
);
layerId = "A1491DFB-4D7B-4F46-84CC-0E934EA2699F";
shapes = (
{
closed = 1;
nodes = (
(454,-8,o),
(561,62,o),
(561,213,cs),
(561,220,l),
(429,220,l),
(429,212,ls),
(429,155,o),
(384,112,o),
(311,112,cs),
(226,112,o),
(186,163,o),
(186,275,cs),
(186,419,ls),
(186,540,o),
(224,590,o),
(309,590,cs),
(384,590,o),
(429,545,o),
(429,481,cs),
(429,477,l),
(563,477,l),
(563,482,ls),
(563,636,o),
(449,708,o),
(310,708,cs),
(137,708,o),
(51,614,o),
(51,426,cs),
(51,273,ls),
(51,85,o),
(137,-8,o),
(308,-8,cs)
);
}
);
width = 614;
},
{
anchors = (
{
name = b.uni0324_2;
position = "{235, 0}";
},
{
name = m.uni0308_1;
position = "{235, 707}";
}
);
layerId = "013B1E1E-EC1A-4004-9A9E-28013B12321E";
shapes = (
{
closed = 1;
nodes = (
(367,-8,o),
(437,72,o),
(437,195,cs),
(437,214,l),
(313,214,l),
(313,196,ls),
(313,136,o),
(286,104,o),
(241,104,cs),
(190,105,o),
(166,138,o),
(166,206,cs),
(166,487,ls),
(166,560,o),
(188,595,o),
(241,595,cs),
(285,595,o),
(313,564,o),
(313,503,cs),
(313,482,l),
(438,482,l),
(438,504,ls),
(438,633,o),
(370,708,o),
(244,708,cs),
(120,708,o),
(41,635,o),
(41,507,cs),
(41,193,ls),
(41,62,o),
(116,-8,o),
(237,-8,cs)
);
}
);
width = 479;
},
{
anchors = (
{
name = b.uni0324_2;
position = "{307, 0}";
},
{
name = m.uni0308_1;
position = "{307, 700}";
}
);
layerId = "0F8D56E4-D9E3-4FE5-8622-D887DCE8F82E";
shapes = (
{
closed = 1;
nodes = (
(449,-8,o),
(555,66,o),
(555,204,cs),
(555,208,l),
(482,208,l),
(482,204,ls),
(482,116,o),
(420,60,o),
(317,60,cs),
(200,60,o),
(142,126,o),
(142,258,cs),
(142,434,ls),
(142,578,o),
(200,640,o),
(316,640,cs),
(419,640,o),
(482,584,o),
(482,492,cs),
(482,489,l),
(557,489,l),
(557,492,ls),
(557,635,o),
(446,708,o),
(316,708,cs),
(159,708,o),
(68,620,o),
(68,437,cs),
(68,262,ls),
(68,79,o),
(159,-8,o),
(316,-8,cs)
);
}
);
width = 624;
},
{
anchors = (
{
name = b.uni0324_2;
position = "{168, 0}";
},
{
name = m.uni0308_1;
position = "{168, 714}";
}
);
layerId = "301B1BEE-A3B7-420C-AFCF-2213D48A32DD";
shapes = (
{
closed = 1;
nodes = (
(373,-8,o),
(432,79,o),
(432,194,cs),
(432,204,l),
(360,204,l),
(360,195,ls),
(360,104,o),
(318,58,o),
(247,58,cs),
(168,59,o),
(129,107,o),
(129,203,cs),
(129,488,ls),
(129,592,o),
(170,640,o),
(247,640,cs),
(319,640,o),
(360,595,o),
(360,502,cs),
(360,495,l),
(434,495,l),
(434,504,ls),
(434,627,o),
(369,708,o),
(246,708,cs),
(127,708,o),
(55,634,o),
(55,495,cs),
(55,204,ls),
(55,67,o),
(130,-8,o),
(247,-8,cs)
);
}
);
width = 489;
},
{
anchors = (
{
name = b.uni0324_2;
position = "{307, 0}";
},
{
name = m.uni0308_1;
position = "{307, 700}";
}
);
layerId = "B98D4703-DDC7-495E-B040-47EC823CED71";
shapes = (
{
closed = 1;
nodes = (
(445,-8,o),
(551,69,o),
(551,198,cs),
(551,200,l),
(517,200,l),
(517,199,ls),
(517,90,o),
(444,25,o),
(321,25,cs),
(182,25,o),
(113,102,o),
(113,247,cs),
(113,444,ls),
(113,603,o),
(184,673,o),
(321,673,cs),
(442,673,o),
(517,610,o),
(517,499,cs),
(517,497,l),
(553,497,l),
(553,499,ls),
(553,635,o),
(445,708,o),
(320,708,cs),
(173,708,o),
(79,624,o),
(79,444,cs),
(79,255,ls),
(79,75,o),
(173,-8,o),
(321,-8,cs)
);
}
);
width = 631;
},
{
anchors = (
{
name = b.uni0324_2;
position = "{123, 0}";
},
{
name = m.uni0308_1;
position = "{123, 719}";
}
);
layerId = "8C36FF45-EE0D-47F3-80A1-ABABB257461F";
shapes = (
{
closed = 1;
nodes = (
(377,-8,o),
(429,83,o),
(429,193,cs),
(429,197,l),
(391,197,l),
(391,194,ls),
(391,83,o),
(339,27,o),
(251,27,cs),
(154,28,o),
(104,86,o),
(104,201,cs),
(104,489,ls),
(104,613,o),
(158,670,o),
(251,670,cs),
(342,670,o),
(391,616,o),
(391,501,c),
(391,504,l),
(431,504,l),
(431,504,l),
(431,624,o),
(369,708,o),
(247,708,cs),
(132,708,o),
(64,632,o),
(64,487,cs),
(64,211,ls),
(64,70,o),
(139,-8,o),
(254,-8,cs)
);
}
);
width = 496;
}
);
leftKerningGroup = C;
unicode = 67;
},
{
glyphname = Ccedilla;
layers = (
{
anchors = (
{
name = b.uni0324_2;
position = "{277, -160}";
},
{
name = m.uni0308_1;
position = "{307, 700}";
}
);
layerId = "FC56AA79-0F4D-414B-B093-B262B77ED935";
shapes = (
{
closed = 1;
nodes = (
(227,-220,l),
(301,-220,l),
(375,-222,o),
(420,-186,o),
(420,-131,c),
(422,-75,o),
(396,-40,o),
(338,-34,c),
(347,-6,l),
(485,7,o),
(565,81,o),
(565,219,cs),
(565,228,l),
(394,228,l),
(394,217,ls),
(394,181,o),
(360,147,o),
(307,147,cs),
(243,147,o),
(215,187,o),
(215,286,cs),
(215,409,ls),
(215,516,o),
(240,557,o),
(304,557,cs),
(360,557,o),
(394,519,o),
(394,474,cs),
(394,469,l),
(567,469,l),
(567,475,ls),
(567,635,o),
(451,708,o),
(306,708,cs),
(122,708,o),
(40,610,o),
(40,419,cs),
(40,280,ls),
(40,102,o),
(112,5,o),
(268,-7,c),
(255,-52,l),
(255,-85,l),
(301,-85,ls),
(318,-85,o),
(340,-93,o),
(340,-113,cs),
(340,-132,o),
(313,-133,o),
(301,-133,cs),
(227,-133,l)
);
}
);
width = 607;
},
{
anchors = (
{
name = b.uni0324_2;
position = "{248, -167}";
},
{
name = m.uni0308_1;
position = "{280, 702}";
}
);
layerId = "386C80E5-B742-4DC4-8C1D-118FE705019B";
shapes = (
{
closed = 1;
nodes = (
(138,-220,l),
(212,-220,l),
(286,-222,o),
(331,-186,o),
(331,-131,c),
(333,-75,o),
(307,-40,o),
(249,-34,c),
(257,-7,l),
(377,3,o),
(440,81,o),
(440,196,cs),
(440,221,l),
(282,221,l),
(282,197,ls),
(282,157,o),
(265,135,o),
(237,135,cs),
(205,136,o),
(191,159,o),
(191,208,cs),
(191,486,ls),
(191,539,o),
(200,565,o),
(237,565,cs),
(262,565,o),
(282,544,o),
(282,504,cs),
(282,473,l),
(441,473,l),
(441,504,ls),
(441,636,o),
(370,708,o),
(243,708,cs),
(115,708,o),
(32,636,o),
(32,515,cs),
(32,186,ls),
(32,77,o),
(86,12,o),
(180,-4,c),
(166,-52,l),
(166,-85,l),
(212,-85,ls),
(229,-85,o),
(251,-93,o),
(251,-113,cs),
(251,-132,o),
(224,-133,o),
(212,-133,cs),
(138,-133,l)
);
}
);
width = 472;
},
{
anchors = (
{
name = b.uni0324_2;
position = "{277, -160}";
},
{
name = m.uni0308_1;
position = "{307, 700}";
}
);
layerId = "A1491DFB-4D7B-4F46-84CC-0E934EA2699F";
shapes = (
{
closed = 1;
nodes = (
(235,-220,l),
(303,-220,l),
(372,-221,o),
(422,-190,o),
(422,-131,c),
(423,-77,o),
(396,-43,o),
(339,-37,c),
(348,-6,l),
(478,6,o),
(561,82,o),
(561,213,cs),
(561,220,l),
(429,220,l),
(429,212,ls),
(429,155,o),
(384,112,o),
(311,112,cs),
(226,112,o),
(186,163,o),
(186,275,cs),
(186,419,ls),
(186,540,o),
(224,590,o),
(309,590,cs),
(384,590,o),
(429,545,o),
(429,481,cs),
(429,477,l),
(563,477,l),
(563,482,ls),
(563,636,o),
(449,708,o),
(310,708,cs),
(137,708,o),
(51,614,o),
(51,426,cs),
(51,273,ls),
(51,98,o),
(126,5,o),
(274,-7,c),
(261,-50,l),
(261,-85,l),
(303,-85,ls),
(324,-85,o),
(350,-93,o),
(350,-117,cs),
(350,-139,o),
(320,-143,o),
(303,-143,cs),
(235,-143,l)
);
}
);
width = 614;
},
{
anchors = (
{
name = b.uni0324_2;
position = "{199, -168}";
},
{
name = m.uni0308_1;
position = "{235, 707}";
}
);
layerId = "013B1E1E-EC1A-4004-9A9E-28013B12321E";
shapes = (
{
closed = 1;
nodes = (
(167,-220,l),
(235,-220,l),
(304,-221,o),
(354,-190,o),
(354,-131,c),
(355,-77,o),
(328,-43,o),
(271,-37,c),
(281,-5,l),
(389,13,o),
(437,93,o),
(437,195,cs),
(437,214,l),
(313,214,l),
(313,196,ls),
(313,136,o),
(286,104,o),
(241,104,cs),
(190,104,o),
(166,138,o),
(166,206,cs),
(166,487,ls),
(166,560,o),
(188,595,o),
(241,595,cs),
(285,595,o),
(313,564,o),
(313,503,cs),
(313,482,l),
(438,482,l),
(438,504,ls),
(438,633,o),
(370,708,o),
(244,708,cs),
(120,708,o),
(41,635,o),
(41,507,cs),
(41,193,ls),
(41,74,o),
(103,5,o),
(206,-6,c),
(193,-50,l),
(193,-85,l),
(235,-85,ls),
(256,-85,o),
(282,-93,o),
(282,-117,cs),
(282,-139,o),
(252,-143,o),
(235,-143,cs),
(167,-143,l)
);
}
);
width = 479;
},
{
anchors = (
{
name = b.uni0324_2;
position = "{277, -160}";
},
{
name = m.uni0308_1;
position = "{307, 700}";
}
);
layerId = "0F8D56E4-D9E3-4FE5-8622-D887DCE8F82E";
shapes = (
{
closed = 1;
nodes = (
(247,-220,l),
(305,-220,ls),
(367,-220,o),
(424,-197,o),
(424,-131,cs),
(424,-78,o),
(394,-47,o),
(340,-42,c),
(350,-6,l),
(470,6,o),
(555,81,o),
(555,204,cs),
(555,208,l),
(482,208,l),
(482,204,ls),
(482,116,o),
(420,60,o),
(317,60,cs),
(200,60,o),
(142,126,o),
(142,258,cs),
(142,434,ls),
(142,578,o),
(200,640,o),
(316,640,cs),
(419,640,o),
(482,584,o),
(482,492,cs),
(482,489,l),
(557,489,l),
(557,492,ls),
(557,635,o),
(446,708,o),
(316,708,cs),
(159,708,o),
(68,620,o),
(68,437,cs),
(68,262,ls),
(68,93,o),
(145,6,o),
(281,-6,c),
(269,-48,l),
(269,-85,l),
(305,-85,ls),
(332,-85,o),
(365,-94,o),
(365,-123,cs),
(365,-150,o),
(331,-157,o),
(305,-157,cs),
(247,-157,l)
);
}
);
width = 624;
},
{
anchors = (
{
name = b.uni0324_2;
position = "{126, -170}";
},
{
name = m.uni0308_1;
position = "{168, 714}";
}
);
layerId = "301B1BEE-A3B7-420C-AFCF-2213D48A32DD";
shapes = (
{
closed = 1;
nodes = (
(179,-220,l),
(237,-220,ls),
(299,-220,o),
(356,-197,o),
(356,-131,cs),
(356,-78,o),
(326,-47,o),
(272,-42,c),
(282,-5,l),
(388,10,o),
(432,96,o),
(432,194,cs),
(432,204,l),
(360,204,l),
(360,195,ls),
(360,104,o),
(318,58,o),
(247,58,cs),
(168,59,o),
(129,107,o),
(129,203,cs),
(129,488,ls),
(129,592,o),
(170,640,o),
(247,640,cs),
(319,640,o),
(360,595,o),
(360,502,cs),
(360,495,l),
(434,495,l),
(434,504,ls),
(434,627,o),
(369,708,o),
(246,708,cs),
(127,708,o),
(55,634,o),
(55,495,cs),
(55,204,ls),
(55,81,o),
(115,7,o),
(213,-6,c),
(201,-48,l),
(201,-85,l),
(237,-85,ls),
(264,-85,o),
(297,-94,o),
(297,-123,cs),
(297,-150,o),
(263,-157,o),
(237,-157,cs),
(179,-157,l)
);
}
);
width = 489;
},
{
anchors = (
{
name = b.uni0324_2;
position = "{277, -160}";
},
{
name = m.uni0308_1;
position = "{307, 700}";
}
);
layerId = "B98D4703-DDC7-495E-B040-47EC823CED71";
shapes = (
{
closed = 1;
nodes = (
(248,-220,l),
(295,-220,l),
(364,-221,o),
(414,-192,o),
(414,-138,cs),
(414,-90,o),
(376,-58,o),
(312,-54,c),
(326,-8,l),
(449,-7,o),
(551,72,o),
(551,198,cs),
(551,200,l),
(517,200,l),
(517,199,ls),
(517,90,o),
(444,25,o),
(321,25,cs),
(182,25,o),
(113,102,o),
(113,247,cs),
(113,444,ls),
(113,603,o),
(184,673,o),
(321,673,cs),
(442,673,o),
(517,610,o),
(517,499,cs),
(517,497,l),
(553,497,l),
(553,499,ls),
(553,635,o),
(445,708,o),
(320,708,cs),
(173,708,o),
(79,624,o),
(79,444,cs),
(79,255,ls),
(79,87,o),
(161,3,o),
(293,-7,c),
(276,-61,l),
(276,-83,l),
(295,-83,ls),
(344,-83,o),
(381,-101,o),
(381,-135,cs),
(381,-169,o),
(344,-186,o),
(295,-186,cs),
(248,-186,l)
);
}
);
width = 631;
},
{
anchors = (
{
name = b.uni0324_2;
position = "{77, -171}";
},
{
name = m.uni0308_1;
position = "{123, 719}";
}
);
layerId = "8C36FF45-EE0D-47F3-80A1-ABABB257461F";
shapes = (
{
closed = 1;
nodes = (
(190,-220,l),
(237,-220,l),
(306,-221,o),
(356,-192,o),
(356,-138,cs),
(356,-90,o),
(318,-58,o),
(254,-54,c),
(268,-8,l),
(383,-1,o),
(429,90,o),
(429,193,cs),
(429,197,l),
(391,197,l),
(391,194,ls),
(391,83,o),
(339,27,o),
(251,27,cs),
(154,28,o),
(104,86,o),
(104,201,cs),
(104,489,ls),
(104,613,o),
(158,670,o),
(251,670,cs),
(342,670,o),
(391,616,o),
(391,501,c),
(391,504,l),
(431,504,l),
(431,504,l),
(431,624,o),
(369,708,o),
(247,708,cs),
(132,708,o),
(64,632,o),
(64,487,cs),
(64,211,ls),
(64,78,o),
(131,1,o),
(235,-7,c),
(218,-61,l),
(218,-83,l),
(237,-83,ls),
(286,-83,o),
(323,-101,o),
(323,-135,cs),
(323,-169,o),
(286,-186,o),
(237,-186,cs),
(190,-186,l)
);
}
);
width = 496;
}
);
leftKerningGroup = C;
unicode = 199;
},
{
glyphname = D;
layers = (
{
anchors = (
{
name = b.uni0324_2;
position = "{307, 0}";
},
{
name = m.uni0308_1;
position = "{307, 700}";
}
);
layerId = "FC56AA79-0F4D-414B-B093-B262B77ED935";
shapes = (
{
closed = 1;
nodes = (
(45,0,l),
(292,0,ls),
(475,0,o),
(560,99,o),
(560,290,cs),
(560,412,ls),
(560,612,o),
(468,700,o),
(299,700,cs),
(45,700,l)
);
},
{
closed = 1;
nodes = (
(220,150,l),
(220,550,l),
(297,550,ls),
(362,550,o),
(386,506,o),
(386,403,cs),
(386,294,ls),
(386,195,o),
(356,150,o),
(297,150,cs)
);
}
);
width = 600;
},
{
anchors = (
{
name = b.uni0324_2;
position = "{275, 0}";
},
{
name = m.uni0308_1;
position = "{275, 700}";
}
);
layerId = "386C80E5-B742-4DC4-8C1D-118FE705019B";
shapes = (
{
closed = 1;
nodes = (
(34,0,l),
(223,0,ls),
(354,0,o),
(432,72,o),
(432,192,cs),
(432,508,ls),
(432,632,o),
(354,700,o),
(235,700,cs),
(34,700,l)
);
},
{
closed = 1;
nodes = (
(191,142,l),
(191,556,l),
(230,556,ls),
(257,556,o),
(273,531,o),
(273,476,cs),
(273,216,ls),
(273,171,o),
(258,142,o),
(230,142,cs)
);
}
);
width = 465;
},
{
anchors = (
{
name = b.uni0324_2;
position = "{307, 0}";
},
{
name = m.uni0308_1;
position = "{307, 700}";
}
);
layerId = "A1491DFB-4D7B-4F46-84CC-0E934EA2699F";
shapes = (
{
closed = 1;
nodes = (
(60,0,l),
(305,0,ls),
(477,0,o),
(563,95,o),
(563,282,cs),
(563,419,ls),
(563,611,o),
(473,700,o),
(309,700,cs),
(60,700,l)
);
},
{
closed = 1;
nodes = (
(195,117,l),
(195,583,l),
(308,583,ls),
(392,583,o),
(429,531,o),
(429,412,cs),
(429,283,ls),
(429,171,o),
(388,117,o),
(308,117,cs)
);
}
);
width = 614;
},
{
anchors = (
{
name = b.uni0324_2;
position = "{226, 0}";
},
{
name = m.uni0308_1;
position = "{226, 700}";
}
);
layerId = "013B1E1E-EC1A-4004-9A9E-28013B12321E";
shapes = (
{
closed = 1;
nodes = (
(45,0,l),
(232,0,ls),
(357,0,o),
(433,73,o),
(433,201,cs),
(433,499,ls),
(433,628,o),
(358,700,o),
(239,700,cs),
(45,700,l)
);
},
{
closed = 1;
nodes = (
(169,112,l),
(169,587,l),
(236,587,ls),
(283,587,o),
(308,550,o),
(308,477,cs),
(308,215,ls),
(308,148,o),
(283,112,o),
(236,112,cs)
);
}
);
width = 474;
},
{
anchors = (
{
name = b.uni0324_2;
position = "{307, 0}";
},
{
name = m.uni0308_1;
position = "{307, 700}";
}
);
layerId = "0F8D56E4-D9E3-4FE5-8622-D887DCE8F82E";
shapes = (
{
closed = 1;
nodes = (
(82,0,l),
(324,0,ls),
(480,0,o),
(568,90,o),
(568,270,cs),
(568,429,ls),
(568,609,o),
(480,700,o),
(324,700,cs),
(82,700,l)
);
},
{
closed = 1;
nodes = (
(158,68,l),
(158,632,l),
(325,632,ls),
(436,632,o),
(493,567,o),
(493,426,cs),
(493,266,ls),
(493,134,o),
(437,68,o),
(325,68,cs)
);
}
);
width = 635;
},
{
anchors = (
{
name = b.uni0324_2;
position = "{152, 0}";
},
{
name = m.uni0308_1;
position = "{152, 700}";
}
);
layerId = "301B1BEE-A3B7-420C-AFCF-2213D48A32DD";
shapes = (
{
closed = 1;
nodes = (
(61,0,l),
(245,0,ls),
(362,0,o),
(435,75,o),
(435,214,cs),
(435,486,ls),
(435,623,o),
(364,700,o),
(245,700,cs),
(61,700,l)
);
},
{
closed = 1;
nodes = (
(136,67,l),
(136,633,l),
(245,633,ls),
(321,633,o),
(360,581,o),
(360,478,cs),
(360,213,ls),
(360,116,o),
(320,67,o),
(245,67,cs)
);
}
);
width = 488;
},
{
anchors = (
{
name = b.uni0324_2;
position = "{307, 0}";
},
{
name = m.uni0308_1;
position = "{307, 700}";
}
);
layerId = "B98D4703-DDC7-495E-B040-47EC823CED71";
shapes = (
{
closed = 1;
nodes = (
(97,0,l),
(337,0,ls),
(482,0,o),
(571,86,o),
(571,262,cs),
(571,436,ls),
(571,608,o),
(485,700,o),
(334,700,cs),
(97,700,l)
);
},
{
closed = 1;
nodes = (
(133,35,l),
(133,665,l),
(336,665,ls),
(465,665,o),
(536,592,o),
(536,435,cs),
(536,255,ls),
(536,110,o),
(469,35,o),
(336,35,cs)
);
}
);
width = 649;
},
{
anchors = (
{
name = b.uni0324_2;
position = "{103, 0}";
},
{
name = m.uni0308_1;
position = "{103, 700}";
}
);
layerId = "8C36FF45-EE0D-47F3-80A1-ABABB257461F";
shapes = (
{
closed = 1;
nodes = (
(72,0,l),
(254,0,ls),
(366,0,o),
(436,76,o),
(436,223,cs),
(436,477,ls),
(436,620,o),
(368,700,o),
(249,700,cs),
(72,700,l)
);
},
{
closed = 1;
nodes = (
(114,37,l),
(114,664,l),
(251,664,ls),
(347,664,o),
(395,600,o),
(395,479,cs),
(395,212,ls),
(395,93,o),
(344,37,o),
(251,37,cs)
);
}
);
width = 497;
}
);
unicode = 68;
},
{
glyphname = E;
layers = (
{
anchors = (
{
name = b.uni0324_2;
position = "{285, 0}";
},
{
name = m.uni0308_1;
position = "{285, 700}";
},
{
name = m.uni0328;
position = "{512, 10}";
}
);
layerId = "FC56AA79-0F4D-414B-B093-B262B77ED935";
shapes = (
{
closed = 1;
nodes = (
(45,0,l),
(541,0,l),
(541,150,l),
(220,150,l),
(220,278,l),
(498,278,l),
(498,427,l),
(220,427,l),
(220,550,l),
(541,550,l),
(541,700,l),
(45,700,l)
);
}
);
width = 575;
},
{
anchors = (
{
name = b.uni0324_2;
position = "{262, 0}";
},
{
name = m.uni0308_1;
position = "{262, 700}";
},
{
name = m.uni0328;
position = "{471, 10}";
}
);
layerId = "386C80E5-B742-4DC4-8C1D-118FE705019B";
shapes = (
{
closed = 1;
nodes = (
(33,0,l),
(397,0,l),
(397,143,l),
(189,143,l),
(189,285,l),
(378,285,l),
(378,427,l),
(189,427,l),
(189,556,l),
(397,556,l),
(397,700,l),
(33,700,l)
);
}
);
width = 419;
},
{
anchors = (
{
name = b.uni0324_2;
position = "{285, 0}";
},
{
name = m.uni0308_1;
position = "{285, 700}";
},
{
name = m.uni0328;
position = "{512, 10}";
}
);
layerId = "A1491DFB-4D7B-4F46-84CC-0E934EA2699F";
shapes = (
{
closed = 1;
nodes = (
(60,0,l),
(529,0,l),
(529,117,l),
(195,117,l),
(195,297,l),
(483,297,l),
(483,414,l),
(195,414,l),
(195,583,l),
(529,583,l),
(529,700,l),
(60,700,l)
);
}
);
width = 569;
},
{
anchors = (
{
name = b.uni0324_2;
position = "{213, 0}";
},
{
name = m.uni0308_1;
position = "{213, 700}";
},
{
name = m.uni0328;
position = "{382, 10}";
}
);
layerId = "013B1E1E-EC1A-4004-9A9E-28013B12321E";
shapes = (
{
closed = 1;
nodes = (
(45,0,l),
(388,0,l),
(388,112,l),
(168,112,l),
(168,300,l),
(363,300,l),
(363,412,l),
(168,412,l),
(168,587,l),
(388,587,l),
(388,700,l),
(45,700,l)
);
}
);
width = 416;
},
{
anchors = (
{
name = b.uni0324_2;
position = "{285, 0}";
},
{
name = m.uni0308_1;
position = "{285, 700}";
},
{
name = m.uni0328;
position = "{512, 10}";
}
);
layerId = "0F8D56E4-D9E3-4FE5-8622-D887DCE8F82E";
shapes = (
{
closed = 1;
nodes = (
(82,0,l),
(511,0,l),
(511,68,l),
(157,68,l),
(157,326,l),
(460,326,l),
(460,394,l),
(157,394,l),
(157,632,l),
(511,632,l),
(511,700,l),
(82,700,l)
);
}
);
width = 560;
},
{
anchors = (
{
name = b.uni0324_2;
position = "{139, 0}";
},
{
name = m.uni0308_1;
position = "{139, 700}";
},
{
name = m.uni0328;
position = "{249, 10}";
}
);
layerId = "301B1BEE-A3B7-420C-AFCF-2213D48A32DD";
shapes = (
{
closed = 1;
nodes = (
(63,0,l),
(374,0,l),
(374,66,l),
(136,66,l),
(136,323,l),
(341,323,l),
(341,389,l),
(136,389,l),
(136,634,l),
(374,634,l),
(374,700,l),
(63,700,l)
);
}
);
width = 412;
},
{
anchors = (
{
name = b.uni0324_2;
position = "{285, 0}";
},
{
name = m.uni0308_1;
position = "{285, 700}";
},
{
name = m.uni0328;
position = "{512, 10}";
}
);
layerId = "B98D4703-DDC7-495E-B040-47EC823CED71";
shapes = (
{
closed = 1;
nodes = (
(97,0,l),
(499,0,l),
(499,35,l),
(132,35,l),
(132,345,l),
(445,345,l),
(445,381,l),
(132,381,l),
(132,665,l),
(499,665,l),
(499,700,l),
(97,700,l)
);
}
);
width = 554;
},
{
anchors = (
{
name = b.uni0324_2;
position = "{90, 0}";
},
{
name = m.uni0308_1;
position = "{90, 700}";
},
{
name = m.uni0328;
position = "{160, 10}";
}
);
layerId = "8C36FF45-EE0D-47F3-80A1-ABABB257461F";
shapes = (
{
closed = 1;
nodes = (
(75,0,l),
(365,0,l),
(365,35,l),
(115,35,l),
(115,338,l),
(326,338,l),
(326,374,l),
(115,374,l),
(115,665,l),
(365,665,l),
(365,700,l),
(75,700,l)
);
}
);
width = 409;
}
);
unicode = 69;
},
{
glyphname = Ecedilla;
layers = (
{
anchors = (
{
name = b.uni0324_2;
position = "{255, -160}";
},
{
name = m.uni0308_1;
position = "{285, 700}";
},
{
name = m.uni0328;
position = "{512, 10}";
}
);
layerId = "FC56AA79-0F4D-414B-B093-B262B77ED935";
shapes = (
{
closed = 1;
nodes = (
(45,0,l),
(255,0,l),
(240,-52,l),
(240,-85,l),
(286,-85,ls),
(303,-85,o),
(325,-93,o),
(325,-113,cs),
(325,-132,o),
(298,-133,o),
(286,-133,cs),
(212,-133,l),
(212,-220,l),
(286,-220,l),
(360,-222,o),
(405,-186,o),
(405,-131,c),
(407,-75,o),
(381,-40,o),
(323,-34,c),
(333,0,l),
(541,0,l),
(541,150,l),
(220,150,l),
(220,278,l),
(498,278,l),
(498,427,l),
(220,427,l),
(220,550,l),
(541,550,l),
(541,700,l),
(45,700,l)
);
}
);
width = 575;
},
{
anchors = (
{
name = b.uni0324_2;
position = "{230, -167}";
},
{
name = m.uni0308_1;
position = "{262, 700}";
},
{
name = m.uni0328;
position = "{471, 10}";
}
);
layerId = "386C80E5-B742-4DC4-8C1D-118FE705019B";
shapes = (
{
closed = 1;
nodes = (
(33,0,l),
(154,0,l),
(139,-52,l),
(139,-85,l),
(185,-85,ls),
(202,-85,o),
(224,-93,o),
(224,-113,cs),
(224,-132,o),
(197,-133,o),
(185,-133,cs),
(111,-133,l),
(111,-220,l),
(185,-220,l),
(259,-222,o),
(304,-186,o),
(304,-131,c),
(306,-75,o),
(280,-40,o),
(222,-34,c),
(232,0,l),
(397,0,l),
(397,143,l),
(189,143,l),
(189,285,l),
(378,285,l),
(378,427,l),
(189,427,l),
(189,556,l),
(397,556,l),
(397,700,l),
(33,700,l)
);
}
);
width = 419;
},
{
anchors = (
{
name = b.uni0324_2;
position = "{255, -160}";
},
{
name = m.uni0308_1;
position = "{285, 700}";
},
{
name = m.uni0328;
position = "{512, 10}";
}
);
layerId = "A1491DFB-4D7B-4F46-84CC-0E934EA2699F";
shapes = (
{
closed = 1;
nodes = (
(60,0,l),
(254,0,l),
(239,-50,l),
(239,-85,l),
(281,-85,ls),
(302,-85,o),
(328,-93,o),
(328,-117,cs),
(328,-139,o),
(298,-143,o),
(281,-143,cs),
(213,-143,l),
(213,-220,l),
(281,-220,l),
(350,-221,o),
(400,-190,o),
(400,-131,c),
(401,-77,o),
(374,-43,o),
(317,-37,c),
(328,0,l),
(529,0,l),
(529,117,l),
(195,117,l),
(195,297,l),
(483,297,l),
(483,414,l),
(195,414,l),
(195,583,l),
(529,583,l),
(529,700,l),
(60,700,l)
);
}
);
width = 569;
},
{
anchors = (
{
name = b.uni0324_2;
position = "{177, -168}";
},
{
name = m.uni0308_1;
position = "{213, 700}";
},
{
name = m.uni0328;
position = "{382, 10}";
}
);
layerId = "013B1E1E-EC1A-4004-9A9E-28013B12321E";
shapes = (
{
closed = 1;
nodes = (
(45,0,l),
(176,0,l),
(161,-50,l),
(161,-85,l),
(203,-85,ls),
(224,-85,o),
(250,-93,o),
(250,-117,cs),
(250,-139,o),
(220,-143,o),
(203,-143,cs),
(135,-143,l),
(135,-220,l),
(203,-220,l),
(272,-221,o),
(322,-190,o),
(322,-131,c),
(323,-77,o),
(296,-43,o),
(239,-37,c),
(250,0,l),
(388,0,l),
(388,112,l),
(168,112,l),
(168,300,l),
(363,300,l),
(363,412,l),
(168,412,l),
(168,587,l),
(388,587,l),
(388,700,l),
(45,700,l)
);
}
);
width = 416;
},
{
anchors = (
{
name = b.uni0324_2;
position = "{255, -160}";
},
{
name = m.uni0308_1;
position = "{285, 700}";
},
{
name = m.uni0328;
position = "{512, 10}";
}
);
layerId = "0F8D56E4-D9E3-4FE5-8622-D887DCE8F82E";
shapes = (
{
closed = 1;
nodes = (
(82,0,l),
(251,0,l),
(237,-48,l),
(237,-85,l),
(273,-85,ls),
(300,-85,o),
(333,-94,o),
(333,-123,cs),
(333,-150,o),
(299,-157,o),
(273,-157,cs),
(215,-157,l),
(215,-220,l),
(273,-220,ls),
(335,-220,o),
(392,-197,o),
(392,-131,cs),
(392,-78,o),
(362,-47,o),
(308,-42,c),
(320,0,l),
(511,0,l),
(511,68,l),
(157,68,l),
(157,326,l),
(460,326,l),
(460,394,l),
(157,394,l),
(157,632,l),
(511,632,l),
(511,700,l),
(82,700,l)
);
}
);
width = 560;
},
{
anchors = (
{
name = b.uni0324_2;
position = "{97, -170}";
},
{
name = m.uni0308_1;
position = "{139, 700}";
},
{
name = m.uni0328;
position = "{249, 10}";
}
);
layerId = "301B1BEE-A3B7-420C-AFCF-2213D48A32DD";
shapes = (
{
closed = 1;
nodes = (
(63,0,l),
(176,0,l),
(162,-48,l),
(162,-85,l),
(198,-85,ls),
(225,-85,o),
(258,-94,o),
(258,-123,cs),
(258,-150,o),
(224,-157,o),
(198,-157,cs),
(140,-157,l),
(140,-220,l),
(198,-220,ls),
(260,-220,o),
(317,-197,o),
(317,-131,cs),
(317,-78,o),
(287,-47,o),
(233,-42,c),
(245,0,l),
(374,0,l),
(374,66,l),
(136,66,l),
(136,323,l),
(341,323,l),
(341,389,l),
(136,389,l),
(136,634,l),
(374,634,l),
(374,700,l),
(63,700,l)
);
}
);
width = 412;
},
{
anchors = (
{
name = b.uni0324_2;
position = "{255, -160}";
},
{
name = m.uni0308_1;
position = "{285, 700}";
},
{
name = m.uni0328;
position = "{512, 10}";
}
);
layerId = "B98D4703-DDC7-495E-B040-47EC823CED71";
shapes = (
{
closed = 1;
nodes = (
(97,0,l),
(256,0,l),
(237,-61,l),
(237,-83,l),
(256,-83,ls),
(305,-83,o),
(342,-101,o),
(342,-135,cs),
(342,-169,o),
(305,-186,o),
(256,-186,cs),
(209,-186,l),
(209,-220,l),
(256,-220,l),
(325,-221,o),
(375,-192,o),
(375,-138,cs),
(375,-90,o),
(337,-58,o),
(273,-54,c),
(289,0,l),
(499,0,l),
(499,35,l),
(132,35,l),
(132,345,l),
(445,345,l),
(445,381,l),
(132,381,l),
(132,665,l),
(499,665,l),
(499,700,l),
(97,700,l)
);
}
);
width = 554;
},
{
anchors = (
{
name = b.uni0324_2;
position = "{44, -171}";
},
{
name = m.uni0308_1;
position = "{90, 700}";
},
{
name = m.uni0328;
position = "{160, 10}";
}
);
layerId = "8C36FF45-EE0D-47F3-80A1-ABABB257461F";
shapes = (
{
closed = 1;
nodes = (
(75,0,l),
(193,0,l),
(174,-61,l),
(174,-83,l),
(193,-83,ls),
(242,-83,o),
(279,-101,o),
(279,-135,cs),
(279,-169,o),
(242,-186,o),
(193,-186,cs),
(146,-186,l),
(146,-220,l),
(193,-220,l),
(262,-221,o),
(312,-192,o),
(312,-138,cs),
(312,-90,o),
(274,-58,o),
(210,-54,c),
(226,0,l),
(365,0,l),
(365,35,l),
(115,35,l),
(115,338,l),
(326,338,l),
(326,374,l),
(115,374,l),
(115,665,l),
(365,665,l),
(365,700,l),
(75,700,l)
);
}
);
width = 409;
}
);
unicode = 552;
},
{
glyphname = F;
layers = (
{
anchors = (
{
name = b.uni0324_2;
position = "{285, 0}";
},
{
name = m.uni0308_1;
position = "{285, 700}";
}
);
layerId = "FC56AA79-0F4D-414B-B093-B262B77ED935";
shapes = (
{
closed = 1;
nodes = (
(45,0,l),
(220,0,l),
(220,278,l),
(500,278,l),
(500,427,l),
(220,427,l),
(220,550,l),
(541,550,l),
(541,700,l),
(45,700,l)
);
}
);
width = 574;
},
{
anchors = (
{
name = b.uni0324_2;
position = "{266, 0}";
},
{
name = m.uni0308_1;
position = "{266, 700}";
}
);
layerId = "386C80E5-B742-4DC4-8C1D-118FE705019B";
shapes = (
{
closed = 1;
nodes = (
(33,0,l),
(190,0,l),
(190,285,l),
(379,285,l),
(379,429,l),
(190,429,l),
(190,556,l),
(397,556,l),
(397,700,l),
(33,700,l)
);
}
);
width = 429;
},
{
anchors = (
{
name = b.uni0324_2;
position = "{285, 0}";
},
{
name = m.uni0308_1;
position = "{285, 700}";
}
);
layerId = "A1491DFB-4D7B-4F46-84CC-0E934EA2699F";
shapes = (
{
closed = 1;
nodes = (
(60,0,l),
(195,0,l),
(195,297,l),
(484,297,l),
(484,414,l),
(195,414,l),
(195,583,l),
(529,583,l),
(529,700,l),
(60,700,l)
);
}
);
width = 569;
},
{
anchors = (
{
name = b.uni0324_2;
position = "{214, 0}";
},
{
name = m.uni0308_1;
position = "{214, 700}";
}
);
layerId = "013B1E1E-EC1A-4004-9A9E-28013B12321E";
shapes = (
{
closed = 1;
nodes = (
(45,0,l),
(169,0,l),
(169,299,l),
(364,299,l),
(364,412,l),
(169,412,l),
(169,587,l),
(388,587,l),
(388,700,l),
(45,700,l)
);
}
);
width = 420;
},
{
anchors = (
{
name = b.uni0324_2;
position = "{285, 0}";
},
{
name = m.uni0308_1;
position = "{285, 700}";
}
);
layerId = "0F8D56E4-D9E3-4FE5-8622-D887DCE8F82E";
shapes = (
{
closed = 1;
nodes = (
(82,0,l),
(157,0,l),
(157,326,l),
(460,326,l),
(460,394,l),
(157,394,l),
(157,632,l),
(511,632,l),
(511,700,l),
(82,700,l)
);
}
);
width = 561;
},
{
anchors = (
{
name = b.uni0324_2;
position = "{136, 0}";
},
{
name = m.uni0308_1;
position = "{136, 700}";
}
);
layerId = "301B1BEE-A3B7-420C-AFCF-2213D48A32DD";
shapes = (
{
closed = 1;
nodes = (
(63,0,l),
(137,0,l),
(137,320,l),
(342,320,l),
(342,386,l),
(137,386,l),
(137,634,l),
(374,634,l),
(374,700,l),
(63,700,l)
);
}
);
width = 406;
},
{
anchors = (
{
name = b.uni0324_2;
position = "{285, 0}";
},
{
name = m.uni0308_1;
position = "{285, 700}";
}
);
layerId = "B98D4703-DDC7-495E-B040-47EC823CED71";
shapes = (
{
closed = 1;
nodes = (
(97,0,l),
(132,0,l),
(132,345,l),
(444,345,l),
(444,381,l),
(132,381,l),
(132,665,l),
(499,665,l),
(499,700,l),
(97,700,l)
);
}
);
width = 556;
},
{
anchors = (
{
name = b.uni0324_2;
position = "{84, 0}";
},
{
name = m.uni0308_1;
position = "{84, 700}";
}
);
layerId = "8C36FF45-EE0D-47F3-80A1-ABABB257461F";
shapes = (
{
closed = 1;
nodes = (
(75,0,l),
(116,0,l),
(116,334,l),
(327,334,l),
(327,369,l),
(116,369,l),
(116,665,l),
(365,665,l),
(365,700,l),
(75,700,l)
);
}
);
width = 397;
}
);
unicode = 70;
},
{
glyphname = G;
layers = (
{
anchors = (
{
name = b.uni0324_2;
position = "{307, 0}";
},
{
name = m.uni0308_1;
position = "{307, 700}";
}
);
layerId = "FC56AA79-0F4D-414B-B093-B262B77ED935";
shapes = (
{
closed = 1;
nodes = (
(487,-8,o),
(567,88,o),
(567,266,cs),
(567,391,l),
(303,391,l),
(303,250,l),
(399,250,l),
(399,237,ls),
(399,177,o),
(376,147,o),
(313,147,cs),
(241,147,o),
(215,183,o),
(215,286,cs),
(215,409,ls),
(215,517,o),
(240,557,o),
(305,557,cs),
(361,557,o),
(395,516,o),
(395,467,cs),
(395,458,l),
(568,458,l),
(568,467,ls),
(568,633,o),
(459,708,o),
(307,708,cs),
(115,708,o),
(40,602,o),
(40,419,cs),
(40,280,ls),
(40,100,o),
(114,-8,o),
(304,-8,cs)
);
}
);
width = 607;
},
{
anchors = (
{
name = b.uni0324_2;
position = "{280, 0}";
},
{
name = m.uni0308_1;
position = "{280, 700}";
}
);
layerId = "386C80E5-B742-4DC4-8C1D-118FE705019B";
shapes = (
{
closed = 1;
nodes = (
(349,-8,o),
(439,62,o),
(439,185,cs),
(439,381,l),
(237,381,l),
(237,260,l),
(282,260,l),
(282,200,ls),
(282,159,o),
(271,135,o),
(238,135,cs),
(206,135,o),
(191,159,o),
(191,208,cs),
(191,486,ls),
(191,541,o),
(201,564,o),
(238,564,cs),
(262,564,o),
(282,544,o),
(282,511,cs),
(282,484,l),
(439,484,l),
(439,511,ls),
(439,638,o),
(365,708,o),
(243,708,cs),
(121,708,o),
(33,643,o),
(33,515,cs),
(33,184,ls),
(33,59,o),
(108,-8,o),
(231,-8,cs)
);
}
);
width = 472;
},
{
anchors = (
{
name = b.uni0324_2;
position = "{307, 0}";
},
{
name = m.uni0308_1;
position = "{307, 700}";
}
);
layerId = "A1491DFB-4D7B-4F46-84CC-0E934EA2699F";
shapes = (
{
closed = 1;
nodes = (
(485,-8,o),
(563,92,o),
(563,263,cs),
(563,384,l),
(307,384,l),
(307,273,l),
(432,273,l),
(432,240,ls),
(432,153,o),
(395,112,o),
(314,112,cs),
(225,112,o),
(186,160,o),
(186,275,cs),
(186,419,ls),
(186,540,o),
(224,590,o),
(309,590,cs),
(384,590,o),
(429,543,o),
(429,478,cs),
(429,471,l),
(563,471,l),
(563,478,ls),
(563,634,o),
(452,708,o),
(310,708,cs),
(126,708,o),
(51,602,o),
(51,426,cs),
(51,273,ls),
(51,99,o),
(126,-8,o),
(308,-8,cs)
);
}
);
width = 614;
},
{
anchors = (
{
name = b.uni0324_2;
position = "{235, 0}";
},
{
name = m.uni0308_1;
position = "{235, 700}";
}
);
layerId = "013B1E1E-EC1A-4004-9A9E-28013B12321E";
shapes = (
{
closed = 1;
nodes = (
(360,-8,o),
(437,69,o),
(437,192,cs),
(437,372,l),
(240,372,l),
(240,275,l),
(313,275,l),
(313,200,ls),
(313,137,o),
(290,104,o),
(241,104,cs),
(190,105,o),
(166,138,o),
(166,206,cs),
(166,487,ls),
(166,560,o),
(188,595,o),
(241,595,cs),
(284,595,o),
(313,564,o),
(313,512,cs),
(313,491,l),
(437,491,l),
(437,512,ls),
(437,638,o),
(365,708,o),
(244,708,cs),
(118,708,o),
(42,634,o),
(42,507,cs),
(42,192,ls),
(42,67,o),
(110,-8,o),
(237,-8,cs)
);
}
);
width = 479;
},
{
anchors = (
{
name = b.uni0324_2;
position = "{307, 0}";
},
{
name = m.uni0308_1;
position = "{307, 700}";
}
);
layerId = "0F8D56E4-D9E3-4FE5-8622-D887DCE8F82E";
shapes = (
{
closed = 1;
nodes = (
(484,-8,o),
(557,97,o),
(557,258,cs),
(557,373,l),
(313,373,l),
(313,307,l),
(482,307,l),
(482,245,ls),
(482,118,o),
(425,60,o),
(316,60,cs),
(200,60,o),
(142,126,o),
(142,258,cs),
(142,434,ls),
(142,575,o),
(200,640,o),
(315,640,cs),
(418,640,o),
(480,585,o),
(480,494,cs),
(480,490,l),
(555,490,l),
(555,494,ls),
(555,636,o),
(443,708,o),
(314,708,cs),
(142,708,o),
(68,600,o),
(68,437,cs),
(68,262,ls),
(68,99,o),
(142,-8,o),
(314,-8,cs)
);
}
);
width = 624;
},
{
anchors = (
{
name = b.uni0324_2;
position = "{168, 0}";
},
{
name = m.uni0308_1;
position = "{168, 700}";
}
);
layerId = "301B1BEE-A3B7-420C-AFCF-2213D48A32DD";
shapes = (
{
closed = 1;
nodes = (
(375,-8,o),
(434,81,o),
(434,203,cs),
(434,358,l),
(245,358,l),
(245,297,l),
(360,297,l),
(360,200,ls),
(360,105,o),
(318,58,o),
(246,58,cs),
(167,59,o),
(129,107,o),
(129,203,cs),
(129,488,ls),
(129,591,o),
(169,641,o),
(246,641,cs),
(317,641,o),
(360,594,o),
(360,514,cs),
(360,502,l),
(434,502,l),
(434,514,ls),
(434,637,o),
(365,708,o),
(246,708,cs),
(114,708,o),
(55,619,o),
(55,495,cs),
(55,204,ls),
(55,81,o),
(115,-8,o),
(246,-8,cs)
);
}
);
width = 489;
},
{
anchors = (
{
name = b.uni0324_2;
position = "{307, 0}";
},
{
name = m.uni0308_1;
position = "{307, 700}";
}
);
layerId = "B98D4703-DDC7-495E-B040-47EC823CED71";
shapes = (
{
closed = 1;
nodes = (
(482,-8,o),
(553,101,o),
(553,255,cs),
(553,366,l),
(317,366,l),
(317,330,l),
(515,330,l),
(515,248,ls),
(515,95,o),
(445,25,o),
(317,25,cs),
(184,25,o),
(113,103,o),
(113,247,cs),
(113,444,ls),
(113,599,o),
(184,673,o),
(319,673,cs),
(440,673,o),
(514,612,o),
(514,505,cs),
(514,503,l),
(550,503,l),
(550,505,ls),
(550,637,o),
(437,708,o),
(317,708,cs),
(152,708,o),
(79,600,o),
(79,444,cs),
(79,255,ls),
(79,98,o),
(153,-8,o),
(318,-8,cs)
);
}
);
width = 631;
},
{
anchors = (
{
name = b.uni0324_2;
position = "{123, 0}";
},
{
name = m.uni0308_1;
position = "{123, 700}";
}
);
layerId = "8C36FF45-EE0D-47F3-80A1-ABABB257461F";
shapes = (
{
closed = 1;
nodes = (
(385,-8,o),
(432,90,o),
(432,210,cs),
(432,349,l),
(248,349,l),
(248,312,l),
(391,312,l),
(391,200,ls),
(391,84,o),
(337,27,o),
(249,27,cs),
(152,28,o),
(104,86,o),
(104,201,cs),
(104,489,ls),
(104,610,o),
(156,672,o),
(249,672,cs),
(338,672,o),
(391,614,o),
(391,515,cs),
(391,509,l),
(432,509,l),
(432,515,ls),
(432,637,o),
(366,708,o),
(247,708,cs),
(113,708,o),
(64,607,o),
(64,487,cs),
(64,212,ls),
(64,90,o),
(119,-8,o),
(252,-8,cs)
);
}
);
width = 496;
}
);
unicode = 71;
},
{
glyphname = H;
layers = (
{
anchors = (
{
name = b.uni0324_2;
position = "{312, 0}";
},
{
name = m.uni0308_1;
position = "{312, 700}";
}
);
layerId = "FC56AA79-0F4D-414B-B093-B262B77ED935";
shapes = (
{
closed = 1;
nodes = (
(45,0,l),
(220,0,l),
(220,278,l),
(390,278,l),
(390,0,l),
(564,0,l),
(564,700,l),
(390,700,l),
(390,427,l),
(220,427,l),
(220,700,l),
(45,700,l)
);
}
);
width = 609;
},
{
anchors = (
{
name = b.uni0324_2;
position = "{277, 0}";
},
{
name = m.uni0308_1;
position = "{277, 700}";
}
);
layerId = "386C80E5-B742-4DC4-8C1D-118FE705019B";
shapes = (
{
closed = 1;
nodes = (
(33,0,l),
(192,0,l),
(192,284,l),
(267,284,l),
(267,0,l),
(426,0,l),
(426,700,l),
(267,700,l),
(267,427,l),
(192,427,l),
(192,700,l),
(33,700,l)
);
}
);
width = 459;
},
{
anchors = (
{
name = b.uni0324_2;
position = "{312, 0}";
},
{
name = m.uni0308_1;
position = "{312, 700}";
}
);
layerId = "A1491DFB-4D7B-4F46-84CC-0E934EA2699F";
shapes = (
{
closed = 1;
nodes = (
(60,0,l),
(195,0,l),
(195,297,l),
(429,297,l),
(429,0,l),
(563,0,l),
(563,700,l),
(429,700,l),
(429,414,l),
(195,414,l),
(195,700,l),
(60,700,l)
);
}
);
width = 623;
},
{
anchors = (
{
name = b.uni0324_2;
position = "{226, 0}";
},
{
name = m.uni0308_1;
position = "{226, 700}";
}
);
layerId = "013B1E1E-EC1A-4004-9A9E-28013B12321E";
shapes = (
{
closed = 1;
nodes = (
(45,0,l),
(170,0,l),
(170,300,l),
(301,300,l),
(301,0,l),
(426,0,l),
(426,700,l),
(301,700,l),
(301,412,l),
(170,412,l),
(170,700,l),
(45,700,l)
);
}
);
width = 471;
},
{
anchors = (
{
name = b.uni0324_2;
position = "{312, 0}";
},
{
name = m.uni0308_1;
position = "{312, 700}";
}
);
layerId = "0F8D56E4-D9E3-4FE5-8622-D887DCE8F82E";
shapes = (
{
closed = 1;
nodes = (
(82,0,l),
(157,0,l),
(157,326,l),
(487,326,l),
(487,0,l),
(562,0,l),
(562,700,l),
(487,700,l),
(487,394,l),
(157,394,l),
(157,700,l),
(82,700,l)
);
}
);
width = 644;
},
{
anchors = (
{
name = b.uni0324_2;
position = "{149, 0}";
},
{
name = m.uni0308_1;
position = "{149, 700}";
}
);
layerId = "301B1BEE-A3B7-420C-AFCF-2213D48A32DD";
shapes = (
{
closed = 1;
nodes = (
(63,0,l),
(137,0,l),
(137,324,l),
(352,324,l),
(352,0,l),
(426,0,l),
(426,700,l),
(352,700,l),
(352,389,l),
(137,389,l),
(137,700,l),
(63,700,l)
);
}
);
width = 489;
},
{
anchors = (
{
name = b.uni0324_2;
position = "{312, 0}";
},
{
name = m.uni0308_1;
position = "{312, 700}";
}
);
layerId = "B98D4703-DDC7-495E-B040-47EC823CED71";
shapes = (
{
closed = 1;
nodes = (
(97,0,l),
(132,0,l),
(132,345,l),
(526,345,l),
(526,0,l),
(561,0,l),
(561,700,l),
(526,700,l),
(526,381,l),
(132,381,l),
(132,700,l),
(97,700,l)
);
}
);
width = 658;
},
{
anchors = (
{
name = b.uni0324_2;
position = "{98, 0}";
},
{
name = m.uni0308_1;
position = "{98, 700}";
}
);
layerId = "8C36FF45-EE0D-47F3-80A1-ABABB257461F";
shapes = (
{
closed = 1;
nodes = (
(75,0,l),
(115,0,l),
(115,340,l),
(386,340,l),
(386,0,l),
(426,0,l),
(426,700,l),
(386,700,l),
(386,374,l),
(115,374,l),
(115,700,l),
(75,700,l)
);
}
);
width = 501;
}
);
unicode = 72;
},
{
glyphname = Hbar;
layers = (
{
layerId = "FC56AA79-0F4D-414B-B093-B262B77ED935";
shapes = (
{
closed = 1;
nodes = (
(-10,524,l),
(619,524,l),
(619,676,l),
(-10,676,l)
);
},
{
closed = 1;
nodes = (
(45,0,l),
(220,0,l),
(220,280,l),
(390,280,l),
(390,0,l),
(564,0,l),
(564,707,l),
(390,707,l),
(390,430,l),
(220,430,l),
(220,707,l),
(45,707,l)
);
}
);
width = 609;
},
{
layerId = "386C80E5-B742-4DC4-8C1D-118FE705019B";
shapes = (
{
closed = 1;
nodes = (
(-6,521,l),
(460,521,l),
(460,666,l),
(-6,666,l)
);
},
{
closed = 1;
nodes = (
(31,0,l),
(191,0,l),
(191,287,l),
(268,287,l),
(268,0,l),
(428,0,l),
(428,707,l),
(268,707,l),
(268,431,l),
(191,431,l),
(191,707,l),
(31,707,l)
);
}
);
width = 459;
},
{
layerId = "A1491DFB-4D7B-4F46-84CC-0E934EA2699F";
shapes = (
{
closed = 1;
nodes = (
(10,515,l),
(612,515,l),
(612,633,l),
(10,633,l)
);
},
{
closed = 1;
nodes = (
(60,0,l),
(195,0,l),
(195,299,l),
(429,299,l),
(429,0,l),
(563,0,l),
(563,707,l),
(429,707,l),
(429,416,l),
(195,416,l),
(195,707,l),
(60,707,l)
);
}
);
width = 623;
},
{
layerId = "013B1E1E-EC1A-4004-9A9E-28013B12321E";
shapes = (
{
closed = 1;
nodes = (
(9,518,l),
(461,518,l),
(461,631,l),
(9,631,l)
);
},
{
closed = 1;
nodes = (
(43,0,l),
(169,0,l),
(169,303,l),
(302,303,l),
(302,0,l),
(428,0,l),
(428,707,l),
(302,707,l),
(302,416,l),
(169,416,l),
(169,707,l),
(43,707,l)
);
}
);
width = 471;
},
{
layerId = "0F8D56E4-D9E3-4FE5-8622-D887DCE8F82E";
shapes = (
{
closed = 1;
nodes = (
(40,502,l),
(602,502,l),
(602,569,l),
(40,569,l)
);
},
{
closed = 1;
nodes = (
(82,0,l),
(157,0,l),
(157,328,l),
(487,328,l),
(487,0,l),
(562,0,l),
(562,707,l),
(487,707,l),
(487,395,l),
(157,395,l),
(157,707,l),
(82,707,l)
);
}
);
width = 644;
},
{
layerId = "301B1BEE-A3B7-420C-AFCF-2213D48A32DD";
shapes = (
{
closed = 1;
nodes = (
(31,513,l),
(463,513,l),
(463,579,l),
(31,579,l)
);
},
{
closed = 1;
nodes = (
(61,0,l),
(136,0,l),
(136,327,l),
(353,327,l),
(353,0,l),
(428,0,l),
(428,707,l),
(353,707,l),
(353,393,l),
(136,393,l),
(136,707,l),
(61,707,l)
);
}
);
width = 489;
},
{
layerId = "B98D4703-DDC7-495E-B040-47EC823CED71";
shapes = (
{
closed = 1;
nodes = (
(60,493,l),
(595,493,l),
(595,526,l),
(60,526,l)
);
},
{
closed = 1;
nodes = (
(97,0,l),
(132,0,l),
(132,347,l),
(526,347,l),
(526,0,l),
(561,0,l),
(561,707,l),
(526,707,l),
(526,381,l),
(132,381,l),
(132,707,l),
(97,707,l)
);
}
);
width = 658;
},
{
layerId = "8C36FF45-EE0D-47F3-80A1-ABABB257461F";
shapes = (
{
closed = 1;
nodes = (
(46,510,l),
(464,510,l),
(464,544,l),
(46,544,l)
);
},
{
closed = 1;
nodes = (
(73,0,l),
(114,0,l),
(114,343,l),
(387,343,l),
(387,0,l),
(428,0,l),
(428,707,l),
(387,707,l),
(387,378,l),
(114,378,l),
(114,707,l),
(73,707,l)
);
}
);
width = 501;
}
);
unicode = 294;
},
{
glyphname = I;
layers = (
{
anchors = (
{
name = b.uni0324_2;
position = "{127, 0}";
},
{
name = m.uni0308_1;
position = "{127, 700}";
},
{
name = m.uni0328;
position = "{179, 10}";
}
);
layerId = "FC56AA79-0F4D-414B-B093-B262B77ED935";
shapes = (
{
closed = 1;
nodes = (
(40,0,l),
(213,0,l),
(213,700,l),
(40,700,l)
);
}
);
width = 254;
},
{
anchors = (
{
name = b.uni0324_2;
position = "{125, 0}";
},
{
name = m.uni0308_1;
position = "{125, 700}";
},
{
name = m.uni0328;
position = "{188, 10}";
}
);
layerId = "386C80E5-B742-4DC4-8C1D-118FE705019B";
shapes = (
{
closed = 1;
nodes = (
(33,0,l),
(193,0,l),
(193,700,l),
(33,700,l)
);
}
);
width = 226;
},
{
anchors = (
{
name = b.uni0324_2;
position = "{127, 0}";
},
{
name = m.uni0308_1;
position = "{127, 700}";
},
{
name = m.uni0328;
position = "{179, 10}";
}
);
layerId = "A1491DFB-4D7B-4F46-84CC-0E934EA2699F";
shapes = (
{
closed = 1;
nodes = (
(60,0,l),
(194,0,l),
(194,700,l),
(60,700,l)
);
}
);
width = 254;
},
{
anchors = (
{
name = b.uni0324_2;
position = "{110, 0}";
},
{
name = m.uni0308_1;
position = "{110, 700}";
},
{
name = m.uni0328;
position = "{172, 10}";
}
);
layerId = "013B1E1E-EC1A-4004-9A9E-28013B12321E";
shapes = (
{
closed = 1;
nodes = (
(47,0,l),
(172,0,l),
(172,700,l),
(47,700,l)
);
}
);
width = 219;
},
{
anchors = (
{
name = b.uni0324_2;
position = "{127, 0}";
},
{
name = m.uni0308_1;
position = "{127, 700}";
},
{
name = m.uni0328;
position = "{179, 10}";
}
);
layerId = "0F8D56E4-D9E3-4FE5-8622-D887DCE8F82E";
shapes = (
{
closed = 1;
nodes = (
(90,0,l),
(165,0,l),
(165,700,l),
(90,700,l)
);
}
);
width = 254;
},
{
anchors = (
{
name = b.uni0324_2;
position = "{87, 0}";
},
{
name = m.uni0308_1;
position = "{87, 700}";
},
{
name = m.uni0328;
position = "{148, 10}";
}
);
layerId = "301B1BEE-A3B7-420C-AFCF-2213D48A32DD";
shapes = (
{
closed = 1;
nodes = (
(68,0,l),
(141,0,l),
(141,700,l),
(68,700,l)
);
}
);
width = 208;
},
{
anchors = (
{
name = b.uni0324_2;
position = "{127, 0}";
},
{
name = m.uni0308_1;
position = "{127, 700}";
},
{
name = m.uni0328;
position = "{179, 10}";
}
);
layerId = "B98D4703-DDC7-495E-B040-47EC823CED71";
shapes = (
{
closed = 1;
nodes = (
(110,0,l),
(146,0,l),
(146,700,l),
(110,700,l)
);
}
);
width = 254;
},
{
anchors = (
{
name = b.uni0324_2;
position = "{72, 0}";
},
{
name = m.uni0308_1;
position = "{72, 700}";
},
{
name = m.uni0328;
position = "{132, 10}";
}
);
layerId = "8C36FF45-EE0D-47F3-80A1-ABABB257461F";
shapes = (
{
closed = 1;
nodes = (
(82,0,l),
(120,0,l),
(120,700,l),
(82,700,l)
);
}
);
width = 201;
}
);
unicode = 73;
},
{
glyphname = J;
layers = (
{
anchors = (
{
name = b.uni0324_2;
position = "{289, 0}";
},
{
name = m.uni0308_1;
position = "{324, 700}";
}
);
layerId = "FC56AA79-0F4D-414B-B093-B262B77ED935";
shapes = (
{
closed = 1;
nodes = (
(35,0,l),
(216,0,ls),
(331,0,o),
(399,64,o),
(399,179,cs),
(399,700,l),
(223,700,l),
(223,210,ls),
(223,163,o),
(211,151,o),
(171,151,cs),
(35,151,l)
);
},
{
closed = 1;
nodes = (
(399,700,l),
(139,700,l),
(139,549,l),
(399,549,l)
);
}
);
width = 449;
},
{
anchors = (
{
name = b.uni0324_2;
position = "{269, 0}";
},
{
name = m.uni0308_1;
position = "{302, 700}";
}
);
layerId = "386C80E5-B742-4DC4-8C1D-118FE705019B";
shapes = (
{
closed = 1;
nodes = (
(22,0,l),
(133,0,ls),
(277,0,o),
(344,62,o),
(344,187,cs),
(344,700,l),
(184,700,l),
(184,205,ls),
(184,165,o),
(164,145,o),
(124,145,cs),
(22,145,l)
);
},
{
closed = 1;
nodes = (
(344,700,l),
(125,700,l),
(125,555,l),
(344,555,l)
);
}
);
width = 377;
},
{
anchors = (
{
name = b.uni0324_2;
position = "{289, 0}";
},
{
name = m.uni0308_1;
position = "{324, 700}";
}
);
layerId = "A1491DFB-4D7B-4F46-84CC-0E934EA2699F";
shapes = (
{
closed = 1;
nodes = (
(35,0,l),
(231,0,ls),
(334,0,o),
(392,58,o),
(392,162,cs),
(392,700,l),
(257,700,l),
(257,184,ls),
(257,135,o),
(243,118,o),
(200,118,cs),
(35,118,l)
);
},
{
closed = 1;
nodes = (
(392,700,l),
(152,700,l),
(152,582,l),
(392,582,l)
);
}
);
width = 458;
},
{
anchors = (
{
name = b.uni0324_2;
position = "{211, 0}";
},
{
name = m.uni0308_1;
position = "{243, 700}";
}
);
layerId = "013B1E1E-EC1A-4004-9A9E-28013B12321E";
shapes = (
{
closed = 1;
nodes = (
(27,0,l),
(140,0,ls),
(263,0,o),
(323,56,o),
(323,168,cs),
(323,700,l),
(197,700,l),
(197,182,ls),
(197,137,o),
(175,114,o),
(132,114,cs),
(27,114,l)
);
},
{
closed = 1;
nodes = (
(323,700,l),
(120,700,l),
(120,586,l),
(323,586,l)
);
}
);
width = 370;
},
{
anchors = (
{
name = b.uni0324_2;
position = "{289, 0}";
},
{
name = m.uni0308_1;
position = "{324, 700}";
}
);
layerId = "0F8D56E4-D9E3-4FE5-8622-D887DCE8F82E";
shapes = (
{
closed = 1;
nodes = (
(35,0,l),
(254,0,ls),
(338,0,o),
(382,48,o),
(382,136,cs),
(382,700,l),
(308,700,l),
(308,145,ls),
(308,92,o),
(290,68,o),
(243,68,cs),
(35,68,l)
);
},
{
closed = 1;
nodes = (
(382,700,l),
(172,700,l),
(172,632,l),
(382,632,l)
);
}
);
width = 472;
},
{
anchors = (
{
name = b.uni0324_2;
position = "{124, 0}";
},
{
name = m.uni0308_1;
position = "{154, 700}";
}
);
layerId = "301B1BEE-A3B7-420C-AFCF-2213D48A32DD";
shapes = (
{
closed = 1;
nodes = (
(35,0,l),
(150,0,ls),
(242,0,o),
(292,48,o),
(292,140,cs),
(292,700,l),
(217,700,l),
(217,148,ls),
(217,95,o),
(191,67,o),
(144,67,cs),
(35,67,l)
);
},
{
closed = 1;
nodes = (
(292,700,l),
(112,700,l),
(112,633,l),
(292,633,l)
);
}
);
width = 359;
},
{
anchors = (
{
name = b.uni0324_2;
position = "{289, 0}";
},
{
name = m.uni0308_1;
position = "{324, 700}";
}
);
layerId = "B98D4703-DDC7-495E-B040-47EC823CED71";
shapes = (
{
closed = 1;
nodes = (
(35,0,l),
(269,0,ls),
(341,0,o),
(375,42,o),
(375,119,cs),
(375,700,l),
(342,700,l),
(342,119,ls),
(342,63,o),
(321,35,o),
(272,35,cs),
(35,35,l)
);
},
{
closed = 1;
nodes = (
(375,700,l),
(185,700,l),
(185,665,l),
(375,665,l)
);
}
);
width = 481;
},
{
anchors = (
{
name = b.uni0324_2;
position = "{66, 0}";
},
{
name = m.uni0308_1;
position = "{95, 700}";
}
);
layerId = "8C36FF45-EE0D-47F3-80A1-ABABB257461F";
shapes = (
{
closed = 1;
nodes = (
(40,0,l),
(157,0,ls),
(228,0,o),
(271,42,o),
(271,121,cs),
(271,700,l),
(230,700,l),
(230,125,ls),
(230,66,o),
(201,36,o),
(152,36,cs),
(40,36,l)
);
},
{
closed = 1;
nodes = (
(271,700,l),
(107,700,l),
(107,664,l),
(271,664,l)
);
}
);
width = 352;
}
);
leftKerningGroup = J;
unicode = 74;
},
{
glyphname = K;
layers = (
{
anchors = (
{
name = b.uni0324_2;
position = "{312, 0}";
},
{
name = m.uni0308_1;
position = "{312, 700}";
}
);
layerId = "FC56AA79-0F4D-414B-B093-B262B77ED935";
shapes = (
{
closed = 1;
nodes = (
(627,0,l),
(383,432,l),
(271,289,l),
(427,0,l)
);
},
{
closed = 1;
nodes = (
(45,0,l),
(220,0,l),
(220,700,l),
(45,700,l)
);
},
{
closed = 1;
nodes = (
(210,418,l),
(210,188,l),
(619,700,l),
(410,700,l)
);
}
);
width = 632;
},
{
anchors = (
{
name = b.uni0324_2;
position = "{289, 0}";
},
{
name = m.uni0308_1;
position = "{289, 700}";
}
);
layerId = "386C80E5-B742-4DC4-8C1D-118FE705019B";
shapes = (
{
closed = 1;
nodes = (
(468,0,l),
(309,429,l),
(219,241,l),
(299,0,l)
);
},
{
closed = 1;
nodes = (
(31,0,l),
(189,0,l),
(189,700,l),
(31,700,l)
);
},
{
closed = 1;
nodes = (
(183,399,l),
(183,127,l),
(446,700,l),
(289,700,l)
);
}
);
width = 470;
},
{
anchors = (
{
name = b.uni0324_2;
position = "{312, 0}";
},
{
name = m.uni0308_1;
position = "{312, 700}";
}
);
layerId = "A1491DFB-4D7B-4F46-84CC-0E934EA2699F";
shapes = (
{
closed = 1;
nodes = (
(618,0,l),
(366,437,l),
(280,328,l),
(463,0,l)
);
},
{
closed = 1;
nodes = (
(60,0,l),
(195,0,l),
(195,700,l),
(60,700,l)
);
},
{
closed = 1;
nodes = (
(185,364,l),
(185,186,l),
(600,700,l),
(439,700,l)
);
}
);
width = 624;
},
{
anchors = (
{
name = b.uni0324_2;
position = "{242, 0}";
},
{
name = m.uni0308_1;
position = "{242, 700}";
}
);
layerId = "013B1E1E-EC1A-4004-9A9E-28013B12321E";
shapes = (
{
closed = 1;
nodes = (
(467,0,l),
(291,431,l),
(219,288,l),
(333,0,l)
);
},
{
closed = 1;
nodes = (
(43,0,l),
(168,0,l),
(168,700,l),
(43,700,l)
);
},
{
closed = 1;
nodes = (
(161,359,l),
(161,146,l),
(444,700,l),
(318,700,l)
);
}
);
width = 471;
},
{
anchors = (
{
name = b.uni0324_2;
position = "{312, 0}";
},
{
name = m.uni0308_1;
position = "{312, 700}";
}
);
layerId = "0F8D56E4-D9E3-4FE5-8622-D887DCE8F82E";
shapes = (
{
closed = 1;
nodes = (
(604,0,l),
(341,445,l),
(293,387,l),
(517,0,l)
);
},
{
closed = 1;
nodes = (
(82,0,l),
(157,0,l),
(157,700,l),
(82,700,l)
);
},
{
closed = 1;
nodes = (
(147,283,l),
(147,183,l),
(572,700,l),
(483,700,l)
);
}
);
width = 612;
},
{
anchors = (
{
name = b.uni0324_2;
position = "{172, 0}";
},
{
name = m.uni0308_1;
position = "{172, 700}";
}
);
layerId = "301B1BEE-A3B7-420C-AFCF-2213D48A32DD";
shapes = (
{
closed = 1;
nodes = (
(466,0,l),
(264,434,l),
(219,358,l),
(384,0,l)
);
},
{
closed = 1;
nodes = (
(61,0,l),
(136,0,l),
(136,700,l),
(61,700,l)
);
},
{
closed = 1;
nodes = (
(128,299,l),
(128,175,l),
(441,700,l),
(362,700,l)
);
}
);
width = 472;
},
{
anchors = (
{
name = b.uni0324_2;
position = "{312, 0}";
},
{
name = m.uni0308_1;
position = "{312, 700}";
}
);
layerId = "B98D4703-DDC7-495E-B040-47EC823CED71";
shapes = (
{
closed = 1;
nodes = (
(595,0,l),
(324,450,l),
(302,426,l),
(553,0,l)
);
},
{
closed = 1;
nodes = (
(97,0,l),
(132,0,l),
(132,700,l),
(97,700,l)
);
},
{
closed = 1;
nodes = (
(122,229,l),
(122,181,l),
(553,700,l),
(512,700,l)
);
}
);
width = 604;
},
{
anchors = (
{
name = b.uni0324_2;
position = "{125, 0}";
},
{
name = m.uni0308_1;
position = "{125, 700}";
}
);
layerId = "8C36FF45-EE0D-47F3-80A1-ABABB257461F";
shapes = (
{
closed = 1;
nodes = (
(465,0,l),
(246,436,l),
(219,405,l),
(418,0,l)
);
},
{
closed = 1;
nodes = (
(73,0,l),
(115,0,l),
(115,700,l),
(73,700,l)
);
},
{
closed = 1;
nodes = (
(106,259,l),
(106,194,l),
(439,700,l),
(391,700,l)
);
}
);
width = 473;
}
);
unicode = 75;
},
{
glyphname = L;
layers = (
{
anchors = (
{
name = b.uni0324_2;
position = "{264, 0}";
},
{
name = m.uni0308_1;
position = "{130, 700}";
},
{
name = t.uni031B_2;
position = "{322, 700}";
}
);
layerId = "FC56AA79-0F4D-414B-B093-B262B77ED935";
shapes = (
{
closed = 1;
nodes = (
(45,0,l),
(501,0,l),
(501,150,l),
(220,150,l),
(220,700,l),
(45,700,l)
);
}
);
width = 519;
},
{
anchors = (
{
name = b.uni0324_2;
position = "{228, 0}";
},
{
name = m.uni0308_1;
position = "{134, 700}";
},
{
name = t.uni031B_2;
position = "{258, 700}";
}
);
layerId = "386C80E5-B742-4DC4-8C1D-118FE705019B";
shapes = (
{
closed = 1;
nodes = (
(31,0,l),
(346,0,l),
(346,144,l),
(191,144,l),
(191,700,l),
(31,700,l)
);
}
);
width = 358;
},
{
anchors = (
{
name = b.uni0324_2;
position = "{264, 0}";
},
{
name = m.uni0308_1;
position = "{130, 700}";
},
{
name = t.uni031B_2;
position = "{322, 700}";
}
);
layerId = "A1491DFB-4D7B-4F46-84CC-0E934EA2699F";
shapes = (
{
closed = 1;
nodes = (
(60,0,l),
(504,0,l),
(504,117,l),
(195,117,l),
(195,700,l),
(60,700,l)
);
}
);
width = 528;
},
{
anchors = (
{
name = b.uni0324_2;
position = "{181, 0}";
},
{
name = m.uni0308_1;
position = "{120, 700}";
},
{
name = t.uni031B_2;
position = "{191, 700}";
}
);
layerId = "013B1E1E-EC1A-4004-9A9E-28013B12321E";
shapes = (
{
closed = 1;
nodes = (
(43,0,l),
(358,0,l),
(358,113,l),
(169,113,l),
(169,700,l),
(43,700,l)
);
}
);
width = 375;
},
{
anchors = (
{
name = b.uni0324_2;
position = "{264, 0}";
},
{
name = m.uni0308_1;
position = "{130, 700}";
},
{
name = t.uni031B_2;
position = "{322, 700}";
}
);
layerId = "0F8D56E4-D9E3-4FE5-8622-D887DCE8F82E";
shapes = (
{
closed = 1;
nodes = (
(82,0,l),
(509,0,l),
(509,68,l),
(157,68,l),
(157,700,l),
(82,700,l)
);
}
);
width = 541;
},
{
anchors = (
{
name = b.uni0324_2;
position = "{110, 0}";
},
{
name = m.uni0308_1;
position = "{99, 700}";
},
{
name = t.uni031B_2;
position = "{90, 700}";
}
);
layerId = "301B1BEE-A3B7-420C-AFCF-2213D48A32DD";
shapes = (
{
closed = 1;
nodes = (
(61,0,l),
(376,0,l),
(376,67,l),
(136,67,l),
(136,700,l),
(61,700,l)
);
}
);
width = 400;
},
{
anchors = (
{
name = b.uni0324_2;
position = "{264, 0}";
},
{
name = m.uni0308_1;
position = "{130, 700}";
},
{
name = t.uni031B_2;
position = "{322, 700}";
}
);
layerId = "B98D4703-DDC7-495E-B040-47EC823CED71";
shapes = (
{
closed = 1;
nodes = (
(97,0,l),
(512,0,l),
(512,35,l),
(132,35,l),
(132,700,l),
(97,700,l)
);
}
);
width = 550;
},
{
anchors = (
{
name = b.uni0324_2;
position = "{63, 0}";
},
{
name = m.uni0308_1;
position = "{85, 700}";
},
{
name = t.uni031B_2;
position = "{23, 700}";
}
);
layerId = "8C36FF45-EE0D-47F3-80A1-ABABB257461F";
shapes = (
{
closed = 1;
nodes = (
(73,0,l),
(388,0,l),
(388,36,l),
(114,36,l),
(114,700,l),
(73,700,l)
);
}
);
width = 417;
}
);
rightKerningGroup = L;
unicode = 76;
},
{
glyphname = Lslash;
layers = (
{
layerId = "FC56AA79-0F4D-414B-B093-B262B77ED935";
shapes = (
{
closed = 1;
nodes = (
(-1,238,l),
(359,420,l),
(359,570,l),
(0,388,l)
);
},
{
closed = 1;
nodes = (
(45,0,l),
(501,0,l),
(501,150,l),
(220,150,l),
(220,707,l),
(45,707,l)
);
}
);
width = 519;
},
{
layerId = "386C80E5-B742-4DC4-8C1D-118FE705019B";
shapes = (
{
closed = 1;
nodes = (
(19,232,l),
(307,380,l),
(307,530,l),
(20,381,l)
);
},
{
closed = 1;
nodes = (
(31,0,l),
(346,0,l),
(346,144,l),
(191,144,l),
(191,707,l),
(31,707,l)
);
}
);
width = 358;
},
{
layerId = "A1491DFB-4D7B-4F46-84CC-0E934EA2699F";
shapes = (
{
closed = 1;
nodes = (
(20,279,l),
(311,416,l),
(311,529,l),
(21,392,l)
);
},
{
closed = 1;
nodes = (
(60,0,l),
(504,0,l),
(504,117,l),
(195,117,l),
(195,707,l),
(60,707,l)
);
}
);
width = 528;
},
{
layerId = "013B1E1E-EC1A-4004-9A9E-28013B12321E";
shapes = (
{
closed = 1;
nodes = (
(20,279,l),
(268,396,l),
(268,509,l),
(21,392,l)
);
},
{
closed = 1;
nodes = (
(43,0,l),
(358,0,l),
(358,113,l),
(169,113,l),
(169,707,l),
(43,707,l)
);
}
);
width = 375;
},
{
layerId = "0F8D56E4-D9E3-4FE5-8622-D887DCE8F82E";
shapes = (
{
closed = 1;
nodes = (
(52,340,l),
(239,410,l),
(239,468,l),
(53,398,l)
);
},
{
closed = 1;
nodes = (
(82,0,l),
(509,0,l),
(509,68,l),
(157,68,l),
(157,707,l),
(82,707,l)
);
}
);
width = 541;
},
{
layerId = "301B1BEE-A3B7-420C-AFCF-2213D48A32DD";
shapes = (
{
closed = 1;
nodes = (
(22,350,l),
(209,420,l),
(209,478,l),
(23,408,l)
);
},
{
closed = 1;
nodes = (
(61,0,l),
(376,0,l),
(376,67,l),
(136,67,l),
(136,707,l),
(61,707,l)
);
}
);
width = 400;
},
{
layerId = "B98D4703-DDC7-495E-B040-47EC823CED71";
shapes = (
{
closed = 1;
nodes = (
(73,381,l),
(191,406,l),
(191,427,l),
(74,402,l)
);
},
{
closed = 1;
nodes = (
(97,0,l),
(512,0,l),
(512,35,l),
(132,35,l),
(132,707,l),
(97,707,l)
);
}
);
width = 550;
},
{
layerId = "8C36FF45-EE0D-47F3-80A1-ABABB257461F";
shapes = (
{
closed = 1;
nodes = (
(23,397,l),
(170,436,l),
(170,457,l),
(24,419,l)
);
},
{
closed = 1;
nodes = (
(73,0,l),
(388,0,l),
(388,36,l),
(114,36,l),
(114,707,l),
(73,707,l)
);
}
);
width = 417;
}
);
unicode = 321;
},
{
glyphname = M;
layers = (
{
anchors = (
{
name = b.uni0324_2;
position = "{386, 0}";
},
{
name = m.uni0308_1;
position = "{386, 700}";
}
);
layerId = "FC56AA79-0F4D-414B-B093-B262B77ED935";
shapes = (
{
closed = 1;
nodes = (
(64,0,l),
(239,0,l),
(239,328,l),
(332,133,l),
(443,133,l),
(534,323,l),
(534,0,l),
(707,0,l),
(707,700,l),
(534,700,l),
(388,373,l),
(239,700,l),
(64,700,l)
);
}
);
width = 771;
},
{
anchors = (
{
name = b.uni0324_2;
position = "{345, 0}";
},
{
name = m.uni0308_1;
position = "{345, 700}";
}
);
layerId = "386C80E5-B742-4DC4-8C1D-118FE705019B";
shapes = (
{
closed = 1;
nodes = (
(31,0,l),
(191,0,l),
(191,318,l),
(242,119,l),
(323,119,l),
(376,321,l),
(376,0,l),
(536,0,l),
(536,700,l),
(376,700,l),
(282,365,l),
(191,700,l),
(31,700,l)
);
}
);
width = 565;
},
{
anchors = (
{
name = b.uni0324_2;
position = "{386, 0}";
},
{
name = m.uni0308_1;
position = "{386, 700}";
}
);
layerId = "A1491DFB-4D7B-4F46-84CC-0E934EA2699F";
shapes = (
{
closed = 1;
nodes = (
(71,0,l),
(206,0,l),
(206,415,l),
(342,136,l),
(432,136,l),
(566,412,l),
(566,0,l),
(700,0,l),
(700,700,l),
(566,700,l),
(387,316,l),
(206,700,l),
(71,700,l)
);
}
);
width = 771;
},
{
anchors = (
{
name = b.uni0324_2;
position = "{292, 0}";
},
{
name = m.uni0308_1;
position = "{292, 700}";
}
);
layerId = "013B1E1E-EC1A-4004-9A9E-28013B12321E";
shapes = (
{
closed = 1;
nodes = (
(43,0,l),
(169,0,l),
(169,404,l),
(258,137,l),
(326,137,l),
(416,407,l),
(416,0,l),
(542,0,l),
(542,700,l),
(416,700,l),
(292,327,l),
(169,700,l),
(43,700,l)
);
}
);
width = 584;
},
{
anchors = (
{
name = b.uni0324_2;
position = "{386, 0}";
},
{
name = m.uni0308_1;
position = "{386, 700}";
}
);
layerId = "0F8D56E4-D9E3-4FE5-8622-D887DCE8F82E";
shapes = (
{
closed = 1;
nodes = (
(82,0,l),
(157,0,l),
(157,546,l),
(357,141,l),
(415,141,l),
(614,546,l),
(614,0,l),
(689,0,l),
(689,700,l),
(614,700,l),
(386,230,l),
(157,700,l),
(82,700,l)
);
}
);
width = 771;
},
{
anchors = (
{
name = b.uni0324_2;
position = "{212, 0}";
},
{
name = m.uni0308_1;
position = "{212, 700}";
}
);
layerId = "301B1BEE-A3B7-420C-AFCF-2213D48A32DD";
shapes = (
{
closed = 1;
nodes = (
(61,0,l),
(136,0,l),
(136,533,l),
(282,164,l),
(331,164,l),
(476,536,l),
(476,0,l),
(551,0,l),
(551,700,l),
(476,700,l),
(307,270,l),
(136,700,l),
(61,700,l)
);
}
);
width = 612;
},
{
anchors = (
{
name = b.uni0324_2;
position = "{386, 0}";
},
{
name = m.uni0308_1;
position = "{386, 700}";
}
);
layerId = "B98D4703-DDC7-495E-B040-47EC823CED71";
shapes = (
{
closed = 1;
nodes = (
(89,0,l),
(124,0,l),
(124,633,l),
(367,144,l),
(404,144,l),
(646,635,l),
(646,0,l),
(682,0,l),
(682,700,l),
(646,700,l),
(385,173,l),
(124,700,l),
(89,700,l)
);
}
);
width = 771;
},
{
anchors = (
{
name = b.uni0324_2;
position = "{159, 0}";
},
{
name = m.uni0308_1;
position = "{159, 700}";
}
);
layerId = "8C36FF45-EE0D-47F3-80A1-ABABB257461F";
shapes = (
{
closed = 1;
nodes = (
(73,0,l),
(114,0,l),
(114,619,l),
(298,182,l),
(334,182,l),
(516,622,l),
(516,0,l),
(557,0,l),
(557,700,l),
(516,700,l),
(317,232,l),
(114,700,l),
(73,700,l)
);
}
);
width = 631;
}
);
unicode = 77;
},
{
glyphname = N;
layers = (
{
anchors = (
{
name = b.uni0324_2;
position = "{325, 0}";
},
{
name = m.uni0308_1;
position = "{325, 700}";
}
);
layerId = "FC56AA79-0F4D-414B-B093-B262B77ED935";
shapes = (
{
closed = 1;
nodes = (
(45,0,l),
(220,0,l),
(220,372,l),
(410,0,l),
(584,0,l),
(584,700,l),
(410,700,l),
(410,324,l),
(220,700,l),
(45,700,l)
);
}
);
width = 630;
},
{
anchors = (
{
name = b.uni0324_2;
position = "{284, 0}";
},
{
name = m.uni0308_1;
position = "{284, 700}";
}
);
layerId = "386C80E5-B742-4DC4-8C1D-118FE705019B";
shapes = (
{
closed = 1;
nodes = (
(31,0,l),
(191,0,l),
(191,293,l),
(275,0,l),
(435,0,l),
(435,700,l),
(275,700,l),
(275,368,l),
(191,700,l),
(31,700,l)
);
}
);
width = 466;
},
{
anchors = (
{
name = b.uni0324_2;
position = "{325, 0}";
},
{
name = m.uni0308_1;
position = "{325, 700}";
}
);
layerId = "A1491DFB-4D7B-4F46-84CC-0E934EA2699F";
shapes = (
{
closed = 1;
nodes = (
(60,0,l),
(195,0,l),
(195,448,l),
(455,0,l),
(589,0,l),
(589,700,l),
(455,700,l),
(455,250,l),
(195,700,l),
(60,700,l)
);
}
);
width = 649;
},
{
anchors = (
{
name = b.uni0324_2;
position = "{229, 0}";
},
{
name = m.uni0308_1;
position = "{229, 700}";
}
);
layerId = "013B1E1E-EC1A-4004-9A9E-28013B12321E";
shapes = (
{
closed = 1;
nodes = (
(43,0,l),
(169,0,l),
(169,390,l),
(316,0,l),
(442,0,l),
(442,700,l),
(316,700,l),
(316,286,l),
(169,700,l),
(43,700,l)
);
}
);
width = 485;
},
{
anchors = (
{
name = b.uni0324_2;
position = "{325, 0}";
},
{
name = m.uni0308_1;
position = "{325, 700}";
}
);
layerId = "0F8D56E4-D9E3-4FE5-8622-D887DCE8F82E";
shapes = (
{
closed = 1;
nodes = (
(82,0,l),
(157,0,l),
(157,567,l),
(522,0,l),
(597,0,l),
(597,700,l),
(522,700,l),
(522,134,l),
(157,700,l),
(82,700,l)
);
}
);
width = 678;
},
{
anchors = (
{
name = b.uni0324_2;
position = "{147, 0}";
},
{
name = m.uni0308_1;
position = "{147, 700}";
}
);
layerId = "301B1BEE-A3B7-420C-AFCF-2213D48A32DD";
shapes = (
{
closed = 1;
nodes = (
(61,0,l),
(136,0,l),
(136,536,l),
(378,0,l),
(453,0,l),
(453,700,l),
(378,700,l),
(378,163,l),
(136,700,l),
(61,700,l)
);
}
);
width = 514;
},
{
anchors = (
{
name = b.uni0324_2;
position = "{325, 0}";
},
{
name = m.uni0308_1;
position = "{325, 700}";
}
);
layerId = "B98D4703-DDC7-495E-B040-47EC823CED71";
shapes = (
{
closed = 1;
nodes = (
(97,0,l),
(132,0,l),
(132,643,l),
(567,0,l),
(602,0,l),
(602,700,l),
(567,700,l),
(567,60,l),
(132,700,l),
(97,700,l)
);
}
);
width = 697;
},
{
anchors = (
{
name = b.uni0324_2;
position = "{92, 0}";
},
{
name = m.uni0308_1;
position = "{92, 700}";
}
);
layerId = "8C36FF45-EE0D-47F3-80A1-ABABB257461F";
shapes = (
{
closed = 1;
nodes = (
(73,0,l),
(114,0,l),
(114,633,l),
(419,0,l),
(460,0,l),
(460,700,l),
(419,700,l),
(419,81,l),
(114,700,l),
(73,700,l)
);
}
);
width = 533;
}
);
unicode = 78;
},
{
glyphname = O;
layers = (
{
anchors = (
{
name = b.uni0324_2;
position = "{307, 0}";
},
{
name = m.uni0308_1;
position = "{307, 700}";
},
{
name = m.uni0328;
position = "{369, 10}";
},
{
name = t.uni031B_2;
position = "{594, 700}";
}
);
layerId = "FC56AA79-0F4D-414B-B093-B262B77ED935";
shapes = (
{
closed = 1;
nodes = (
(488,-8,o),
(567,98,o),
(567,280,cs),
(567,419,ls),
(567,598,o),
(494,708,o),
(305,708,cs),
(116,708,o),
(40,599,o),
(40,419,cs),
(40,280,ls),
(40,101,o),
(110,-8,o),
(299,-8,cs)
);
},
{
closed = 1;
nodes = (
(215,409,ls),
(215,518,o),
(238,557,o),
(305,557,cs),
(369,557,o),
(394,516,o),
(394,409,cs),
(394,286,ls),
(394,186,o),
(366,147,o),
(305,147,cs),
(238,147,o),
(215,183,o),
(215,286,cs)
);
}
);
width = 607;
},
{
anchors = (
{
name = b.uni0324_2;
position = "{280, 0}";
},
{
name = m.uni0308_1;
position = "{280, 700}";
},
{
name = m.uni0328;
position = "{353, 10}";
},
{
name = t.uni031B_2;
position = "{520, 700}";
}
);
layerId = "386C80E5-B742-4DC4-8C1D-118FE705019B";
shapes = (
{
closed = 1;
nodes = (
(353,-8,o),
(444,63,o),
(444,189,cs),
(444,510,ls),
(444,636,o),
(368,708,o),
(243,708,cs),
(119,708,o),
(28,640,o),
(28,510,cs),
(28,189,ls),
(28,60,o),
(105,-8,o),
(232,-8,cs)
);
},
{
closed = 1;
nodes = (
(189,481,ls),
(189,537,o),
(201,563,o),
(238,563,cs),
(273,563,o),
(283,536,o),
(283,481,cs),
(283,213,ls),
(283,166,o),
(265,136,o),
(238,136,cs),
(206,136,o),
(189,161,o),
(189,213,cs)
);
}
);
width = 472;
},
{
anchors = (
{
name = b.uni0324_2;
position = "{307, 0}";
},
{
name = m.uni0308_1;
position = "{307, 700}";
},
{
name = m.uni0328;
position = "{369, 10}";
},
{
name = t.uni031B_2;
position = "{594, 700}";
}
);
layerId = "A1491DFB-4D7B-4F46-84CC-0E934EA2699F";
shapes = (
{
closed = 1;
nodes = (
(487,-8,o),
(563,99,o),
(563,273,cs),
(563,426,ls),
(563,598,o),
(490,708,o),
(308,708,cs),
(125,708,o),
(51,600,o),
(51,426,cs),
(51,273,ls),
(51,100,o),
(121,-8,o),
(304,-8,cs)
);
},
{
closed = 1;
nodes = (
(186,419,ls),
(186,542,o),
(223,590,o),
(308,590,cs),
(392,590,o),
(429,538,o),
(429,419,cs),
(429,275,ls),
(429,162,o),
(391,112,o),
(308,112,cs),
(223,112,o),
(186,159,o),
(186,275,cs)
);
}
);
width = 614;
},
{
anchors = (
{
name = b.uni0324_2;
position = "{235, 0}";
},
{
name = m.uni0308_1;
position = "{235, 700}";
},
{
name = m.uni0328;
position = "{294, 10}";
},
{
name = t.uni031B_2;
position = "{430, 700}";
}
);
layerId = "013B1E1E-EC1A-4004-9A9E-28013B12321E";
shapes = (
{
closed = 1;
nodes = (
(363,-8,o),
(440,69,o),
(440,195,cs),
(440,504,ls),
(440,629,o),
(372,708,o),
(244,708,cs),
(117,708,o),
(39,632,o),
(39,504,cs),
(39,195,ls),
(39,68,o),
(109,-8,o),
(237,-8,cs)
);
},
{
closed = 1;
nodes = (
(165,484,ls),
(165,559,o),
(188,594,o),
(241,594,cs),
(292,594,o),
(314,557,o),
(314,484,cs),
(314,209,ls),
(314,142,o),
(286,105,o),
(241,105,cs),
(190,105,o),
(165,140,o),
(165,209,cs)
);
}
);
width = 479;
},
{
anchors = (
{
name = b.uni0324_2;
position = "{307, 0}";
},
{
name = m.uni0308_1;
position = "{307, 700}";
},
{
name = m.uni0328;
position = "{369, 10}";
},
{
name = t.uni031B_2;
position = "{594, 700}";
}
);
layerId = "0F8D56E4-D9E3-4FE5-8622-D887DCE8F82E";
shapes = (
{
closed = 1;
nodes = (
(483,-8,o),
(557,100,o),
(557,262,cs),
(557,437,ls),
(557,598,o),
(484,708,o),
(313,708,cs),
(142,708,o),
(68,599,o),
(68,437,cs),
(68,262,ls),
(68,100,o),
(140,-8,o),
(312,-8,cs)
);
},
{
closed = 1;
nodes = (
(142,434,ls),
(142,577,o),
(198,640,o),
(313,640,cs),
(426,640,o),
(482,571,o),
(482,434,cs),
(482,258,ls),
(482,126,o),
(426,60,o),
(313,60,cs),
(200,60,o),
(142,123,o),
(142,258,cs)
);
}
);
width = 624;
},
{
anchors = (
{
name = b.uni0324_2;
position = "{168, 0}";
},
{
name = m.uni0308_1;
position = "{168, 700}";
},
{
name = m.uni0328;
position = "{205, 10}";
},
{
name = t.uni031B_2;
position = "{295, 700}";
}
);
layerId = "301B1BEE-A3B7-420C-AFCF-2213D48A32DD";
shapes = (
{
closed = 1;
nodes = (
(375,-8,o),
(434,82,o),
(434,204,cs),
(434,495,ls),
(434,620,o),
(379,708,o),
(245,708,cs),
(112,708,o),
(55,620,o),
(55,495,cs),
(55,204,ls),
(55,81,o),
(114,-8,o),
(245,-8,cs)
);
},
{
closed = 1;
nodes = (
(129,488,ls),
(129,591,o),
(169,641,o),
(246,641,cs),
(319,641,o),
(360,591,o),
(360,488,cs),
(360,203,ls),
(360,107,o),
(319,58,o),
(246,58,cs),
(167,59,o),
(129,107,o),
(129,203,cs)
);
}
);
width = 489;
},
{
anchors = (
{
name = b.uni0324_2;
position = "{307, 0}";
},
{
name = m.uni0308_1;
position = "{307, 700}";
},
{
name = m.uni0328;
position = "{369, 10}";
},
{
name = t.uni031B_2;
position = "{594, 700}";
}
);
layerId = "B98D4703-DDC7-495E-B040-47EC823CED71";
shapes = (
{
closed = 1;
nodes = (
(480,-8,o),
(553,102,o),
(553,255,cs),
(553,444,ls),
(553,600,o),
(481,708,o),
(316,708,cs),
(151,708,o),
(79,600,o),
(79,444,cs),
(79,255,ls),
(79,98,o),
(152,-8,o),
(317,-8,cs)
);
},
{
closed = 1;
nodes = (
(113,444,ls),
(113,600,o),
(183,673,o),
(316,673,cs),
(449,673,o),
(517,593,o),
(517,444,cs),
(517,247,ls),
(517,102,o),
(451,25,o),
(316,25,cs),
(184,25,o),
(113,99,o),
(113,247,cs)
);
}
);
width = 631;
},
{
anchors = (
{
name = b.uni0324_2;
position = "{123, 0}";
},
{
name = m.uni0308_1;
position = "{123, 700}";
},
{
name = m.uni0328;
position = "{146, 10}";
},
{
name = t.uni031B_2;
position = "{205, 700}";
}
);
layerId = "8C36FF45-EE0D-47F3-80A1-ABABB257461F";
shapes = (
{
closed = 1;
nodes = (
(382,-8,o),
(430,91,o),
(430,210,cs),
(430,489,ls),
(430,613,o),
(383,708,o),
(246,708,cs),
(111,708,o),
(66,610,o),
(66,489,cs),
(66,210,ls),
(66,91,o),
(120,-8,o),
(250,-8,cs)
);
},
{
closed = 1;
nodes = (
(105,491,ls),
(105,612,o),
(156,672,o),
(249,672,cs),
(338,672,o),
(391,612,o),
(391,491,cs),
(391,199,ls),
(391,83,o),
(341,27,o),
(249,27,cs),
(152,28,o),
(105,86,o),
(105,199,cs)
);
}
);
width = 496;
}
);
leftKerningGroup = C;
unicode = 79;
},
{
glyphname = Oslash;
layers = (
{
anchors = (
{
name = b.uni0324_2;
position = "{307, 0}";
},
{
name = m.uni0308_1;
position = "{307, 707}";
}
);
layerId = "FC56AA79-0F4D-414B-B093-B262B77ED935";
shapes = (
{
closed = 1;
nodes = (
(40,-20,l),
(124,-20,l),
(567,735,l),
(485,735,l)
);
},
{
closed = 1;
nodes = (
(488,-8,o),
(567,98,o),
(567,280,cs),
(567,428,ls),
(567,606,o),
(494,718,o),
(305,718,cs),
(115,718,o),
(40,609,o),
(40,428,cs),
(40,280,ls),
(40,101,o),
(110,-8,o),
(299,-8,cs)
);
},
{
closed = 1;
nodes = (
(215,419,ls),
(215,528,o),
(238,566,o),
(305,566,cs),
(369,566,o),
(394,524,o),
(394,419,cs),
(394,286,ls),
(394,186,o),
(366,147,o),
(305,147,cs),
(238,147,o),
(215,183,o),
(215,286,cs)
);
}
);
width = 607;
},
{
anchors = (
{
name = b.uni0324_2;
position = "{280, 0}";
},
{
name = m.uni0308_1;
position = "{280, 709}";
}
);
layerId = "386C80E5-B742-4DC4-8C1D-118FE705019B";
shapes = (
{
closed = 1;
nodes = (
(29,-20,l),
(92,-20,l),
(441,740,l),
(377,740,l)
);
},
{
closed = 1;
nodes = (
(354,-8,o),
(443,61,o),
(443,188,cs),
(443,521,ls),
(443,647,o),
(367,718,o),
(243,718,cs),
(120,718,o),
(30,649,o),
(30,521,cs),
(30,188,ls),
(30,60,o),
(106,-8,o),
(232,-8,cs)
);
},
{
closed = 1;
nodes = (
(190,492,ls),
(190,548,o),
(201,573,o),
(238,573,cs),
(273,573,o),
(283,547,o),
(283,492,cs),
(283,212,ls),
(283,165,o),
(263,136,o),
(238,136,cs),
(206,136,o),
(190,161,o),
(190,212,cs)
);
}
);
width = 472;
},
{
anchors = (
{
name = b.uni0324_2;
position = "{307, 0}";
},
{
name = m.uni0308_1;
position = "{307, 707}";
}
);
layerId = "A1491DFB-4D7B-4F46-84CC-0E934EA2699F";
shapes = (
{
closed = 1;
nodes = (
(51,-20,l),
(125,-20,l),
(563,732,l),
(490,732,l)
);
},
{
closed = 1;
nodes = (
(487,-8,o),
(563,99,o),
(563,273,cs),
(563,435,ls),
(563,607,o),
(490,717,o),
(308,717,cs),
(125,717,o),
(51,609,o),
(51,435,cs),
(51,273,ls),
(51,100,o),
(121,-8,o),
(304,-8,cs)
);
},
{
closed = 1;
nodes = (
(186,428,ls),
(186,551,o),
(223,599,o),
(308,599,cs),
(392,599,o),
(429,547,o),
(429,428,cs),
(429,275,ls),
(429,162,o),
(391,112,o),
(308,112,cs),
(223,112,o),
(186,159,o),
(186,275,cs)
);
}
);
width = 614;
},
{
anchors = (
{
name = b.uni0324_2;
position = "{235, 0}";
},
{
name = m.uni0308_1;
position = "{235, 714}";
}
);
layerId = "013B1E1E-EC1A-4004-9A9E-28013B12321E";
shapes = (
{
closed = 1;
nodes = (
(39,-20,l),
(99,-20,l),
(440,735,l),
(380,735,l)
);
},
{
closed = 1;
nodes = (
(363,-8,o),
(440,69,o),
(440,195,cs),
(440,513,ls),
(440,638,o),
(372,717,o),
(244,717,cs),
(117,717,o),
(39,641,o),
(39,513,cs),
(39,195,ls),
(39,68,o),
(109,-8,o),
(237,-8,cs)
);
},
{
closed = 1;
nodes = (
(165,493,ls),
(165,568,o),
(188,603,o),
(241,603,cs),
(292,603,o),
(314,566,o),
(314,493,cs),
(314,209,ls),
(314,142,o),
(286,105,o),
(241,105,cs),
(190,105,o),
(165,140,o),
(165,209,cs)
);
}
);
width = 479;
},
{
anchors = (
{
name = b.uni0324_2;
position = "{307, 0}";
},
{
name = m.uni0308_1;
position = "{307, 707}";
}
);
layerId = "0F8D56E4-D9E3-4FE5-8622-D887DCE8F82E";
shapes = (
{
closed = 1;
nodes = (
(68,-20,l),
(127,-20,l),
(557,727,l),
(498,727,l)
);
},
{
closed = 1;
nodes = (
(483,-8,o),
(557,100,o),
(557,262,cs),
(557,445,ls),
(557,606,o),
(484,716,o),
(313,716,cs),
(142,716,o),
(68,607,o),
(68,445,cs),
(68,262,ls),
(68,100,o),
(140,-8,o),
(312,-8,cs)
);
},
{
closed = 1;
nodes = (
(142,442,ls),
(142,585,o),
(198,648,o),
(313,648,cs),
(426,648,o),
(482,579,o),
(482,442,cs),
(482,258,ls),
(482,126,o),
(426,60,o),
(313,60,cs),
(200,60,o),
(142,123,o),
(142,258,cs)
);
}
);
width = 624;
},
{
anchors = (
{
name = b.uni0324_2;
position = "{168, 0}";
},
{
name = m.uni0308_1;
position = "{168, 721}";
}
);
layerId = "301B1BEE-A3B7-420C-AFCF-2213D48A32DD";
shapes = (
{
closed = 1;
nodes = (
(54,-20,l),
(109,-20,l),
(438,727,l),
(384,727,l)
);
},
{
closed = 1;
nodes = (
(376,-8,o),
(436,84,o),
(436,206,cs),
(436,501,ls),
(436,626,o),
(379,716,o),
(245,716,cs),
(111,716,o),
(53,627,o),
(53,501,cs),
(53,206,ls),
(53,82,o),
(113,-8,o),
(245,-8,cs)
);
},
{
closed = 1;
nodes = (
(128,494,ls),
(128,597,o),
(167,648,o),
(246,648,cs),
(321,648,o),
(361,597,o),
(361,494,cs),
(361,205,ls),
(361,108,o),
(321,59,o),
(246,59,cs),
(167,60,o),
(128,108,o),
(128,205,cs)
);
}
);
width = 489;
},
{
anchors = (
{
name = b.uni0324_2;
position = "{307, 0}";
},
{
name = m.uni0308_1;
position = "{307, 707}";
}
);
layerId = "B98D4703-DDC7-495E-B040-47EC823CED71";
shapes = (
{
closed = 1;
nodes = (
(79,-20,l),
(128,-20,l),
(553,724,l),
(503,724,l)
);
},
{
closed = 1;
nodes = (
(480,-8,o),
(553,102,o),
(553,255,cs),
(553,452,ls),
(553,608,o),
(481,715,o),
(316,715,cs),
(151,715,o),
(79,608,o),
(79,452,cs),
(79,255,ls),
(79,98,o),
(152,-8,o),
(317,-8,cs)
);
},
{
closed = 1;
nodes = (
(113,451,ls),
(113,607,o),
(183,681,o),
(316,681,cs),
(449,681,o),
(517,602,o),
(517,451,cs),
(517,247,ls),
(517,102,o),
(451,25,o),
(316,25,cs),
(184,25,o),
(113,99,o),
(113,247,cs)
);
}
);
width = 631;
},
{
anchors = (
{
name = b.uni0324_2;
position = "{123, 0}";
},
{
name = m.uni0308_1;
position = "{123, 726}";
}
);
layerId = "8C36FF45-EE0D-47F3-80A1-ABABB257461F";
shapes = (
{
closed = 1;
nodes = (
(64,-20,l),
(116,-20,l),
(437,722,l),
(387,722,l)
);
},
{
closed = 1;
nodes = (
(382,-8,o),
(433,94,o),
(433,213,cs),
(433,493,ls),
(433,617,o),
(382,715,o),
(246,715,cs),
(108,715,o),
(62,618,o),
(62,493,cs),
(62,213,ls),
(62,91,o),
(116,-8,o),
(250,-8,cs)
);
},
{
closed = 1;
nodes = (
(103,495,ls),
(103,616,o),
(154,678,o),
(249,678,cs),
(340,678,o),
(392,616,o),
(392,495,cs),
(392,202,ls),
(392,85,o),
(344,28,o),
(249,28,cs),
(152,29,o),
(103,86,o),
(103,202,cs)
);
}
);
width = 496;
}
);
unicode = 216;
},
{
glyphname = P;
layers = (
{
anchors = (
{
name = b.uni0324_2;
position = "{290, 0}";
},
{
name = m.uni0308_1;
position = "{290, 700}";
}
);
layerId = "FC56AA79-0F4D-414B-B093-B262B77ED935";
shapes = (
{
closed = 1;
nodes = (
(45,0,l),
(220,0,l),
(220,245,l),
(318,245,ls),
(391,245,o),
(449,265,o),
(492,306,cs),
(534,347,o),
(555,401,o),
(555,469,cs),
(555,540,o),
(534,596,o),
(492,638,cs),
(449,679,o),
(391,700,o),
(318,700,cs),
(45,700,l)
);
},
{
closed = 1;
nodes = (
(220,397,l),
(220,550,l),
(310,550,ls),
(354,550,o),
(381,520,o),
(381,469,cs),
(381,428,o),
(350,397,o),
(310,397,cs)
);
}
);
width = 573;
},
{
anchors = (
{
name = b.uni0324_2;
position = "{264, 0}";
},
{
name = m.uni0308_1;
position = "{264, 700}";
}
);
layerId = "386C80E5-B742-4DC4-8C1D-118FE705019B";
shapes = (
{
closed = 1;
nodes = (
(33,0,l),
(190,0,l),
(190,233,l),
(225,233,ls),
(297,233,o),
(349,252,o),
(380,290,cs),
(411,328,o),
(426,387,o),
(426,468,cs),
(426,549,o),
(411,608,o),
(380,645,cs),
(349,682,o),
(297,700,o),
(225,700,cs),
(33,700,l)
);
},
{
closed = 1;
nodes = (
(190,377,l),
(190,557,l),
(221,557,ls),
(260,557,o),
(266,532,o),
(266,468,cs),
(266,404,o),
(257,377,o),
(221,377,cs)
);
}
);
width = 440;
},
{
anchors = (
{
name = b.uni0324_2;
position = "{290, 0}";
},
{
name = m.uni0308_1;
position = "{290, 700}";
}
);
layerId = "A1491DFB-4D7B-4F46-84CC-0E934EA2699F";
shapes = (
{
closed = 1;
nodes = (
(60,0,l),
(195,0,l),
(195,261,l),
(325,261,ls),
(396,261,o),
(453,281,o),
(494,320,cs),
(535,359,o),
(556,411,o),
(556,477,cs),
(556,546,o),
(536,601,o),
(495,641,cs),
(454,680,o),
(397,700,o),
(325,700,cs),
(60,700,l)
);
},
{
closed = 1;
nodes = (
(195,379,l),
(195,583,l),
(318,583,ls),
(385,583,o),
(422,545,o),
(422,477,cs),
(422,416,o),
(382,379,o),
(318,379,cs)
);
}
);
width = 580;
},
{
anchors = (
{
name = b.uni0324_2;
position = "{217, 0}";
},
{
name = m.uni0308_1;
position = "{217, 700}";
}
);
layerId = "013B1E1E-EC1A-4004-9A9E-28013B12321E";
shapes = (
{
closed = 1;
nodes = (
(45,0,l),
(169,0,l),
(169,258,l),
(233,258,ls),
(300,258,o),
(349,276,o),
(380,312,cs),
(410,348,o),
(425,404,o),
(425,479,cs),
(425,555,o),
(410,611,o),
(380,647,cs),
(350,682,o),
(301,700,o),
(233,700,cs),
(45,700,l)
);
},
{
closed = 1;
nodes = (
(169,371,l),
(169,588,l),
(229,588,ls),
(282,588,o),
(300,556,o),
(300,479,cs),
(300,403,o),
(281,371,o),
(229,371,cs)
);
}
);
width = 444;
},
{
anchors = (
{
name = b.uni0324_2;
position = "{290, 0}";
},
{
name = m.uni0308_1;
position = "{290, 700}";
}
);
layerId = "0F8D56E4-D9E3-4FE5-8622-D887DCE8F82E";
shapes = (
{
closed = 1;
nodes = (
(82,0,l),
(157,0,l),
(157,285,l),
(336,285,ls),
(404,285,o),
(458,303,o),
(498,340,cs),
(538,377,o),
(558,426,o),
(558,489,cs),
(558,556,o),
(539,608,o),
(500,645,cs),
(461,682,o),
(406,700,o),
(336,700,cs),
(82,700,l)
);
},
{
closed = 1;
nodes = (
(157,352,l),
(157,632,l),
(330,632,ls),
(430,632,o),
(483,584,o),
(483,489,cs),
(483,398,o),
(430,352,o),
(330,352,cs)
);
}
);
width = 590;
},
{
anchors = (
{
name = b.uni0324_2;
position = "{147, 0}";
},
{
name = m.uni0308_1;
position = "{147, 700}";
}
);
layerId = "301B1BEE-A3B7-420C-AFCF-2213D48A32DD";
shapes = (
{
closed = 1;
nodes = (
(63,0,l),
(137,0,l),
(137,296,l),
(245,296,ls),
(305,296,o),
(350,313,o),
(380,346,cs),
(409,379,o),
(424,429,o),
(424,496,cs),
(424,565,o),
(410,616,o),
(381,650,cs),
(352,683,o),
(307,700,o),
(245,700,cs),
(63,700,l)
);
},
{
closed = 1;
nodes = (
(137,362,l),
(137,634,l),
(241,634,ls),
(317,634,o),
(351,592,o),
(351,496,cs),
(351,401,o),
(317,362,o),
(241,362,cs)
);
}
);
width = 450;
},
{
anchors = (
{
name = b.uni0324_2;
position = "{290, 0}";
},
{
name = m.uni0308_1;
position = "{290, 700}";
}
);
layerId = "B98D4703-DDC7-495E-B040-47EC823CED71";
shapes = (
{
closed = 1;
nodes = (
(97,0,l),
(132,0,l),
(132,301,l),
(343,301,ls),
(409,301,o),
(462,319,o),
(501,354,cs),
(540,389,o),
(559,436,o),
(559,497,cs),
(559,563,o),
(540,613,o),
(503,648,cs),
(465,683,o),
(412,700,o),
(343,700,cs),
(97,700,l)
);
},
{
closed = 1;
nodes = (
(132,334,l),
(132,665,l),
(338,665,ls),
(461,665,o),
(524,609,o),
(524,497,cs),
(524,386,o),
(462,334,o),
(338,334,cs)
);
}
);
width = 597;
},
{
anchors = (
{
name = b.uni0324_2;
position = "{100, 0}";
},
{
name = m.uni0308_1;
position = "{100, 700}";
}
);
layerId = "8C36FF45-EE0D-47F3-80A1-ABABB257461F";
shapes = (
{
closed = 1;
nodes = (
(75,0,l),
(116,0,l),
(116,321,l),
(253,321,ls),
(308,321,o),
(351,337,o),
(380,368,cs),
(409,399,o),
(423,445,o),
(423,507,cs),
(423,571,o),
(409,619,o),
(382,652,c),
(354,684,o),
(311,700,o),
(253,700,cs),
(75,700,l)
);
},
{
closed = 1;
nodes = (
(116,356,l),
(116,665,l),
(249,665,ls),
(340,665,o),
(385,616,o),
(385,507,cs),
(385,400,o),
(341,356,o),
(249,356,cs)
);
}
);
width = 454;
}
);
unicode = 80;
},
{
glyphname = Q;
layers = (
{
anchors = (
{
name = b.uni0324_2;
position = "{307, 0}";
},
{
name = m.uni0308_1;
position = "{307, 700}";
}
);
layerId = "FC56AA79-0F4D-414B-B093-B262B77ED935";
shapes = (
{
closed = 1;
nodes = (
(435,-157,l),
(556,-92,l),
(367,272,l),
(246,227,l)
);
},
{
alignment = -1;
ref = O;
}
);
width = 607;
},
{
anchors = (
{
name = b.uni0324_2;
position = "{280, 0}";
},
{
name = m.uni0308_1;
position = "{280, 700}";
}
);
layerId = "386C80E5-B742-4DC4-8C1D-118FE705019B";
shapes = (
{
closed = 1;
nodes = (
(308,-134,l),
(392,-104,l),
(289,219,l),
(203,201,l)
);
},
{
alignment = -1;
ref = O;
}
);
width = 472;
},
{
anchors = (
{
name = b.uni0324_2;
position = "{307, 0}";
},
{
name = m.uni0308_1;
position = "{307, 700}";
}
);
layerId = "A1491DFB-4D7B-4F46-84CC-0E934EA2699F";
shapes = (
{
closed = 1;
nodes = (
(445,-149,l),
(542,-94,l),
(354,264,l),
(251,226,l)
);
},
{
alignment = -1;
ref = O;
}
);
width = 614;
},
{
anchors = (
{
name = b.uni0324_2;
position = "{235, 0}";
},
{
name = m.uni0308_1;
position = "{235, 700}";
}
);
layerId = "013B1E1E-EC1A-4004-9A9E-28013B12321E";
shapes = (
{
closed = 1;
nodes = (
(306,-142,l),
(391,-110,l),
(271,222,l),
(188,200,l)
);
},
{
alignment = -1;
ref = O;
}
);
width = 479;
},
{
anchors = (
{
name = b.uni0324_2;
position = "{307, 0}";
},
{
name = m.uni0308_1;
position = "{307, 700}";
}
);
layerId = "0F8D56E4-D9E3-4FE5-8622-D887DCE8F82E";
shapes = (
{
closed = 1;
nodes = (
(461,-155,l),
(519,-122,l),
(327,238,l),
(263,216,l)
);
},
{
alignment = -1;
ref = O;
}
);
width = 624;
},
{
anchors = (
{
name = b.uni0324_2;
position = "{168, 0}";
},
{
name = m.uni0308_1;
position = "{168, 700}";
}
);
layerId = "301B1BEE-A3B7-420C-AFCF-2213D48A32DD";
shapes = (
{
closed = 1;
nodes = (
(342,-146,l),
(403,-122,l),
(260,224,l),
(199,203,l)
);
},
{
alignment = -1;
ref = O;
}
);
width = 489;
},
{
anchors = (
{
name = b.uni0324_2;
position = "{307, 0}";
},
{
name = m.uni0308_1;
position = "{307, 700}";
}
);
layerId = "B98D4703-DDC7-495E-B040-47EC823CED71";
shapes = (
{
closed = 1;
nodes = (
(476,-153,l),
(504,-136,l),
(332,182,l),
(300,173,l)
);
},
{
alignment = -1;
ref = O;
}
);
width = 631;
},
{
anchors = (
{
name = b.uni0324_2;
position = "{123, 0}";
},
{
name = m.uni0308_1;
position = "{123, 700}";
}
);
layerId = "8C36FF45-EE0D-47F3-80A1-ABABB257461F";
shapes = (
{
closed = 1;
nodes = (
(377,-145,l),
(409,-130,l),
(255,217,l),
(224,199,l)
);
},
{
alignment = -1;
ref = O;
}
);
width = 496;
}
);
leftKerningGroup = C;
unicode = 81;
},
{
glyphname = R;
layers = (
{
anchors = (
{
name = b.uni0324_2;
position = "{307, 0}";
},
{
name = m.uni0308_1;
position = "{307, 700}";
}
);
layerId = "FC56AA79-0F4D-414B-B093-B262B77ED935";
shapes = (
{
closed = 1;
nodes = (
(45,0,l),
(220,0,l),
(220,265,l),
(274,265,l),
(391,0,l),
(592,0,l),
(446,293,l),
(515,329,o),
(554,394,o),
(554,481,cs),
(554,622,o),
(455,700,o),
(319,700,cs),
(45,700,l)
);
},
{
closed = 1;
nodes = (
(220,406,l),
(220,550,l),
(311,550,ls),
(354,550,o),
(380,522,o),
(380,482,cs),
(380,435,o),
(355,406,o),
(311,406,cs)
);
}
);
width = 615;
},
{
anchors = (
{
name = b.uni0324_2;
position = "{281, 0}";
},
{
name = m.uni0308_1;
position = "{281, 700}";
}
);
layerId = "386C80E5-B742-4DC4-8C1D-118FE705019B";
shapes = (
{
closed = 1;
nodes = (
(33,0,l),
(192,0,l),
(192,264,l),
(215,264,l),
(284,0,l),
(451,0,l),
(358,295,l),
(407,332,o),
(426,392,o),
(426,484,cs),
(426,630,o),
(381,700,o),
(228,700,cs),
(33,700,l)
);
},
{
closed = 1;
nodes = (
(192,406,l),
(192,557,l),
(225,557,ls),
(261,557,o),
(267,535,o),
(267,484,cs),
(267,429,o),
(258,406,o),
(225,406,cs)
);
}
);
width = 467;
},
{
anchors = (
{
name = b.uni0324_2;
position = "{307, 0}";
},
{
name = m.uni0308_1;
position = "{307, 700}";
}
);
layerId = "A1491DFB-4D7B-4F46-84CC-0E934EA2699F";
shapes = (
{
closed = 1;
nodes = (
(60,0,l),
(195,0,l),
(195,280,l),
(295,280,l),
(429,0,l),
(584,0,l),
(430,300,l),
(510,331,o),
(555,397,o),
(555,489,cs),
(555,627,o),
(462,700,o),
(329,700,cs),
(60,700,l)
);
},
{
closed = 1;
nodes = (
(195,391,l),
(195,583,l),
(322,583,ls),
(385,583,o),
(421,548,o),
(421,489,cs),
(421,428,o),
(385,391,o),
(322,391,cs)
);
}
);
width = 614;
},
{
anchors = (
{
name = b.uni0324_2;
position = "{236, 0}";
},
{
name = m.uni0308_1;
position = "{236, 700}";
}
);
layerId = "013B1E1E-EC1A-4004-9A9E-28013B12321E";
shapes = (
{
closed = 1;
nodes = (
(45,0,l),
(170,0,l),
(170,281,l),
(229,281,l),
(317,0,l),
(448,0,l),
(343,304,l),
(400,336,o),
(425,396,o),
(425,491,cs),
(425,629,o),
(381,700,o),
(236,700,cs),
(45,700,l)
);
},
{
closed = 1;
nodes = (
(170,392,l),
(170,588,l),
(234,588,ls),
(285,588,o),
(300,558,o),
(300,491,cs),
(300,423,o),
(282,392,o),
(234,392,cs)
);
}
);
width = 471;
},
{
anchors = (
{
name = b.uni0324_2;
position = "{307, 0}";
},
{
name = m.uni0308_1;
position = "{307, 700}";
}
);
layerId = "0F8D56E4-D9E3-4FE5-8622-D887DCE8F82E";
shapes = (
{
closed = 1;
nodes = (
(82,0,l),
(157,0,l),
(157,303,l),
(327,303,l),
(486,0,l),
(572,0,l),
(406,310,l),
(502,333,o),
(557,401,o),
(557,501,cs),
(557,632,o),
(471,700,o),
(344,700,cs),
(82,700,l)
);
},
{
closed = 1;
nodes = (
(157,368,l),
(157,632,l),
(338,632,ls),
(431,632,o),
(482,587,o),
(482,500,cs),
(482,416,o),
(430,368,o),
(338,368,cs)
);
}
);
width = 613;
},
{
anchors = (
{
name = b.uni0324_2;
position = "{168, 0}";
},
{
name = m.uni0308_1;
position = "{168, 700}";
}
);
layerId = "301B1BEE-A3B7-420C-AFCF-2213D48A32DD";
shapes = (
{
closed = 1;
nodes = (
(63,0,l),
(137,0,l),
(137,306,l),
(250,306,l),
(366,0,l),
(444,0,l),
(321,318,l),
(390,341,o),
(424,402,o),
(424,502,cs),
(424,626,o),
(380,700,o),
(248,700,cs),
(63,700,l)
);
},
{
closed = 1;
nodes = (
(137,371,l),
(137,634,l),
(247,634,ls),
(320,634,o),
(350,593,o),
(350,502,cs),
(350,414,o),
(318,371,o),
(247,371,cs)
);
}
);
width = 477;
},
{
anchors = (
{
name = b.uni0324_2;
position = "{307, 0}";
},
{
name = m.uni0308_1;
position = "{307, 700}";
}
);
layerId = "B98D4703-DDC7-495E-B040-47EC823CED71";
shapes = (
{
closed = 1;
nodes = (
(97,0,l),
(132,0,l),
(132,318,l),
(348,318,l),
(524,0,l),
(564,0,l),
(390,317,l),
(497,334,o),
(558,404,o),
(558,509,cs),
(558,637,o),
(477,700,o),
(354,700,cs),
(97,700,l)
);
},
{
closed = 1;
nodes = (
(132,353,l),
(132,665,l),
(349,665,ls),
(462,665,o),
(523,612,o),
(523,507,cs),
(523,408,o),
(460,353,o),
(349,353,cs)
);
}
);
width = 612;
},
{
anchors = (
{
name = b.uni0324_2;
position = "{123, 0}";
},
{
name = m.uni0308_1;
position = "{123, 700}";
}
);
layerId = "8C36FF45-EE0D-47F3-80A1-ABABB257461F";
shapes = (
{
closed = 1;
nodes = (
(75,0,l),
(115,0,l),
(115,323,l),
(264,323,l),
(399,0,l),
(441,0,l),
(306,327,l),
(383,344,o),
(423,406,o),
(423,509,cs),
(423,623,o),
(379,700,o),
(256,700,cs),
(75,700,l)
);
},
{
closed = 1;
nodes = (
(115,357,l),
(115,665,l),
(256,665,ls),
(344,665,o),
(383,616,o),
(383,509,cs),
(383,408,o),
(341,357,o),
(256,357,cs)
);
}
);
width = 481;
}
);
unicode = 82;
},
{
glyphname = S;
layers = (
{
anchors = (
{
name = b.uni0324_2;
position = "{281, 0}";
},
{
name = m.uni0308_1;
position = "{281, 700}";
}
);
layerId = "FC56AA79-0F4D-414B-B093-B262B77ED935";
shapes = (
{
closed = 1;
nodes = (
(438,-6,o),
(536,76,o),
(536,221,cs),
(536,332,o),
(477,400,o),
(353,423,cs),
(282,435,ls),
(229,444,o),
(203,466,o),
(203,502,cs),
(203,542,o),
(228,566,o),
(277,566,cs),
(329,566,o),
(356,542,o),
(357,491,c),
(357,472,l),
(522,472,l),
(522,491,l),
(518,626,o),
(430,708,o),
(282,708,cs),
(146,708,o),
(35,635,o),
(35,489,cs),
(35,360,o),
(118,306,o),
(236,285,cs),
(294,275,l),
(340,273,o),
(364,255,o),
(364,207,cs),
(364,162,o),
(340,141,o),
(283,141,cs),
(219,141,o),
(193,161,o),
(182,210,c),
(182,224,l),
(19,224,l),
(19,210,l),
(30,77,o),
(119,-6,o),
(275,-6,cs)
);
}
);
width = 562;
},
{
anchors = (
{
name = b.uni0324_2;
position = "{260, 0}";
},
{
name = m.uni0308_1;
position = "{262, 700}";
}
);
layerId = "386C80E5-B742-4DC4-8C1D-118FE705019B";
shapes = (
{
closed = 1;
nodes = (
(340,-9,o),
(416,67,o),
(416,200,cs),
(416,311,o),
(375,371,o),
(275,419,cs),
(227,442,ls),
(190,459,o),
(174,479,o),
(174,516,cs),
(174,557,o),
(190,572,o),
(218,572,cs),
(254,572,o),
(263,550,o),
(262,498,c),
(262,472,l),
(407,472,l),
(407,498,l),
(403,631,o),
(335,708,o),
(218,708,cs),
(97,708,o),
(21,629,o),
(21,509,cs),
(21,409,o),
(54,355,o),
(143,310,cs),
(196,285,ls),
(236,267,o),
(260,243,o),
(260,197,cs),
(260,145,o),
(251,125,o),
(215,125,cs),
(182,125,o),
(165,151,o),
(164,204,c),
(164,221,l),
(14,221,l),
(14,204,l),
(17,68,o),
(88,-9,o),
(212,-9,cs)
);
}
);
width = 436;
},
{
anchors = (
{
name = b.uni0324_2;
position = "{281, 0}";
},
{
name = m.uni0308_1;
position = "{281, 700}";
}
);
layerId = "A1491DFB-4D7B-4F46-84CC-0E934EA2699F";
shapes = (
{
closed = 1;
nodes = (
(430,-6,o),
(525,73,o),
(525,210,cs),
(525,321,o),
(466,386,o),
(343,407,cs),
(268,420,ls),
(203,432,o),
(171,460,o),
(171,508,cs),
(171,564,o),
(208,597,o),
(276,597,cs),
(344,597,o),
(380,565,o),
(384,500,c),
(384,480,l),
(513,480,l),
(513,500,l),
(504,632,o),
(419,708,o),
(279,708,cs),
(147,708,o),
(41,639,o),
(41,498,cs),
(41,377,o),
(121,322,o),
(232,303,cs),
(299,292,l),
(357,285,o),
(393,263,o),
(393,200,cs),
(393,139,o),
(356,108,o),
(280,108,cs),
(201,108,o),
(164,138,o),
(153,205,c),
(153,217,l),
(26,217,l),
(26,205,l),
(37,72,o),
(124,-6,o),
(273,-6,cs)
);
}
);
width = 561;
},
{
anchors = (
{
name = b.uni0324_2;
position = "{219, 0}";
},
{
name = m.uni0308_1;
position = "{219, 700}";
}
);
layerId = "013B1E1E-EC1A-4004-9A9E-28013B12321E";
shapes = (
{
closed = 1;
nodes = (
(337,-8,o),
(409,65,o),
(409,194,cs),
(409,302,o),
(367,360,o),
(268,404,cs),
(222,424,ls),
(169,447,o),
(148,472,o),
(148,520,cs),
(148,575,o),
(172,600,o),
(217,600,cs),
(266,600,o),
(286,571,o),
(287,507,c),
(287,481,l),
(402,481,l),
(402,507,l),
(398,636,o),
(332,708,o),
(217,708,cs),
(99,708,o),
(26,631,o),
(26,514,cs),
(26,416,o),
(67,360,o),
(155,321,cs),
(203,300,ls),
(255,277,o),
(286,253,o),
(286,192,cs),
(286,127,o),
(266,98,o),
(215,98,cs),
(166,98,o),
(141,131,o),
(138,199,c),
(138,214,l),
(19,214,l),
(19,199,l),
(22,66,o),
(89,-8,o),
(212,-8,cs)
);
}
);
width = 436;
},
{
anchors = (
{
name = b.uni0324_2;
position = "{281, 0}";
},
{
name = m.uni0308_1;
position = "{281, 700}";
}
);
layerId = "0F8D56E4-D9E3-4FE5-8622-D887DCE8F82E";
shapes = (
{
closed = 1;
nodes = (
(419,-6,o),
(509,67,o),
(509,194,cs),
(509,303,o),
(448,363,o),
(328,383,cs),
(247,397,ls),
(163,413,o),
(123,450,o),
(123,517,cs),
(123,597,o),
(179,644,o),
(274,644,cs),
(367,644,o),
(417,601,o),
(425,514,c),
(425,492,l),
(499,492,l),
(499,514,l),
(483,642,o),
(403,708,o),
(275,708,cs),
(151,708,o),
(50,646,o),
(50,512,cs),
(50,400,o),
(123,348,o),
(226,330,c),
(306,318,l),
(383,304,o),
(436,275,o),
(436,189,cs),
(436,105,o),
(380,58,o),
(275,58,cs),
(175,58,o),
(121,105,o),
(110,197,c),
(110,206,l),
(37,206,l),
(37,197,l),
(48,64,o),
(130,-6,o),
(270,-6,cs)
);
}
);
width = 559;
},
{
anchors = (
{
name = b.uni0324_2;
position = "{157, 0}";
},
{
name = m.uni0308_1;
position = "{155, 700}";
}
);
layerId = "301B1BEE-A3B7-420C-AFCF-2213D48A32DD";
shapes = (
{
closed = 1;
nodes = (
(333,-7,o),
(399,61,o),
(399,185,cs),
(399,289,o),
(354,344,o),
(257,381,cs),
(215,397,ls),
(138,428,o),
(109,462,o),
(109,526,cs),
(109,601,o),
(144,642,o),
(215,642,cs),
(284,642,o),
(320,603,o),
(325,520,c),
(325,495,l),
(395,495,l),
(395,520,l),
(390,644,o),
(327,708,o),
(216,708,cs),
(102,708,o),
(34,635,o),
(34,522,cs),
(34,423,o),
(85,373,o),
(173,338,cs),
(214,322,ls),
(285,293,o),
(325,266,o),
(325,184,cs),
(325,99,o),
(288,58,o),
(215,58,cs),
(142,58,o),
(103,101,o),
(99,192,c),
(99,203,l),
(27,203,l),
(27,192,l),
(30,61,o),
(92,-7,o),
(212,-7,cs)
);
}
);
width = 436;
},
{
anchors = (
{
name = b.uni0324_2;
position = "{281, 0}";
},
{
name = m.uni0308_1;
position = "{281, 700}";
}
);
layerId = "B98D4703-DDC7-495E-B040-47EC823CED71";
shapes = (
{
closed = 1;
nodes = (
(412,-6,o),
(498,64,o),
(498,183,cs),
(498,292,o),
(437,348,o),
(318,367,cs),
(233,382,l),
(137,401,o),
(91,444,o),
(91,523,cs),
(91,619,o),
(160,675,o),
(273,675,cs),
(382,675,o),
(441,624,o),
(452,523,c),
(452,500,l),
(490,500,l),
(490,523,l),
(469,648,o),
(392,708,o),
(272,708,cs),
(152,708,o),
(56,651,o),
(56,521,cs),
(56,418,o),
(126,364,o),
(222,348,c),
(311,335,l),
(400,316,o),
(465,282,o),
(465,182,cs),
(465,82,o),
(396,25,o),
(272,25,cs),
(157,25,o),
(92,83,o),
(81,192,c),
(81,199,l),
(44,199,l),
(44,192,l),
(55,59,o),
(135,-6,o),
(268,-6,cs)
);
}
);
width = 558;
},
{
anchors = (
{
name = b.uni0324_2;
position = "{116, 0}";
},
{
name = m.uni0308_1;
position = "{112, 700}";
}
);
layerId = "8C36FF45-EE0D-47F3-80A1-ABABB257461F";
shapes = (
{
closed = 1;
nodes = (
(331,-6,o),
(392,59,o),
(392,179,cs),
(392,280,o),
(346,333,o),
(250,366,cs),
(210,379,l),
(117,415,o),
(83,455,o),
(83,530,cs),
(83,618,o),
(126,670,o),
(214,670,cs),
(297,670,o),
(342,624,o),
(350,529,c),
(350,504,l),
(390,504,l),
(390,529,l),
(385,649,o),
(323,708,o),
(215,708,cs),
(104,708,o),
(39,636,o),
(39,527,cs),
(39,430,o),
(98,379,o),
(185,349,cs),
(221,337,l),
(303,305,o),
(351,273,o),
(351,179,cs),
(351,80,o),
(303,31,o),
(215,31,cs),
(126,31,o),
(78,82,o),
(73,187,c),
(73,196,l),
(32,196,l),
(32,187,l),
(35,59,o),
(93,-6,o),
(212,-6,cs)
);
}
);
width = 436;
}
);
unicode = 83;
},
{
glyphname = Scedilla;
layers = (
{
anchors = (
{
name = b.uni0324_2;
position = "{251, -160}";
},
{
name = m.uni0308_1;
position = "{281, 700}";
}
);
layerId = "FC56AA79-0F4D-414B-B093-B262B77ED935";
shapes = (
{
closed = 1;
nodes = (
(205,-220,l),
(279,-220,l),
(353,-222,o),
(398,-186,o),
(398,-131,cs),
(398,-75,o),
(374,-40,o),
(316,-34,c),
(326,-3,l),
(458,13,o),
(536,92,o),
(536,221,cs),
(536,332,o),
(477,400,o),
(353,423,cs),
(282,435,ls),
(229,444,o),
(203,466,o),
(203,502,cs),
(203,542,o),
(228,566,o),
(277,566,cs),
(329,566,o),
(356,542,o),
(357,491,c),
(357,472,l),
(522,472,l),
(522,491,l),
(518,626,o),
(430,708,o),
(282,708,cs),
(146,708,o),
(35,635,o),
(35,489,cs),
(35,360,o),
(118,306,o),
(236,285,cs),
(294,275,l),
(340,273,o),
(364,255,o),
(364,207,cs),
(364,162,o),
(340,141,o),
(283,141,cs),
(219,141,o),
(193,161,o),
(182,210,c),
(182,224,l),
(19,224,l),
(19,210,l),
(29,85,o),
(108,4,o),
(247,-5,c),
(233,-52,l),
(233,-85,l),
(279,-85,ls),
(296,-85,o),
(318,-93,o),
(318,-113,cs),
(318,-132,o),
(291,-133,o),
(279,-133,cs),
(205,-133,l)
);
}
);
width = 562;
},
{
anchors = (
{
name = b.uni0324_2;
position = "{228, -167}";
},
{
name = m.uni0308_1;
position = "{262, 700}";
}
);
layerId = "386C80E5-B742-4DC4-8C1D-118FE705019B";
shapes = (
{
closed = 1;
nodes = (
(119,-220,l),
(193,-220,l),
(267,-222,o),
(312,-186,o),
(312,-131,cs),
(312,-75,o),
(288,-40,o),
(230,-34,c),
(238,-8,l),
(350,2,o),
(416,76,o),
(416,200,cs),
(416,311,o),
(375,371,o),
(275,419,cs),
(227,442,ls),
(190,459,o),
(174,479,o),
(174,516,cs),
(174,557,o),
(190,572,o),
(218,572,cs),
(254,572,o),
(263,550,o),
(262,498,c),
(262,472,l),
(407,472,l),
(407,498,l),
(403,631,o),
(335,708,o),
(218,708,cs),
(97,708,o),
(21,629,o),
(21,509,cs),
(21,409,o),
(54,355,o),
(143,310,cs),
(196,285,ls),
(236,267,o),
(260,243,o),
(260,197,cs),
(260,145,o),
(251,125,o),
(215,125,cs),
(182,125,o),
(165,151,o),
(164,204,c),
(164,221,l),
(14,221,l),
(14,204,l),
(17,88,o),
(69,15,o),
(161,-4,c),
(147,-52,l),
(147,-85,l),
(193,-85,ls),
(210,-85,o),
(232,-93,o),
(232,-113,cs),
(232,-132,o),
(205,-133,o),
(193,-133,cs),
(119,-133,l)
);
}
);
width = 436;
},
{
anchors = (
{
name = b.uni0324_2;
position = "{251, -160}";
},
{
name = m.uni0308_1;
position = "{281, 700}";
}
);
layerId = "A1491DFB-4D7B-4F46-84CC-0E934EA2699F";
shapes = (
{
closed = 1;
nodes = (
(209,-220,l),
(277,-220,l),
(346,-221,o),
(395,-190,o),
(396,-131,cs),
(396,-77,o),
(370,-43,o),
(313,-37,c),
(323,-3,l),
(450,12,o),
(525,88,o),
(525,210,cs),
(525,321,o),
(466,386,o),
(343,407,cs),
(268,420,ls),
(203,432,o),
(171,460,o),
(171,508,cs),
(171,564,o),
(208,597,o),
(276,597,cs),
(344,597,o),
(380,565,o),
(384,500,c),
(384,480,l),
(513,480,l),
(513,500,l),
(504,632,o),
(419,708,o),
(279,708,cs),
(147,708,o),
(41,639,o),
(41,498,cs),
(41,377,o),
(121,322,o),
(232,303,cs),
(299,292,l),
(357,285,o),
(393,263,o),
(393,200,cs),
(393,139,o),
(356,108,o),
(280,108,cs),
(201,108,o),
(164,138,o),
(153,205,c),
(153,217,l),
(26,217,l),
(26,205,l),
(36,80,o),
(114,3,o),
(248,-5,c),
(235,-50,l),
(235,-85,l),
(277,-85,ls),
(298,-85,o),
(324,-93,o),
(324,-117,cs),
(324,-139,o),
(294,-143,o),
(277,-143,cs),
(209,-143,l)
);
}
);
width = 561;
},
{
anchors = (
{
name = b.uni0324_2;
position = "{183, -168}";
},
{
name = m.uni0308_1;
position = "{219, 700}";
}
);
layerId = "013B1E1E-EC1A-4004-9A9E-28013B12321E";
shapes = (
{
closed = 1;
nodes = (
(145,-220,l),
(213,-220,l),
(282,-221,o),
(331,-190,o),
(332,-131,cs),
(332,-77,o),
(306,-43,o),
(249,-37,c),
(259,-4,l),
(355,12,o),
(409,82,o),
(409,194,cs),
(409,302,o),
(367,360,o),
(268,404,cs),
(222,424,ls),
(169,447,o),
(148,472,o),
(148,520,cs),
(148,575,o),
(172,600,o),
(217,600,cs),
(266,600,o),
(286,571,o),
(287,507,c),
(287,481,l),
(402,481,l),
(402,507,l),
(398,636,o),
(332,708,o),
(217,708,cs),
(99,708,o),
(26,631,o),
(26,514,cs),
(26,416,o),
(67,360,o),
(155,321,cs),
(203,300,ls),
(255,277,o),
(286,253,o),
(286,192,cs),
(286,127,o),
(266,98,o),
(215,98,cs),
(166,98,o),
(141,131,o),
(138,199,c),
(138,214,l),
(19,214,l),
(19,199,l),
(22,77,o),
(79,4,o),
(184,-7,c),
(171,-50,l),
(171,-85,l),
(213,-85,ls),
(234,-85,o),
(260,-93,o),
(260,-117,cs),
(260,-139,o),
(230,-143,o),
(213,-143,cs),
(145,-143,l)
);
}
);
width = 436;
},
{
anchors = (
{
name = b.uni0324_2;
position = "{251, -160}";
},
{
name = m.uni0308_1;
position = "{281, 700}";
}
);
layerId = "0F8D56E4-D9E3-4FE5-8622-D887DCE8F82E";
shapes = (
{
closed = 1;
nodes = (
(215,-220,l),
(273,-220,ls),
(335,-220,o),
(392,-197,o),
(392,-131,cs),
(392,-78,o),
(362,-47,o),
(308,-42,c),
(319,-3,l),
(438,12,o),
(509,82,o),
(509,194,cs),
(509,303,o),
(448,363,o),
(328,383,cs),
(247,397,ls),
(163,413,o),
(123,450,o),
(123,517,cs),
(123,597,o),
(179,644,o),
(274,644,cs),
(367,644,o),
(417,601,o),
(425,514,c),
(425,492,l),
(499,492,l),
(499,514,l),
(483,642,o),
(403,708,o),
(275,708,cs),
(151,708,o),
(50,646,o),
(50,512,cs),
(50,400,o),
(123,348,o),
(226,330,c),
(306,318,l),
(383,304,o),
(436,275,o),
(436,189,cs),
(436,105,o),
(380,58,o),
(275,58,cs),
(175,58,o),
(121,105,o),
(110,197,c),
(110,206,l),
(37,206,l),
(37,197,l),
(47,71,o),
(122,2,o),
(249,-5,c),
(237,-48,l),
(237,-85,l),
(273,-85,ls),
(300,-85,o),
(333,-94,o),
(333,-123,cs),
(333,-150,o),
(299,-157,o),
(273,-157,cs),
(215,-157,l)
);
}
);
width = 559;
},
{
anchors = (
{
name = b.uni0324_2;
position = "{115, -170}";
},
{
name = m.uni0308_1;
position = "{155, 700}";
}
);
layerId = "301B1BEE-A3B7-420C-AFCF-2213D48A32DD";
shapes = (
{
closed = 1;
nodes = (
(152,-220,l),
(210,-220,ls),
(272,-220,o),
(329,-197,o),
(329,-131,cs),
(329,-78,o),
(299,-47,o),
(245,-42,c),
(256,-4,l),
(349,11,o),
(399,77,o),
(399,185,cs),
(399,289,o),
(354,344,o),
(257,381,cs),
(215,397,ls),
(138,428,o),
(109,462,o),
(109,526,cs),
(109,601,o),
(144,642,o),
(215,642,cs),
(284,642,o),
(320,603,o),
(325,520,c),
(325,495,l),
(395,495,l),
(395,520,l),
(390,644,o),
(327,708,o),
(216,708,cs),
(102,708,o),
(34,635,o),
(34,522,cs),
(34,423,o),
(85,373,o),
(173,338,cs),
(214,322,ls),
(285,293,o),
(325,266,o),
(325,184,cs),
(325,99,o),
(288,58,o),
(215,58,cs),
(142,58,o),
(103,101,o),
(99,192,c),
(99,203,l),
(27,203,l),
(27,192,l),
(30,71,o),
(83,3,o),
(186,-6,c),
(174,-48,l),
(174,-85,l),
(210,-85,ls),
(237,-85,o),
(270,-94,o),
(270,-123,cs),
(270,-150,o),
(236,-157,o),
(210,-157,cs),
(152,-157,l)
);
}
);
width = 436;
},
{
anchors = (
{
name = b.uni0324_2;
position = "{251, -160}";
},
{
name = m.uni0308_1;
position = "{281, 700}";
}
);
layerId = "B98D4703-DDC7-495E-B040-47EC823CED71";
shapes = (
{
closed = 1;
nodes = (
(212,-220,l),
(259,-220,l),
(328,-221,o),
(378,-192,o),
(378,-138,cs),
(378,-90,o),
(340,-58,o),
(276,-54,c),
(290,-5,l),
(420,2,o),
(498,70,o),
(498,183,cs),
(498,292,o),
(437,348,o),
(318,367,cs),
(233,382,l),
(137,401,o),
(91,444,o),
(91,523,cs),
(91,619,o),
(160,675,o),
(273,675,cs),
(382,675,o),
(441,624,o),
(452,523,c),
(452,500,l),
(490,500,l),
(490,523,l),
(469,648,o),
(392,708,o),
(272,708,cs),
(152,708,o),
(56,651,o),
(56,521,cs),
(56,418,o),
(126,364,o),
(222,348,c),
(311,335,l),
(400,316,o),
(465,282,o),
(465,182,cs),
(465,82,o),
(396,25,o),
(272,25,cs),
(157,25,o),
(92,83,o),
(81,192,c),
(81,199,l),
(44,199,l),
(44,192,l),
(55,63,o),
(130,-3,o),
(257,-6,c),
(240,-61,l),
(240,-83,l),
(259,-83,ls),
(308,-83,o),
(345,-101,o),
(345,-135,cs),
(345,-169,o),
(308,-186,o),
(259,-186,cs),
(212,-186,l)
);
}
);
width = 558;
},
{
anchors = (
{
name = b.uni0324_2;
position = "{70, -171}";
},
{
name = m.uni0308_1;
position = "{112, 700}";
}
);
layerId = "8C36FF45-EE0D-47F3-80A1-ABABB257461F";
shapes = (
{
closed = 1;
nodes = (
(160,-220,l),
(207,-220,l),
(276,-221,o),
(326,-192,o),
(326,-138,cs),
(326,-90,o),
(288,-58,o),
(224,-54,c),
(239,-5,l),
(340,4,o),
(392,68,o),
(392,179,cs),
(392,280,o),
(346,333,o),
(250,366,cs),
(210,379,l),
(117,415,o),
(83,455,o),
(83,530,cs),
(83,618,o),
(126,670,o),
(214,670,cs),
(297,670,o),
(342,624,o),
(350,529,c),
(350,504,l),
(390,504,l),
(390,529,l),
(385,649,o),
(323,708,o),
(215,708,cs),
(104,708,o),
(39,636,o),
(39,527,cs),
(39,430,o),
(98,379,o),
(185,349,cs),
(221,337,l),
(303,305,o),
(351,273,o),
(351,179,cs),
(351,80,o),
(303,31,o),
(215,31,cs),
(126,31,o),
(78,82,o),
(73,187,c),
(73,196,l),
(32,196,l),
(32,187,l),
(35,61,o),
(91,-4,o),
(205,-6,c),
(188,-61,l),
(188,-83,l),
(207,-83,ls),
(256,-83,o),
(293,-101,o),
(293,-135,cs),
(293,-169,o),
(256,-186,o),
(207,-186,cs),
(160,-186,l)
);
}
);
width = 436;
}
);
unicode = 350;
},
{
glyphname = Germandbls;
layers = (
{
anchors = (
{
name = b.uni0324_2;
position = "{394, 0}";
},
{
name = m.uni0308_1;
position = "{394, 707}";
}
);
layerId = "FC56AA79-0F4D-414B-B093-B262B77ED935";
shapes = (
{
closed = 1;
nodes = (
(347,-3,l),
(475,-3,ls),
(647,-3,o),
(811,12,o),
(811,219,cs),
(811,389,o),
(668,428,o),
(523,428,cs),
(498,428,l),
(505,322,l),
(730,595,l),
(663,676,o),
(485,713,o),
(385,714,cs),
(199,715,o),
(77,669,o),
(77,470,cs),
(77,1,l),
(251,1,l),
(251,464,ls),
(251,555,o),
(312,549,o),
(385,549,cs),
(452,549,o),
(502,546,o),
(510,543,c),
(515,556,l),
(368,365,l),
(368,278,l),
(497,278,ls),
(533,278,o),
(637,278,o),
(637,222,cs),
(637,152,o),
(552,167,o),
(502,167,cs),
(347,167,l)
);
}
);
width = 871;
},
{
anchors = (
{
name = b.uni0324_2;
position = "{401, 0}";
},
{
name = m.uni0308_1;
position = "{401, 702}";
}
);
layerId = "386C80E5-B742-4DC4-8C1D-118FE705019B";
shapes = (
{
closed = 1;
nodes = (
(230,-3,l),
(335,-3,ls),
(511,-3,o),
(600,30,o),
(600,217,cs),
(600,342,o),
(506,410,o),
(387,416,cs),
(366,417,l),
(366,349,l),
(540,570,l),
(486,659,o),
(382,716,o),
(279,714,cs),
(121,712,o),
(30,632,o),
(30,474,cs),
(30,1,l),
(182,1,l),
(182,471,ls),
(182,513,o),
(186,572,o),
(246,572,cs),
(306,572,o),
(352,558,o),
(363,547,c),
(367,583,l),
(224,401,l),
(224,288,l),
(347,288,ls),
(393,288,o),
(447,275,o),
(447,219,cs),
(447,162,o),
(397,147,o),
(350,147,cs),
(230,147,l)
);
}
);
width = 620;
},
{
anchors = (
{
name = b.uni0324_2;
position = "{394, 0}";
},
{
name = m.uni0308_1;
position = "{394, 707}";
}
);
layerId = "A1491DFB-4D7B-4F46-84CC-0E934EA2699F";
shapes = (
{
closed = 1;
nodes = (
(313,-3,l),
(431,-3,ls),
(602,-3,o),
(728,16,o),
(728,211,cs),
(728,377,o),
(609,407,o),
(469,407,cs),
(445,407,l),
(483,343,l),
(671,588,l),
(593,673,o),
(462,713,o),
(349,714,cs),
(174,715,o),
(77,654,o),
(77,477,cs),
(77,1,l),
(209,1,l),
(209,477,ls),
(209,579,o),
(262,590,o),
(349,590,cs),
(417,590,o),
(474,579,o),
(492,564,c),
(495,580,l),
(342,362,l),
(342,299,l),
(451,299,ls),
(511,299,o),
(596,291,o),
(596,212,cs),
(596,118,o),
(527,126,o),
(455,126,cs),
(313,126,l)
);
}
);
width = 788;
},
{
anchors = (
{
name = b.uni0324_2;
position = "{351, 0}";
},
{
name = m.uni0308_1;
position = "{351, 707}";
}
);
layerId = "013B1E1E-EC1A-4004-9A9E-28013B12321E";
shapes = (
{
closed = 1;
nodes = (
(217,-3,l),
(311,-3,ls),
(470,-3,o),
(545,51,o),
(545,210,cs),
(545,327,o),
(465,401,o),
(352,407,cs),
(332,408,l),
(340,379,l),
(483,581,l),
(439,659,o),
(353,714,o),
(262,714,cs),
(104,714,o),
(42,625,o),
(42,479,cs),
(42,1,l),
(161,1,l),
(161,481,ls),
(161,536,o),
(170,622,o),
(242,622,cs),
(295,622,o),
(338,600,o),
(350,570,c),
(354,592,l),
(219,402,l),
(219,305,l),
(322,305,ls),
(384,305,o),
(426,275,o),
(426,210,cs),
(426,144,o),
(385,114,o),
(325,114,cs),
(217,114,l)
);
}
);
width = 577;
},
{
anchors = (
{
name = b.uni0324_2;
position = "{394, 0}";
},
{
name = m.uni0308_1;
position = "{394, 707}";
}
);
layerId = "0F8D56E4-D9E3-4FE5-8622-D887DCE8F82E";
shapes = (
{
closed = 1;
nodes = (
(262,-3,l),
(365,-3,ls),
(536,-3,o),
(604,24,o),
(604,199,cs),
(604,353,o),
(503,396,o),
(369,396,cs),
(345,396,l),
(337,342,l),
(538,607,l),
(483,679,o),
(383,714,o),
(295,714,cs),
(138,714,o),
(77,632,o),
(77,487,cs),
(77,1,l),
(146,1,l),
(146,496,ls),
(146,600,o),
(193,652,o),
(295,652,cs),
(365,652,o),
(432,630,o),
(465,596,c),
(465,616,l),
(303,383,l),
(303,330,l),
(382,330,ls),
(474,330,o),
(535,297,o),
(535,197,cs),
(535,82,o),
(483,64,o),
(385,64,cs),
(262,64,l)
);
}
);
width = 664;
},
{
anchors = (
{
name = b.uni0324_2;
position = "{276, 0}";
},
{
name = m.uni0308_1;
position = "{276, 714}";
}
);
layerId = "301B1BEE-A3B7-420C-AFCF-2213D48A32DD";
shapes = (
{
closed = 1;
nodes = (
(198,-3,l),
(275,-3,ls),
(408,-3,o),
(463,77,o),
(463,199,cs),
(463,323,o),
(397,392,o),
(277,386,cs),
(256,385,l),
(266,374,l),
(397,597,l),
(366,662,o),
(311,713,o),
(236,714,cs),
(99,716,o),
(60,600,o),
(60,487,cs),
(60,1,l),
(129,1,l),
(129,496,ls),
(129,569,o),
(149,652,o),
(236,652,cs),
(278,652,o),
(316,624,o),
(333,579,c),
(334,607,l),
(211,403,l),
(211,330,l),
(285,330,ls),
(364,330,o),
(394,268,o),
(394,197,cs),
(394,119,o),
(370,64,o),
(287,64,cs),
(198,64,l)
);
}
);
width = 513;
},
{
anchors = (
{
name = b.uni0324_2;
position = "{394, 0}";
},
{
name = m.uni0308_1;
position = "{394, 707}";
}
);
layerId = "B98D4703-DDC7-495E-B040-47EC823CED71";
shapes = (
{
closed = 1;
nodes = (
(227,-3,l),
(321,-3,ls),
(469,-3,o),
(522,48,o),
(522,187,cs),
(522,333,o),
(467,379,o),
(295,379,cs),
(287,379,l),
(288,358,l),
(467,618,l),
(412,678,o),
(342,714,o),
(260,714,c),
(124,711,o),
(77,623,o),
(77,493,cs),
(77,1,l),
(107,1,l),
(107,508,ls),
(107,608,o),
(153,689,o),
(260,689,cs),
(328,689,o),
(398,649,o),
(440,605,c),
(439,627,l),
(275,391,l),
(275,349,l),
(336,349,ls),
(445,349,o),
(491,294,o),
(491,188,cs),
(491,71,o),
(448,27,o),
(338,27,cs),
(227,27,l)
);
}
);
width = 582;
},
{
anchors = (
{
name = b.uni0324_2;
position = "{226, 0}";
},
{
name = m.uni0308_1;
position = "{226, 719}";
}
);
layerId = "8C36FF45-EE0D-47F3-80A1-ABABB257461F";
shapes = (
{
closed = 1;
nodes = (
(185,-3,l),
(251,-3,ls),
(368,-3,o),
(408,93,o),
(408,192,cs),
(408,324,o),
(353,382,o),
(228,382,cs),
(209,382,l),
(228,367,l),
(352,608,l),
(323,664,o),
(288,714,o),
(219,714,cs),
(117,714,o),
(72,646,o),
(72,492,cs),
(72,1,l),
(104,1,l),
(104,516,ls),
(104,635,o),
(143,682,o),
(232,682,cs),
(267,682,o),
(302,638,o),
(320,586,c),
(320,616,l),
(206,404,l),
(206,347,l),
(260,347,ls),
(346,347,o),
(373,259,o),
(373,188,cs),
(373,104,o),
(358,31,o),
(262,31,cs),
(185,31,l)
);
}
);
width = 470;
}
);
unicode = 7838;
},
{
glyphname = T;
layers = (
{
anchors = (
{
name = b.uni0324_2;
position = "{264, 0}";
},
{
name = m.uni0308_1;
position = "{264, 700}";
}
);
layerId = "FC56AA79-0F4D-414B-B093-B262B77ED935";
shapes = (
{
closed = 1;
nodes = (
(181,0,l),
(359,0,l),
(359,550,l),
(525,550,l),
(525,700,l),
(16,700,l),
(16,550,l),
(181,550,l)
);
}
);
width = 541;
},
{
anchors = (
{
name = b.uni0324_2;
position = "{246, 0}";
},
{
name = m.uni0308_1;
position = "{246, 700}";
}
);
layerId = "386C80E5-B742-4DC4-8C1D-118FE705019B";
shapes = (
{
closed = 1;
nodes = (
(120,0,l),
(279,0,l),
(279,555,l),
(385,555,l),
(385,700,l),
(12,700,l),
(12,555,l),
(120,555,l)
);
}
);
width = 397;
},
{
anchors = (
{
name = b.uni0324_2;
position = "{264, 0}";
},
{
name = m.uni0308_1;
position = "{264, 700}";
}
);
layerId = "A1491DFB-4D7B-4F46-84CC-0E934EA2699F";
shapes = (
{
closed = 1;
nodes = (
(196,0,l),
(332,0,l),
(332,583,l),
(512,583,l),
(512,700,l),
(16,700,l),
(16,583,l),
(196,583,l)
);
}
);
width = 528;
},
{
anchors = (
{
name = b.uni0324_2;
position = "{206, 0}";
},
{
name = m.uni0308_1;
position = "{206, 700}";
}
);
layerId = "013B1E1E-EC1A-4004-9A9E-28013B12321E";
shapes = (
{
closed = 1;
nodes = (
(135,0,l),
(260,0,l),
(260,586,l),
(382,586,l),
(382,700,l),
(12,700,l),
(12,586,l),
(135,586,l)
);
}
);
width = 394;
},
{
anchors = (
{
name = b.uni0324_2;
position = "{264, 0}";
},
{
name = m.uni0308_1;
position = "{264, 700}";
}
);
layerId = "0F8D56E4-D9E3-4FE5-8622-D887DCE8F82E";
shapes = (
{
closed = 1;
nodes = (
(218,0,l),
(292,0,l),
(292,632,l),
(493,632,l),
(493,700,l),
(16,700,l),
(16,632,l),
(218,632,l)
);
}
);
width = 509;
},
{
anchors = (
{
name = b.uni0324_2;
position = "{146, 0}";
},
{
name = m.uni0308_1;
position = "{146, 700}";
}
);
layerId = "301B1BEE-A3B7-420C-AFCF-2213D48A32DD";
shapes = (
{
closed = 1;
nodes = (
(158,0,l),
(231,0,l),
(231,633,l),
(377,633,l),
(377,700,l),
(12,700,l),
(12,633,l),
(158,633,l)
);
}
);
width = 389;
},
{
anchors = (
{
name = b.uni0324_2;
position = "{264, 0}";
},
{
name = m.uni0308_1;
position = "{264, 700}";
}
);
layerId = "B98D4703-DDC7-495E-B040-47EC823CED71";
shapes = (
{
closed = 1;
nodes = (
(233,0,l),
(265,0,l),
(265,665,l),
(480,665,l),
(480,700,l),
(16,700,l),
(16,665,l),
(233,665,l)
);
}
);
width = 496;
},
{
anchors = (
{
name = b.uni0324_2;
position = "{106, 0}";
},
{
name = m.uni0308_1;
position = "{106, 700}";
}
);
layerId = "8C36FF45-EE0D-47F3-80A1-ABABB257461F";
shapes = (
{
closed = 1;
nodes = (
(173,0,l),
(212,0,l),
(212,664,l),
(374,664,l),
(374,700,l),
(12,700,l),
(12,664,l),
(173,664,l)
);
}
);
width = 386;
}
);
leftKerningGroup = T;
unicode = 84;
},
{
glyphname = Tcedilla;
layers = (
{
anchors = (
{
name = b.uni0324_2;
position = "{234, -160}";
},
{
name = m.uni0308_1;
position = "{264, 700}";
}
);
layerId = "FC56AA79-0F4D-414B-B093-B262B77ED935";
shapes = (
{
closed = 1;
nodes = (
(194,-220,l),
(268,-220,l),
(342,-222,o),
(387,-186,o),
(387,-131,c),
(389,-75,o),
(363,-40,o),
(305,-34,c),
(315,0,l),
(359,0,l),
(359,550,l),
(525,550,l),
(525,700,l),
(16,700,l),
(16,550,l),
(181,550,l),
(181,0,l),
(237,0,l),
(222,-52,l),
(222,-85,l),
(268,-85,ls),
(285,-85,o),
(307,-93,o),
(307,-113,cs),
(307,-132,o),
(280,-133,o),
(268,-133,cs),
(194,-133,l)
);
}
);
width = 541;
},
{
anchors = (
{
name = b.uni0324_2;
position = "{214, -167}";
},
{
name = m.uni0308_1;
position = "{246, 700}";
}
);
layerId = "386C80E5-B742-4DC4-8C1D-118FE705019B";
shapes = (
{
closed = 1;
nodes = (
(118,-220,l),
(192,-220,l),
(266,-222,o),
(311,-186,o),
(311,-131,c),
(313,-75,o),
(287,-40,o),
(229,-34,c),
(239,0,l),
(279,0,l),
(279,555,l),
(385,555,l),
(385,700,l),
(12,700,l),
(12,555,l),
(120,555,l),
(120,0,l),
(161,0,l),
(146,-52,l),
(146,-85,l),
(192,-85,ls),
(209,-85,o),
(231,-93,o),
(231,-113,cs),
(231,-132,o),
(204,-133,o),
(192,-133,cs),
(118,-133,l)
);
}
);
width = 397;
},
{
anchors = (
{
name = b.uni0324_2;
position = "{234, -160}";
},
{
name = m.uni0308_1;
position = "{264, 700}";
}
);
layerId = "A1491DFB-4D7B-4F46-84CC-0E934EA2699F";
shapes = (
{
closed = 1;
nodes = (
(192,-220,l),
(260,-220,l),
(329,-221,o),
(379,-190,o),
(379,-131,c),
(380,-77,o),
(353,-43,o),
(296,-37,c),
(307,0,l),
(332,0,l),
(332,583,l),
(512,583,l),
(512,700,l),
(16,700,l),
(16,583,l),
(196,583,l),
(196,0,l),
(233,0,l),
(218,-50,l),
(218,-85,l),
(260,-85,ls),
(281,-85,o),
(307,-93,o),
(307,-117,cs),
(307,-139,o),
(277,-143,o),
(260,-143,cs),
(192,-143,l)
);
}
);
width = 528;
},
{
anchors = (
{
name = b.uni0324_2;
position = "{170, -168}";
},
{
name = m.uni0308_1;
position = "{206, 700}";
}
);
layerId = "013B1E1E-EC1A-4004-9A9E-28013B12321E";
shapes = (
{
closed = 1;
nodes = (
(124,-220,l),
(192,-220,l),
(261,-221,o),
(311,-190,o),
(311,-131,c),
(312,-77,o),
(285,-43,o),
(228,-37,c),
(239,0,l),
(260,0,l),
(260,586,l),
(382,586,l),
(382,700,l),
(12,700,l),
(12,586,l),
(135,586,l),
(135,0,l),
(165,0,l),
(150,-50,l),
(150,-85,l),
(192,-85,ls),
(213,-85,o),
(239,-93,o),
(239,-117,cs),
(239,-139,o),
(209,-143,o),
(192,-143,cs),
(124,-143,l)
);
}
);
width = 394;
},
{
anchors = (
{
name = b.uni0324_2;
position = "{234, -160}";
},
{
name = m.uni0308_1;
position = "{264, 700}";
}
);
layerId = "0F8D56E4-D9E3-4FE5-8622-D887DCE8F82E";
shapes = (
{
closed = 1;
nodes = (
(185,-220,l),
(243,-220,ls),
(305,-220,o),
(362,-197,o),
(362,-131,cs),
(362,-78,o),
(332,-47,o),
(278,-42,c),
(290,0,l),
(292,0,l),
(292,632,l),
(493,632,l),
(493,700,l),
(16,700,l),
(16,632,l),
(218,632,l),
(218,0,l),
(221,0,l),
(207,-48,l),
(207,-85,l),
(243,-85,ls),
(270,-85,o),
(303,-94,o),
(303,-123,cs),
(303,-150,o),
(269,-157,o),
(243,-157,cs),
(185,-157,l)
);
}
);
width = 509;
},
{
anchors = (
{
name = b.uni0324_2;
position = "{104, -170}";
},
{
name = m.uni0308_1;
position = "{146, 700}";
}
);
layerId = "301B1BEE-A3B7-420C-AFCF-2213D48A32DD";
shapes = (
{
closed = 1;
nodes = (
(124,-220,l),
(182,-220,ls),
(244,-220,o),
(301,-197,o),
(301,-131,cs),
(301,-78,o),
(271,-47,o),
(217,-42,c),
(229,0,l),
(231,0,l),
(231,633,l),
(377,633,l),
(377,700,l),
(12,700,l),
(12,633,l),
(158,633,l),
(158,0,l),
(160,0,l),
(146,-48,l),
(146,-85,l),
(182,-85,ls),
(209,-85,o),
(242,-94,o),
(242,-123,cs),
(242,-150,o),
(208,-157,o),
(182,-157,cs),
(124,-157,l)
);
}
);
width = 389;
},
{
anchors = (
{
name = b.uni0324_2;
position = "{234, -160}";
},
{
name = m.uni0308_1;
position = "{264, 700}";
}
);
layerId = "B98D4703-DDC7-495E-B040-47EC823CED71";
shapes = (
{
closed = 1;
nodes = (
(186,-220,l),
(233,-220,l),
(302,-221,o),
(352,-192,o),
(352,-138,cs),
(352,-90,o),
(314,-58,o),
(250,-54,c),
(266,0,l),
(265,0,l),
(265,665,l),
(480,665,l),
(480,700,l),
(16,700,l),
(16,665,l),
(233,665,l),
(233,0,l),
(233,0,l),
(214,-61,l),
(214,-83,l),
(233,-83,ls),
(282,-83,o),
(319,-101,o),
(319,-135,cs),
(319,-169,o),
(282,-186,o),
(233,-186,cs),
(186,-186,l)
);
}
);
width = 496;
},
{
anchors = (
{
name = b.uni0324_2;
position = "{60, -171}";
},
{
name = m.uni0308_1;
position = "{106, 700}";
}
);
layerId = "8C36FF45-EE0D-47F3-80A1-ABABB257461F";
shapes = (
{
closed = 1;
nodes = (
(135,-220,l),
(182,-220,l),
(251,-221,o),
(301,-192,o),
(301,-138,cs),
(301,-90,o),
(254,-58,o),
(190,-54,c),
(206,0,l),
(212,0,l),
(212,664,l),
(374,664,l),
(374,700,l),
(12,700,l),
(12,664,l),
(173,664,l),
(173,0,l),
(173,0,l),
(154,-61,l),
(163,-83,l),
(182,-83,ls),
(231,-83,o),
(268,-101,o),
(268,-135,cs),
(268,-169,o),
(231,-186,o),
(182,-186,cs),
(135,-186,l)
);
}
);
width = 386;
}
);
leftKerningGroup = T;
rightKerningGroup = Tbar;
unicode = 354;
},
{
glyphname = U;
layers = (
{
anchors = (
{
name = b.uni0324_2;
position = "{314, 0}";
},
{
name = m.uni0308_1;
position = "{314, 700}";
},
{
name = m.uni0328;
position = "{374, 10}";
},
{
name = t.uni031B_2;
position = "{656, 700}";
}
);
layerId = "FC56AA79-0F4D-414B-B093-B262B77ED935";
shapes = (
{
closed = 1;
nodes = (
(444,-6,o),
(568,91,o),
(568,235,cs),
(568,700,l),
(392,700,l),
(392,239,ls),
(392,182,o),
(364,145,o),
(304,145,cs),
(245,145,o),
(220,184,o),
(220,239,cs),
(220,700,l),
(45,700,l),
(45,235,ls),
(45,89,o),
(167,-6,o),
(304,-6,cs)
);
}
);
width = 613;
},
{
anchors = (
{
name = b.uni0324_2;
position = "{278, 0}";
},
{
name = m.uni0308_1;
position = "{278, 700}";
},
{
name = m.uni0328;
position = "{352, 10}";
},
{
name = t.uni031B_2;
position = "{557, 700}";
}
);
layerId = "386C80E5-B742-4DC4-8C1D-118FE705019B";
shapes = (
{
closed = 1;
nodes = (
(344,-8,o),
(427,75,o),
(427,188,cs),
(427,700,l),
(267,700,l),
(267,191,ls),
(267,161,o),
(266,136,o),
(229,136,cs),
(193,136,o),
(191,161,o),
(191,191,cs),
(191,700,l),
(31,700,l),
(31,188,ls),
(31,72,o),
(117,-8,o),
(229,-8,cs)
);
}
);
width = 458;
},
{
anchors = (
{
name = b.uni0324_2;
position = "{314, 0}";
},
{
name = m.uni0308_1;
position = "{314, 700}";
},
{
name = m.uni0328;
position = "{374, 10}";
},
{
name = t.uni031B_2;
position = "{656, 700}";
}
);
layerId = "A1491DFB-4D7B-4F46-84CC-0E934EA2699F";
shapes = (
{
closed = 1;
nodes = (
(453,-6,o),
(568,91,o),
(568,233,cs),
(568,700,l),
(433,700,l),
(433,238,ls),
(433,162,o),
(391,111,o),
(313,111,cs),
(236,111,o),
(195,164,o),
(195,238,cs),
(195,700,l),
(60,700,l),
(60,233,ls),
(60,88,o),
(176,-6,o),
(313,-6,cs)
);
}
);
width = 628;
},
{
anchors = (
{
name = b.uni0324_2;
position = "{225, 0}";
},
{
name = m.uni0308_1;
position = "{225, 700}";
},
{
name = m.uni0328;
position = "{286, 10}";
},
{
name = t.uni031B_2;
position = "{444, 700}";
}
);
layerId = "013B1E1E-EC1A-4004-9A9E-28013B12321E";
shapes = (
{
closed = 1;
nodes = (
(351,-8,o),
(428,74,o),
(428,185,cs),
(428,700,l),
(302,700,l),
(302,188,ls),
(302,142,o),
(288,105,o),
(236,105,cs),
(184,105,o),
(169,142,o),
(169,188,cs),
(169,700,l),
(43,700,l),
(43,185,ls),
(43,71,o),
(125,-8,o),
(236,-8,cs)
);
}
);
width = 471;
},
{
anchors = (
{
name = b.uni0324_2;
position = "{314, 0}";
},
{
name = m.uni0308_1;
position = "{314, 700}";
},
{
name = m.uni0328;
position = "{374, 10}";
},
{
name = t.uni031B_2;
position = "{656, 700}";
}
);
layerId = "0F8D56E4-D9E3-4FE5-8622-D887DCE8F82E";
shapes = (
{
closed = 1;
nodes = (
(465,-6,o),
(568,93,o),
(568,230,cs),
(568,700,l),
(494,700,l),
(494,237,ls),
(494,133,o),
(434,60,o),
(326,60,cs),
(220,60,o),
(158,134,o),
(158,237,cs),
(158,700,l),
(82,700,l),
(82,230,ls),
(82,88,o),
(190,-6,o),
(326,-6,cs)
);
}
);
width = 650;
},
{
anchors = (
{
name = b.uni0324_2;
position = "{146, 0}";
},
{
name = m.uni0308_1;
position = "{146, 700}";
},
{
name = m.uni0328;
position = "{187, 10}";
},
{
name = t.uni031B_2;
position = "{274, 700}";
}
);
layerId = "301B1BEE-A3B7-420C-AFCF-2213D48A32DD";
shapes = (
{
closed = 1;
nodes = (
(361,-8,o),
(430,71,o),
(430,180,cs),
(430,700,l),
(355,700,l),
(355,184,ls),
(355,115,o),
(320,59,o),
(246,59,cs),
(171,59,o),
(136,114,o),
(136,184,cs),
(136,700,l),
(61,700,l),
(61,180,ls),
(61,70,o),
(138,-8,o),
(246,-8,cs)
);
}
);
width = 491;
},
{
anchors = (
{
name = b.uni0324_2;
position = "{314, 0}";
},
{
name = m.uni0308_1;
position = "{314, 700}";
},
{
name = m.uni0328;
position = "{374, 10}";
},
{
name = t.uni031B_2;
position = "{656, 700}";
}
);
layerId = "B98D4703-DDC7-495E-B040-47EC823CED71";
shapes = (
{
closed = 1;
nodes = (
(473,-6,o),
(568,94,o),
(568,228,cs),
(568,700,l),
(535,700,l),
(535,236,ls),
(535,113,o),
(461,26,o),
(335,26,cs),
(210,26,o),
(133,114,o),
(133,236,cs),
(133,700,l),
(97,700,l),
(97,228,ls),
(97,89,o),
(201,-6,o),
(335,-6,cs)
);
}
);
width = 665;
},
{
anchors = (
{
name = b.uni0324_2;
position = "{93, 0}";
},
{
name = m.uni0308_1;
position = "{93, 700}";
},
{
name = m.uni0328;
position = "{121, 10}";
},
{
name = t.uni031B_2;
position = "{161, 700}";
}
);
layerId = "8C36FF45-EE0D-47F3-80A1-ABABB257461F";
shapes = (
{
closed = 1;
nodes = (
(369,-8,o),
(431,68,o),
(431,177,cs),
(431,700,l),
(390,700,l),
(390,181,ls),
(390,96,o),
(343,28,o),
(253,28,cs),
(162,28,o),
(114,94,o),
(114,181,cs),
(114,700,l),
(73,700,l),
(73,177,ls),
(73,69,o),
(146,-8,o),
(253,-8,cs)
);
}
);
width = 504;
}
);
leftKerningGroup = U2;
rightKerningGroup = U;
unicode = 85;
},
{
glyphname = V;
layers = (
{
anchors = (
{
name = b.uni0324_2;
position = "{284, 0}";
},
{
name = m.uni0308_1;
position = "{284, 700}";
}
);
layerId = "FC56AA79-0F4D-414B-B093-B262B77ED935";
shapes = (
{
closed = 1;
nodes = (
(224,0,l),
(363,0,l),
(586,700,l),
(404,700,l),
(295,283,l),
(183,700,l),
(2,700,l)
);
}
);
width = 588;
},
{
anchors = (
{
name = b.uni0324_2;
position = "{280, 0}";
},
{
name = m.uni0308_1;
position = "{280, 700}";
}
);
layerId = "386C80E5-B742-4DC4-8C1D-118FE705019B";
shapes = (
{
closed = 1;
nodes = (
(154,0,l),
(323,0,l),
(474,700,l),
(296,700,l),
(237,219,l),
(181,700,l),
(4,700,l)
);
}
);
width = 476;
},
{
anchors = (
{
name = b.uni0324_2;
position = "{284, 0}";
},
{
name = m.uni0308_1;
position = "{284, 700}";
}
);
layerId = "A1491DFB-4D7B-4F46-84CC-0E934EA2699F";
shapes = (
{
closed = 1;
nodes = (
(229,0,l),
(337,0,l),
(563,700,l),
(423,700,l),
(284,218,l),
(144,700,l),
(4,700,l)
);
}
);
width = 567;
},
{
anchors = (
{
name = b.uni0324_2;
position = "{246, 0}";
},
{
name = m.uni0308_1;
position = "{246, 700}";
}
);
layerId = "013B1E1E-EC1A-4004-9A9E-28013B12321E";
shapes = (
{
closed = 1;
nodes = (
(165,0,l),
(295,0,l),
(454,700,l),
(315,700,l),
(229,178,l),
(144,700,l),
(6,700,l)
);
}
);
width = 459;
},
{
anchors = (
{
name = b.uni0324_2;
position = "{284, 0}";
},
{
name = m.uni0308_1;
position = "{284, 700}";
}
);
layerId = "0F8D56E4-D9E3-4FE5-8622-D887DCE8F82E";
shapes = (
{
closed = 1;
nodes = (
(237,0,l),
(298,0,l),
(528,700,l),
(451,700,l),
(268,121,l),
(85,700,l),
(7,700,l)
);
}
);
width = 535;
},
{
anchors = (
{
name = b.uni0324_2;
position = "{195, 0}";
},
{
name = m.uni0308_1;
position = "{195, 700}";
}
);
layerId = "301B1BEE-A3B7-420C-AFCF-2213D48A32DD";
shapes = (
{
closed = 1;
nodes = (
(181,0,l),
(253,0,l),
(424,700,l),
(344,700,l),
(217,117,l),
(89,700,l),
(9,700,l)
);
}
);
width = 433;
},
{
anchors = (
{
name = b.uni0324_2;
position = "{284, 0}";
},
{
name = m.uni0308_1;
position = "{284, 700}";
}
);
layerId = "B98D4703-DDC7-495E-B040-47EC823CED71";
shapes = (
{
closed = 1;
nodes = (
(242,0,l),
(272,0,l),
(505,700,l),
(470,700,l),
(257,56,l),
(46,700,l),
(9,700,l)
);
}
);
width = 514;
},
{
anchors = (
{
name = b.uni0324_2;
position = "{161, 0}";
},
{
name = m.uni0308_1;
position = "{161, 700}";
}
);
layerId = "8C36FF45-EE0D-47F3-80A1-ABABB257461F";
shapes = (
{
closed = 1;
nodes = (
(192,0,l),
(225,0,l),
(404,700,l),
(363,700,l),
(209,76,l),
(52,700,l),
(11,700,l)
);
}
);
width = 416;
}
);
unicode = 86;
},
{
glyphname = W;
layers = (
{
anchors = (
{
name = b.uni0324_2;
position = "{426, 0}";
},
{
name = m.uni0308_1;
position = "{426, 700}";
}
);
layerId = "FC56AA79-0F4D-414B-B093-B262B77ED935";
shapes = (
{
closed = 1;
nodes = (
(171,0,l),
(330,0,l),
(441,468,l),
(552,0,l),
(713,0,l),
(876,700,l),
(715,700,l),
(640,266,l),
(524,700,l),
(369,700,l),
(260,266,l),
(177,700,l),
(2,700,l)
);
}
);
width = 877;
},
{
anchors = (
{
name = b.uni0324_2;
position = "{412, 0}";
},
{
name = m.uni0308_1;
position = "{412, 700}";
}
);
layerId = "386C80E5-B742-4DC4-8C1D-118FE705019B";
shapes = (
{
closed = 1;
nodes = (
(121,0,l),
(293,0,l),
(351,426,l),
(407,0,l),
(581,0,l),
(699,700,l),
(538,700,l),
(490,221,l),
(407,700,l),
(296,700,l),
(212,221,l),
(165,700,l),
(4,700,l)
);
}
);
width = 703;
},
{
anchors = (
{
name = b.uni0324_2;
position = "{426, 0}";
},
{
name = m.uni0308_1;
position = "{426, 700}";
}
);
layerId = "A1491DFB-4D7B-4F46-84CC-0E934EA2699F";
shapes = (
{
closed = 1;
nodes = (
(178,0,l),
(300,0,l),
(428,523,l),
(557,0,l),
(680,0,l),
(849,700,l),
(724,700,l),
(624,208,l),
(515,700,l),
(348,700,l),
(245,208,l),
(138,700,l),
(4,700,l)
);
}
);
width = 852;
},
{
anchors = (
{
name = b.uni0324_2;
position = "{363, 0}";
},
{
name = m.uni0308_1;
position = "{363, 700}";
}
);
layerId = "013B1E1E-EC1A-4004-9A9E-28013B12321E";
shapes = (
{
closed = 1;
nodes = (
(132,0,l),
(267,0,l),
(345,434,l),
(422,0,l),
(558,0,l),
(684,700,l),
(558,700,l),
(489,178,l),
(423,700,l),
(269,700,l),
(203,178,l),
(134,700,l),
(6,700,l)
);
}
);
width = 690;
},
{
anchors = (
{
name = b.uni0324_2;
position = "{426, 0}";
},
{
name = m.uni0308_1;
position = "{426, 700}";
}
);
layerId = "0F8D56E4-D9E3-4FE5-8622-D887DCE8F82E";
shapes = (
{
closed = 1;
nodes = (
(188,0,l),
(255,0,l),
(408,606,l),
(564,0,l),
(631,0,l),
(808,700,l),
(738,700,l),
(600,121,l),
(457,700,l),
(361,700,l),
(223,121,l),
(80,700,l),
(7,700,l)
);
}
);
width = 815;
},
{
anchors = (
{
name = b.uni0324_2;
position = "{290, 0}";
},
{
name = m.uni0308_1;
position = "{290, 700}";
}
);
layerId = "301B1BEE-A3B7-420C-AFCF-2213D48A32DD";
shapes = (
{
closed = 1;
nodes = (
(148,0,l),
(228,0,l),
(336,596,l),
(444,0,l),
(524,0,l),
(662,700,l),
(588,700,l),
(487,113,l),
(387,700,l),
(289,700,l),
(189,113,l),
(87,700,l),
(9,700,l)
);
}
);
width = 670;
},
{
anchors = (
{
name = b.uni0324_2;
position = "{426, 0}";
},
{
name = m.uni0308_1;
position = "{426, 700}";
}
);
layerId = "B98D4703-DDC7-495E-B040-47EC823CED71";
shapes = (
{
closed = 1;
nodes = (
(195,0,l),
(225,0,l),
(395,661,l),
(569,0,l),
(598,0,l),
(781,700,l),
(747,700,l),
(584,63,l),
(418,700,l),
(370,700,l),
(208,63,l),
(41,700,l),
(9,700,l)
);
}
);
width = 790;
},
{
anchors = (
{
name = b.uni0324_2;
position = "{241, 0}";
},
{
name = m.uni0308_1;
position = "{241, 700}";
}
);
layerId = "8C36FF45-EE0D-47F3-80A1-ABABB257461F";
shapes = (
{
closed = 1;
nodes = (
(159,0,l),
(202,0,l),
(330,704,l),
(459,0,l),
(501,0,l),
(647,700,l),
(608,700,l),
(486,70,l),
(363,700,l),
(302,700,l),
(180,70,l),
(56,700,l),
(11,700,l)
);
}
);
width = 657;
}
);
rightKerningGroup = W;
unicode = 87;
},
{
glyphname = X;
layers = (
{
anchors = (
{
name = b.uni0324_2;
position = "{304, 0}";
},
{
name = m.uni0308_1;
position = "{304, 700}";
}
);
layerId = "FC56AA79-0F4D-414B-B093-B262B77ED935";
shapes = (
{
closed = 1;
nodes = (
(2,0,l),
(199,0,l),
(310,230,l),
(417,0,l),
(624,0,l),
(411,374,l),
(600,700,l),
(403,700,l),
(313,509,l),
(220,700,l),
(15,700,l),
(210,368,l)
);
}
);
width = 626;
},
{
anchors = (
{
name = b.uni0324_2;
position = "{277, 0}";
},
{
name = m.uni0308_1;
position = "{277, 700}";
}
);
layerId = "386C80E5-B742-4DC4-8C1D-118FE705019B";
shapes = (
{
closed = 1;
nodes = (
(4,0,l),
(155,0,l),
(213,216,l),
(270,0,l),
(420,0,l),
(287,366,l),
(413,700,l),
(262,700,l),
(212,514,l),
(163,700,l),
(11,700,l),
(138,367,l)
);
}
);
width = 423;
},
{
anchors = (
{
name = b.uni0324_2;
position = "{304, 0}";
},
{
name = m.uni0308_1;
position = "{304, 700}";
}
);
layerId = "A1491DFB-4D7B-4F46-84CC-0E934EA2699F";
shapes = (
{
closed = 1;
nodes = (
(4,0,l),
(157,0,l),
(301,261,l),
(443,0,l),
(603,0,l),
(380,373,l),
(580,700,l),
(427,700,l),
(304,477,l),
(179,700,l),
(20,700,l),
(224,368,l)
);
}
);
width = 607;
},
{
anchors = (
{
name = b.uni0324_2;
position = "{226, 0}";
},
{
name = m.uni0308_1;
position = "{226, 700}";
}
);
layerId = "013B1E1E-EC1A-4004-9A9E-28013B12321E";
shapes = (
{
closed = 1;
nodes = (
(6,0,l),
(130,0,l),
(213,247,l),
(295,0,l),
(419,0,l),
(274,367,l),
(409,700,l),
(285,700,l),
(213,485,l),
(140,700,l),
(16,700,l),
(151,367,l)
);
}
);
width = 424;
},
{
anchors = (
{
name = b.uni0324_2;
position = "{304, 0}";
},
{
name = m.uni0308_1;
position = "{304, 700}";
}
);
layerId = "0F8D56E4-D9E3-4FE5-8622-D887DCE8F82E";
shapes = (
{
closed = 1;
nodes = (
(7,0,l),
(94,0,l),
(288,308,l),
(482,0,l),
(572,0,l),
(334,371,l),
(550,700,l),
(463,700,l),
(290,429,l),
(117,700,l),
(27,700,l),
(245,368,l)
);
}
);
width = 579;
},
{
anchors = (
{
name = b.uni0324_2;
position = "{149, 0}";
},
{
name = m.uni0308_1;
position = "{149, 700}";
}
);
layerId = "301B1BEE-A3B7-420C-AFCF-2213D48A32DD";
shapes = (
{
closed = 1;
nodes = (
(9,0,l),
(93,0,l),
(213,293,l),
(332,0,l),
(417,0,l),
(255,368,l),
(403,700,l),
(319,700,l),
(214,441,l),
(106,700,l),
(23,700,l),
(170,367,l)
);
}
);
width = 425;
},
{
anchors = (
{
name = b.uni0324_2;
position = "{304, 0}";
},
{
name = m.uni0308_1;
position = "{304, 700}";
}
);
layerId = "B98D4703-DDC7-495E-B040-47EC823CED71";
shapes = (
{
closed = 1;
nodes = (
(9,0,l),
(52,0,l),
(279,339,l),
(508,0,l),
(551,0,l),
(303,370,l),
(530,700,l),
(487,700,l),
(281,397,l),
(76,700,l),
(32,700,l),
(259,368,l)
);
}
);
width = 560;
},
{
anchors = (
{
name = b.uni0324_2;
position = "{98, 0}";
},
{
name = m.uni0308_1;
position = "{98, 700}";
}
);
layerId = "8C36FF45-EE0D-47F3-80A1-ABABB257461F";
shapes = (
{
closed = 1;
nodes = (
(11,0,l),
(68,0,l),
(213,324,l),
(357,0,l),
(416,0,l),
(242,369,l),
(399,700,l),
(342,700,l),
(215,412,l),
(83,700,l),
(28,700,l),
(183,367,l)
);
}
);
width = 426;
}
);
unicode = 88;
},
{
glyphname = Y;
layers = (
{
anchors = (
{
name = b.uni0324_2;
position = "{277, 0}";
},
{
name = m.uni0308_1;
position = "{277, 700}";
}
);
layerId = "FC56AA79-0F4D-414B-B093-B262B77ED935";
shapes = (
{
closed = 1;
nodes = (
(205,0,l),
(378,0,l),
(378,288,l),
(581,700,l),
(388,700,l),
(290,455,l),
(193,700,l),
(2,700,l),
(205,285,l)
);
}
);
width = 582;
},
{
anchors = (
{
name = b.uni0324_2;
position = "{270, 0}";
},
{
name = m.uni0308_1;
position = "{270, 700}";
}
);
layerId = "386C80E5-B742-4DC4-8C1D-118FE705019B";
shapes = (
{
closed = 1;
nodes = (
(141,0,l),
(300,0,l),
(300,262,l),
(437,700,l),
(260,700,l),
(219,471,l),
(179,700,l),
(4,700,l),
(141,267,l)
);
}
);
width = 439;
},
{
anchors = (
{
name = b.uni0324_2;
position = "{277, 0}";
},
{
name = m.uni0308_1;
position = "{277, 700}";
}
);
layerId = "A1491DFB-4D7B-4F46-84CC-0E934EA2699F";
shapes = (
{
closed = 1;
nodes = (
(210,0,l),
(344,0,l),
(344,291,l),
(550,700,l),
(402,700,l),
(276,420,l),
(151,700,l),
(4,700,l),
(210,290,l)
);
}
);
width = 553;
},
{
anchors = (
{
name = b.uni0324_2;
position = "{234, 0}";
},
{
name = m.uni0308_1;
position = "{234, 700}";
}
);
layerId = "013B1E1E-EC1A-4004-9A9E-28013B12321E";
shapes = (
{
closed = 1;
nodes = (
(150,0,l),
(275,0,l),
(275,275,l),
(419,700,l),
(280,700,l),
(212,436,l),
(144,700,l),
(6,700,l),
(150,278,l)
);
}
);
width = 424;
},
{
anchors = (
{
name = b.uni0324_2;
position = "{277, 0}";
},
{
name = m.uni0308_1;
position = "{277, 700}";
}
);
layerId = "0F8D56E4-D9E3-4FE5-8622-D887DCE8F82E";
shapes = (
{
closed = 1;
nodes = (
(218,0,l),
(293,0,l),
(293,296,l),
(504,700,l),
(423,700,l),
(255,368,l),
(88,700,l),
(7,700,l),
(218,297,l)
);
}
);
width = 510;
},
{
anchors = (
{
name = b.uni0324_2;
position = "{180, 0}";
},
{
name = m.uni0308_1;
position = "{180, 700}";
}
);
layerId = "301B1BEE-A3B7-420C-AFCF-2213D48A32DD";
shapes = (
{
closed = 1;
nodes = (
(164,0,l),
(238,0,l),
(238,294,l),
(392,700,l),
(310,700,l),
(201,383,l),
(91,700,l),
(9,700,l),
(164,294,l)
);
}
);
width = 401;
},
{
anchors = (
{
name = b.uni0324_2;
position = "{277, 0}";
},
{
name = m.uni0308_1;
position = "{277, 700}";
}
);
layerId = "B98D4703-DDC7-495E-B040-47EC823CED71";
shapes = (
{
closed = 1;
nodes = (
(223,0,l),
(259,0,l),
(259,299,l),
(473,700,l),
(437,700,l),
(241,333,l),
(46,700,l),
(9,700,l),
(223,302,l)
);
}
);
width = 481;
},
{
anchors = (
{
name = b.uni0324_2;
position = "{144, 0}";
},
{
name = m.uni0308_1;
position = "{144, 700}";
}
);
layerId = "8C36FF45-EE0D-47F3-80A1-ABABB257461F";
shapes = (
{
closed = 1;
nodes = (
(173,0,l),
(213,0,l),
(213,307,l),
(374,700,l),
(330,700,l),
(194,348,l),
(56,700,l),
(11,700,l),
(173,305,l)
);
}
);
width = 386;
}
);
leftKerningGroup = Y;
unicode = 89;
},
{
glyphname = Z;
layers = (
{
anchors = (
{
name = b.uni0324_2;
position = "{259, 0}";
},
{
name = m.uni0308_1;
position = "{259, 700}";
}
);
layerId = "FC56AA79-0F4D-414B-B093-B262B77ED935";
shapes = (
{
closed = 1;
nodes = (
(24,0,l),
(487,0,l),
(487,151,l),
(211,151,l),
(475,550,l),
(475,700,l),
(26,700,l),
(26,550,l),
(290,550,l),
(24,151,l)
);
}
);
width = 510;
},
{
anchors = (
{
name = b.uni0324_2;
position = "{224, 0}";
},
{
name = m.uni0308_1;
position = "{224, 700}";
}
);
layerId = "386C80E5-B742-4DC4-8C1D-118FE705019B";
shapes = (
{
closed = 1;
nodes = (
(16,0,l),
(335,0,l),
(335,145,l),
(175,145,l),
(334,555,l),
(334,700,l),
(25,700,l),
(25,555,l),
(176,555,l),
(16,145,l)
);
}
);
width = 349;
},
{
anchors = (
{
name = b.uni0324_2;
position = "{259, 0}";
},
{
name = m.uni0308_1;
position = "{259, 700}";
}
);
layerId = "A1491DFB-4D7B-4F46-84CC-0E934EA2699F";
shapes = (
{
closed = 1;
nodes = (
(31,0,l),
(489,0,l),
(489,118,l),
(177,118,l),
(480,583,l),
(480,700,l),
(37,700,l),
(37,583,l),
(335,583,l),
(31,118,l)
);
}
);
width = 517;
},
{
anchors = (
{
name = b.uni0324_2;
position = "{179, 0}";
},
{
name = m.uni0308_1;
position = "{179, 700}";
}
);
layerId = "013B1E1E-EC1A-4004-9A9E-28013B12321E";
shapes = (
{
closed = 1;
nodes = (
(22,0,l),
(348,0,l),
(348,114,l),
(146,114,l),
(344,586,l),
(344,700,l),
(32,700,l),
(32,586,l),
(220,586,l),
(22,114,l)
);
}
);
width = 367;
},
{
anchors = (
{
name = b.uni0324_2;
position = "{259, 0}";
},
{
name = m.uni0308_1;
position = "{259, 700}";
}
);
layerId = "0F8D56E4-D9E3-4FE5-8622-D887DCE8F82E";
shapes = (
{
closed = 1;
nodes = (
(41,0,l),
(492,0,l),
(492,68,l),
(126,68,l),
(488,632,l),
(488,700,l),
(54,700,l),
(54,632,l),
(403,632,l),
(41,68,l)
);
}
);
width = 528;
},
{
anchors = (
{
name = b.uni0324_2;
position = "{112, 0}";
},
{
name = m.uni0308_1;
position = "{112, 700}";
}
);
layerId = "301B1BEE-A3B7-420C-AFCF-2213D48A32DD";
shapes = (
{
closed = 1;
nodes = (
(31,0,l),
(367,0,l),
(367,67,l),
(103,67,l),
(359,633,l),
(359,700,l),
(42,700,l),
(42,633,l),
(286,633,l),
(31,67,l)
);
}
);
width = 394;
},
{
anchors = (
{
name = b.uni0324_2;
position = "{259, 0}";
},
{
name = m.uni0308_1;
position = "{259, 700}";
}
);
layerId = "B98D4703-DDC7-495E-B040-47EC823CED71";
shapes = (
{
closed = 1;
nodes = (
(48,0,l),
(494,0,l),
(494,35,l),
(92,35,l),
(493,665,l),
(493,700,l),
(65,700,l),
(65,665,l),
(448,665,l),
(48,35,l)
);
}
);
width = 535;
},
{
anchors = (
{
name = b.uni0324_2;
position = "{67, 0}";
},
{
name = m.uni0308_1;
position = "{67, 700}";
}
);
layerId = "8C36FF45-EE0D-47F3-80A1-ABABB257461F";
shapes = (
{
closed = 1;
nodes = (
(37,0,l),
(380,0,l),
(380,36,l),
(74,36,l),
(369,664,l),
(369,700,l),
(49,700,l),
(49,664,l),
(330,664,l),
(37,36,l)
);
}
);
width = 412;
}
);
unicode = 90;
},
{
glyphname = AE;
layers = (
{
anchors = (
{
name = b.uni0324_2;
position = "{452, 0}";
},
{
name = m.uni0308_1;
position = "{452, 707}";
}
);
layerId = "FC56AA79-0F4D-414B-B093-B262B77ED935";
shapes = (
{
closed = 1;
nodes = (
(2,0,l),
(183,0,l),
(235,123,l),
(425,123,l),
(425,0,l),
(888,0,l),
(888,150,l),
(600,150,l),
(600,279,l),
(847,279,l),
(847,430,l),
(600,430,l),
(600,557,l),
(888,557,l),
(888,707,l),
(326,707,l)
);
},
{
closed = 1;
nodes = (
(302,267,l),
(425,560,l),
(425,267,l)
);
}
);
width = 916;
},
{
anchors = (
{
name = b.uni0324_2;
position = "{418, 0}";
},
{
name = m.uni0308_1;
position = "{418, 709}";
}
);
layerId = "386C80E5-B742-4DC4-8C1D-118FE705019B";
shapes = (
{
closed = 1;
nodes = (
(4,0,l),
(170,0,l),
(203,109,l),
(349,109,l),
(349,0,l),
(671,0,l),
(671,144,l),
(509,144,l),
(509,288,l),
(651,288,l),
(651,431,l),
(509,431,l),
(509,562,l),
(671,562,l),
(671,707,l),
(242,707,l)
);
},
{
closed = 1;
nodes = (
(253,254,l),
(349,562,l),
(349,254,l)
);
}
);
width = 689;
},
{
anchors = (
{
name = b.uni0324_2;
position = "{452, 0}";
},
{
name = m.uni0308_1;
position = "{452, 707}";
}
);
layerId = "A1491DFB-4D7B-4F46-84CC-0E934EA2699F";
shapes = (
{
closed = 1;
nodes = (
(4,0,l),
(145,0,l),
(214,144,l),
(429,144,l),
(429,0,l),
(868,0,l),
(868,117,l),
(564,117,l),
(564,298,l),
(822,298,l),
(822,415,l),
(564,415,l),
(564,590,l),
(868,590,l),
(868,707,l),
(352,707,l)
);
},
{
closed = 1;
nodes = (
(268,256,l),
(429,593,l),
(429,256,l)
);
}
);
width = 904;
},
{
anchors = (
{
name = b.uni0324_2;
position = "{357, 0}";
},
{
name = m.uni0308_1;
position = "{357, 714}";
}
);
layerId = "013B1E1E-EC1A-4004-9A9E-28013B12321E";
shapes = (
{
closed = 1;
nodes = (
(6,0,l),
(137,0,l),
(187,136,l),
(354,136,l),
(354,0,l),
(670,0,l),
(670,113,l),
(480,113,l),
(480,303,l),
(644,303,l),
(644,416,l),
(480,416,l),
(480,593,l),
(670,593,l),
(670,707,l),
(272,707,l)
);
},
{
closed = 1;
nodes = (
(228,249,l),
(354,594,l),
(354,249,l)
);
}
);
width = 695;
},
{
anchors = (
{
name = b.uni0324_2;
position = "{452, 0}";
},
{
name = m.uni0308_1;
position = "{452, 707}";
}
);
layerId = "0F8D56E4-D9E3-4FE5-8622-D887DCE8F82E";
shapes = (
{
closed = 1;
nodes = (
(7,0,l),
(88,0,l),
(182,175,l),
(435,175,l),
(435,0,l),
(838,0,l),
(838,68,l),
(510,68,l),
(510,326,l),
(785,326,l),
(785,393,l),
(510,393,l),
(510,639,l),
(838,639,l),
(838,707,l),
(391,707,l)
);
},
{
closed = 1;
nodes = (
(217,239,l),
(435,642,l),
(435,239,l)
);
}
);
width = 886;
},
{
anchors = (
{
name = b.uni0324_2;
position = "{266, 0}";
},
{
name = m.uni0308_1;
position = "{266, 721}";
}
);
layerId = "301B1BEE-A3B7-420C-AFCF-2213D48A32DD";
shapes = (
{
closed = 1;
nodes = (
(9,0,l),
(87,0,l),
(163,176,l),
(362,176,l),
(362,0,l),
(668,0,l),
(668,67,l),
(436,67,l),
(436,326,l),
(634,326,l),
(634,393,l),
(436,393,l),
(436,640,l),
(668,640,l),
(668,707,l),
(317,707,l)
);
},
{
closed = 1;
nodes = (
(190,242,l),
(362,642,l),
(362,242,l)
);
}
);
width = 704;
},
{
anchors = (
{
name = b.uni0324_2;
position = "{452, 0}";
},
{
name = m.uni0308_1;
position = "{452, 707}";
}
);
layerId = "B98D4703-DDC7-495E-B040-47EC823CED71";
shapes = (
{
closed = 1;
nodes = (
(9,0,l),
(50,0,l),
(161,196,l),
(439,196,l),
(439,0,l),
(818,0,l),
(818,35,l),
(474,35,l),
(474,345,l),
(760,345,l),
(760,378,l),
(474,378,l),
(474,672,l),
(818,672,l),
(818,707,l),
(417,707,l)
);
},
{
closed = 1;
nodes = (
(183,228,l),
(439,675,l),
(439,228,l)
);
}
);
width = 874;
},
{
anchors = (
{
name = b.uni0324_2;
position = "{205, 0}";
},
{
name = m.uni0308_1;
position = "{205, 726}";
}
);
layerId = "8C36FF45-EE0D-47F3-80A1-ABABB257461F";
shapes = (
{
closed = 1;
nodes = (
(11,0,l),
(54,0,l),
(147,203,l),
(367,203,l),
(367,0,l),
(667,0,l),
(667,36,l),
(407,36,l),
(407,341,l),
(627,341,l),
(627,378,l),
(407,378,l),
(407,671,l),
(667,671,l),
(667,707,l),
(347,707,l)
);
},
{
closed = 1;
nodes = (
(165,237,l),
(367,674,l),
(367,237,l)
);
}
);
width = 710;
}
);
unicode = 198;
},
{
glyphname = OE;
layers = (
{
anchors = (
{
name = b.uni0324_2;
position = "{446, 0}";
},
{
name = m.uni0308_1;
position = "{446, 707}";
}
);
layerId = "FC56AA79-0F4D-414B-B093-B262B77ED935";
shapes = (
{
closed = 1;
nodes = (
(327,-8,o),
(369,1,o),
(410,20,c),
(410,0,l),
(850,0,l),
(850,150,l),
(568,150,l),
(567,279,l),
(808,279,l),
(808,430,l),
(567,430,l),
(568,557,l),
(850,557,l),
(850,707,l),
(410,707,l),
(410,689,l),
(369,708,o),
(327,718,o),
(285,718,cs),
(107,718,o),
(40,590,o),
(40,428,cs),
(40,280,ls),
(40,100,o),
(116,-8,o),
(284,-8,cs)
);
},
{
closed = 1;
nodes = (
(215,419,ls),
(215,528,o),
(238,566,o),
(305,566,cs),
(369,566,o),
(394,524,o),
(394,419,cs),
(394,286,ls),
(394,186,o),
(366,147,o),
(305,147,cs),
(238,147,o),
(215,183,o),
(215,286,cs)
);
}
);
width = 876;
},
{
anchors = (
{
name = b.uni0324_2;
position = "{388, 0}";
},
{
name = m.uni0308_1;
position = "{388, 709}";
}
);
layerId = "386C80E5-B742-4DC4-8C1D-118FE705019B";
shapes = (
{
closed = 1;
nodes = (
(243,-8,o),
(276,1,o),
(307,20,c),
(307,0,l),
(610,0,l),
(610,144,l),
(443,144,l),
(443,288,l),
(587,288,l),
(587,431,l),
(443,431,l),
(443,562,l),
(610,562,l),
(610,707,l),
(307,707,l),
(307,696,l),
(276,710,o),
(246,717,o),
(217,717,cs),
(89,717,o),
(30,645,o),
(30,520,cs),
(30,188,ls),
(30,56,o),
(90,-8,o),
(207,-8,cs)
);
},
{
closed = 1;
nodes = (
(190,492,ls),
(190,548,o),
(201,572,o),
(238,572,cs),
(273,572,o),
(283,545,o),
(283,492,cs),
(283,212,ls),
(283,163,o),
(266,136,o),
(238,136,c),
(206,137,o),
(190,161,o),
(190,212,cs)
);
}
);
width = 627;
},
{
anchors = (
{
name = b.uni0324_2;
position = "{446, 0}";
},
{
name = m.uni0308_1;
position = "{446, 707}";
}
);
layerId = "A1491DFB-4D7B-4F46-84CC-0E934EA2699F";
shapes = (
{
closed = 1;
nodes = (
(350,-8,o),
(398,5,o),
(439,32,c),
(439,0,l),
(856,0,l),
(856,117,l),
(563,117,l),
(563,298,l),
(810,298,l),
(810,415,l),
(563,415,l),
(563,590,l),
(856,590,l),
(856,707,l),
(439,707,l),
(439,676,l),
(398,703,o),
(350,717,o),
(296,717,cs),
(121,717,o),
(51,597,o),
(51,435,cs),
(51,273,ls),
(51,94,o),
(131,-8,o),
(295,-8,cs)
);
},
{
closed = 1;
nodes = (
(186,428,ls),
(186,551,o),
(223,599,o),
(308,599,cs),
(392,599,o),
(429,547,o),
(429,428,cs),
(429,275,ls),
(429,162,o),
(391,112,o),
(308,112,cs),
(223,112,o),
(186,159,o),
(186,275,cs)
);
}
);
width = 891;
},
{
anchors = (
{
name = b.uni0324_2;
position = "{317, 0}";
},
{
name = m.uni0308_1;
position = "{317, 714}";
}
);
layerId = "013B1E1E-EC1A-4004-9A9E-28013B12321E";
shapes = (
{
closed = 1;
nodes = (
(263,-8,o),
(301,4,o),
(332,29,c),
(332,0,l),
(631,0,l),
(631,113,l),
(440,113,l),
(440,303,l),
(604,303,l),
(604,416,l),
(440,416,l),
(440,593,l),
(631,593,l),
(631,707,l),
(332,707,l),
(332,685,l),
(301,706,o),
(265,717,o),
(226,717,cs),
(96,717,o),
(39,637,o),
(39,513,cs),
(39,195,ls),
(39,60,o),
(103,-8,o),
(220,-8,cs)
);
},
{
closed = 1;
nodes = (
(165,493,ls),
(165,568,o),
(188,603,o),
(241,603,cs),
(292,603,o),
(314,566,o),
(314,493,cs),
(314,209,ls),
(314,141,o),
(288,105,o),
(241,105,c),
(190,106,o),
(165,140,o),
(165,209,cs)
);
}
);
width = 656;
},
{
anchors = (
{
name = b.uni0324_2;
position = "{446, 0}";
},
{
name = m.uni0308_1;
position = "{446, 707}";
}
);
layerId = "0F8D56E4-D9E3-4FE5-8622-D887DCE8F82E";
shapes = (
{
closed = 1;
nodes = (
(384,-8,o),
(441,11,o),
(482,50,c),
(482,0,l),
(865,0,l),
(865,68,l),
(556,68,l),
(557,326,l),
(813,326,l),
(813,393,l),
(557,393,l),
(556,639,l),
(865,639,l),
(865,707,l),
(482,707,l),
(482,657,l),
(441,696,o),
(384,716,o),
(312,716,cs),
(141,716,o),
(68,607,o),
(68,445,cs),
(68,262,ls),
(68,86,o),
(154,-8,o),
(311,-8,cs)
);
},
{
closed = 1;
nodes = (
(142,442,ls),
(142,585,o),
(198,648,o),
(313,648,cs),
(426,648,o),
(482,579,o),
(482,442,cs),
(482,258,ls),
(482,126,o),
(426,60,o),
(313,60,cs),
(200,60,o),
(142,123,o),
(142,258,cs)
);
}
);
width = 914;
},
{
anchors = (
{
name = b.uni0324_2;
position = "{210, 0}";
},
{
name = m.uni0308_1;
position = "{210, 721}";
}
);
layerId = "301B1BEE-A3B7-420C-AFCF-2213D48A32DD";
shapes = (
{
closed = 1;
nodes = (
(294,-8,o),
(337,9,o),
(369,43,c),
(369,0,l),
(663,0,l),
(663,67,l),
(435,67,l),
(435,326,l),
(629,326,l),
(629,393,l),
(435,393,l),
(435,640,l),
(663,640,l),
(663,707,l),
(369,707,l),
(369,668,l),
(337,701,o),
(294,717,o),
(239,717,cs),
(107,717,o),
(53,624,o),
(53,502,cs),
(53,206,ls),
(53,67,o),
(122,-8,o),
(239,-8,cs)
);
},
{
closed = 1;
nodes = (
(128,495,ls),
(128,598,o),
(167,649,o),
(246,649,cs),
(321,649,o),
(361,598,o),
(361,495,cs),
(361,205,ls),
(361,108,o),
(321,59,o),
(246,59,cs),
(167,60,o),
(128,108,o),
(128,205,cs)
);
}
);
width = 699;
},
{
anchors = (
{
name = b.uni0324_2;
position = "{446, 0}";
},
{
name = m.uni0308_1;
position = "{446, 707}";
}
);
layerId = "B98D4703-DDC7-495E-B040-47EC823CED71";
shapes = (
{
closed = 1;
nodes = (
(407,-8,o),
(470,15,o),
(511,62,c),
(511,0,l),
(871,0,l),
(871,35,l),
(551,35,l),
(553,345,l),
(815,345,l),
(815,378,l),
(553,378,l),
(551,672,l),
(871,672,l),
(871,707,l),
(511,707,l),
(511,644,l),
(470,691,o),
(407,715,o),
(323,715,cs),
(153,715,o),
(79,615,o),
(79,452,cs),
(79,255,ls),
(79,80,o),
(169,-8,o),
(322,-8,cs)
);
},
{
closed = 1;
nodes = (
(113,451,ls),
(113,607,o),
(183,681,o),
(316,681,cs),
(449,681,o),
(517,602,o),
(517,451,cs),
(517,247,ls),
(517,102,o),
(451,25,o),
(316,25,cs),
(184,25,o),
(113,99,o),
(113,247,cs)
);
}
);
width = 929;
},
{
anchors = (
{
name = b.uni0324_2;
position = "{139, 0}";
},
{
name = m.uni0308_1;
position = "{139, 726}";
}
);
layerId = "8C36FF45-EE0D-47F3-80A1-ABABB257461F";
shapes = (
{
closed = 1;
nodes = (
(314,-8,o),
(361,12,o),
(394,52,c),
(394,0,l),
(684,0,l),
(684,36,l),
(432,36,l),
(432,341,l),
(646,341,l),
(646,378,l),
(432,378,l),
(432,671,l),
(684,671,l),
(684,707,l),
(394,707,l),
(394,657,l),
(361,697,o),
(313,717,o),
(248,717,cs),
(114,717,o),
(62,616,o),
(62,495,cs),
(62,213,ls),
(62,72,o),
(135,-8,o),
(252,-8,cs)
);
},
{
closed = 1;
nodes = (
(103,496,ls),
(103,617,o),
(154,680,o),
(249,680,cs),
(340,680,o),
(392,619,o),
(392,496,cs),
(392,202,ls),
(392,86,o),
(342,28,o),
(249,28,cs),
(152,29,o),
(103,86,o),
(103,202,cs)
);
}
);
width = 728;
}
);
leftKerningGroup = C;
unicode = 338;
},
{
glyphname = Thorn;
layers = (
{
anchors = (
{
name = b.uni0324_2;
position = "{290, 0}";
},
{
name = m.uni0308_1;
position = "{290, 707}";
}
);
layerId = "FC56AA79-0F4D-414B-B093-B262B77ED935";
shapes = (
{
closed = 1;
nodes = (
(45,0,l),
(220,0,l),
(220,146,l),
(324,146,ls),
(465,146,o),
(561,223,o),
(561,369,cs),
(561,516,o),
(468,598,o),
(324,598,cs),
(220,598,l),
(220,707,l),
(45,707,l)
);
},
{
closed = 1;
nodes = (
(220,295,l),
(220,448,l),
(317,448,ls),
(362,448,o),
(388,418,o),
(388,369,cs),
(388,326,o),
(357,295,o),
(317,295,cs)
);
}
);
width = 573;
},
{
anchors = (
{
name = b.uni0324_2;
position = "{264, 0}";
},
{
name = m.uni0308_1;
position = "{264, 709}";
}
);
layerId = "386C80E5-B742-4DC4-8C1D-118FE705019B";
shapes = (
{
closed = 1;
nodes = (
(31,0,l),
(190,0,l),
(190,132,l),
(228,132,ls),
(388,132,o),
(430,223,o),
(430,370,cs),
(430,518,o),
(387,603,o),
(228,603,cs),
(190,603,l),
(190,707,l),
(31,707,l)
);
},
{
closed = 1;
nodes = (
(190,276,l),
(190,458,l),
(224,458,ls),
(261,458,o),
(270,431,o),
(270,370,cs),
(270,302,o),
(261,276,o),
(224,276,cs)
);
}
);
width = 440;
},
{
anchors = (
{
name = b.uni0324_2;
position = "{290, 0}";
},
{
name = m.uni0308_1;
position = "{290, 707}";
}
);
layerId = "A1491DFB-4D7B-4F46-84CC-0E934EA2699F";
shapes = (
{
closed = 1;
nodes = (
(60,0,l),
(195,0,l),
(195,153,l),
(325,153,ls),
(461,153,o),
(556,227,o),
(556,368,cs),
(556,512,o),
(466,590,o),
(325,590,cs),
(195,590,l),
(195,707,l),
(60,707,l)
);
},
{
closed = 1;
nodes = (
(195,269,l),
(195,473,l),
(318,473,ls),
(385,473,o),
(422,436,o),
(422,368,cs),
(422,307,o),
(382,269,o),
(318,269,cs)
);
}
);
width = 580;
},
{
anchors = (
{
name = b.uni0324_2;
position = "{217, 0}";
},
{
name = m.uni0308_1;
position = "{217, 714}";
}
);
layerId = "013B1E1E-EC1A-4004-9A9E-28013B12321E";
shapes = (
{
closed = 1;
nodes = (
(43,0,l),
(168,0,l),
(168,147,l),
(233,147,ls),
(381,147,o),
(427,234,o),
(427,371,cs),
(427,509,o),
(382,593,o),
(233,593,cs),
(168,593,l),
(168,707,l),
(43,707,l)
);
},
{
closed = 1;
nodes = (
(168,260,l),
(168,479,l),
(229,479,ls),
(282,479,o),
(301,447,o),
(301,371,cs),
(301,292,o),
(282,260,o),
(229,260,cs)
);
}
);
width = 444;
},
{
anchors = (
{
name = b.uni0324_2;
position = "{290, 0}";
},
{
name = m.uni0308_1;
position = "{290, 707}";
}
);
layerId = "0F8D56E4-D9E3-4FE5-8622-D887DCE8F82E";
shapes = (
{
closed = 1;
nodes = (
(82,0,l),
(157,0,l),
(157,163,l),
(326,163,ls),
(454,163,o),
(548,233,o),
(548,367,cs),
(548,507,o),
(462,578,o),
(326,578,cs),
(157,578,l),
(157,707,l),
(82,707,l)
);
},
{
closed = 1;
nodes = (
(157,230,l),
(157,511,l),
(319,511,ls),
(419,511,o),
(473,462,o),
(473,367,cs),
(473,276,o),
(419,230,o),
(319,230,cs)
);
}
);
width = 590;
},
{
anchors = (
{
name = b.uni0324_2;
position = "{147, 0}";
},
{
name = m.uni0308_1;
position = "{147, 721}";
}
);
layerId = "301B1BEE-A3B7-420C-AFCF-2213D48A32DD";
shapes = (
{
closed = 1;
nodes = (
(61,0,l),
(135,0,l),
(135,170,l),
(241,170,ls),
(372,170,o),
(423,248,o),
(423,372,cs),
(423,498,o),
(376,578,o),
(241,578,cs),
(135,578,l),
(135,707,l),
(61,707,l)
);
},
{
closed = 1;
nodes = (
(135,236,l),
(135,511,l),
(237,511,ls),
(314,511,o),
(348,471,o),
(348,372,cs),
(348,277,o),
(313,236,o),
(237,236,cs)
);
}
);
width = 450;
},
{
anchors = (
{
name = b.uni0324_2;
position = "{290, 0}";
},
{
name = m.uni0308_1;
position = "{290, 707}";
}
);
layerId = "B98D4703-DDC7-495E-B040-47EC823CED71";
shapes = (
{
closed = 1;
nodes = (
(97,0,l),
(132,0,l),
(132,170,l),
(327,170,ls),
(449,170,o),
(543,238,o),
(543,366,cs),
(543,504,o),
(460,570,o),
(327,570,cs),
(132,570,l),
(132,707,l),
(97,707,l)
);
},
{
closed = 1;
nodes = (
(132,204,l),
(132,536,l),
(320,536,ls),
(441,536,o),
(507,479,o),
(507,366,cs),
(507,257,o),
(444,204,o),
(320,204,cs)
);
}
);
width = 597;
},
{
anchors = (
{
name = b.uni0324_2;
position = "{100, 0}";
},
{
name = m.uni0308_1;
position = "{100, 726}";
}
);
layerId = "8C36FF45-EE0D-47F3-80A1-ABABB257461F";
shapes = (
{
closed = 1;
nodes = (
(73,0,l),
(113,0,l),
(113,185,l),
(246,185,ls),
(366,185,o),
(420,258,o),
(420,373,cs),
(420,490,o),
(371,568,o),
(246,568,cs),
(113,568,l),
(113,707,l),
(73,707,l)
);
},
{
closed = 1;
nodes = (
(113,220,l),
(113,532,l),
(242,532,ls),
(335,532,o),
(379,486,o),
(379,373,cs),
(379,268,o),
(334,220,o),
(242,220,cs)
);
}
);
width = 454;
}
);
unicode = 222;
},
{
glyphname = a;
layers = (
{
anchors = (
{
name = b.uni0324_2;
position = "{257, 0}";
},
{
name = m.uni0308_1;
position = "{257, 530}";
},
{
name = m.uni0328;
position = "{462, 10}";
}
);
layerId = "FC56AA79-0F4D-414B-B093-B262B77ED935";
shapes = (
{
closed = 1;
nodes = (
(254,-6,o),
(276,8,o),
(316,40,c),
(316,0,l),
(475,0,l),
(475,348,ls),
(475,479,o),
(395,548,o),
(251,548,cs),
(124,548,o),
(43,483,o),
(43,375,cs),
(43,372,l),
(194,372,l),
(194,375,ls),
(194,404,o),
(217,423,o),
(248,423,cs),
(293,423,o),
(312,402,o),
(312,357,cs),
(312,327,l),
(217,327,ls),
(100,327,o),
(30,268,o),
(30,169,cs),
(30,62,o),
(93,-6,o),
(202,-6,cs)
);
},
{
closed = 1;
nodes = (
(188,202,o),
(208,216,o),
(245,216,cs),
(312,216,l),
(312,198,ls),
(312,150,o),
(291,127,o),
(243,127,cs),
(206,127,o),
(188,143,o),
(188,174,cs)
);
}
);
width = 516;
},
{
anchors = (
{
name = b.uni0324_2;
position = "{243, 0}";
},
{
name = m.uni0308_1;
position = "{243, 543}";
},
{
name = m.uni0328;
position = "{437, 10}";
}
);
layerId = "386C80E5-B742-4DC4-8C1D-118FE705019B";
shapes = (
{
closed = 1;
nodes = (
(204,-8,o),
(220,12,o),
(247,42,c),
(247,0,l),
(388,0,l),
(388,372,ls),
(388,485,o),
(324,556,o),
(212,556,cs),
(108,556,o),
(39,495,o),
(39,379,cs),
(39,378,l),
(178,378,l),
(178,386,ls),
(178,411,o),
(192,423,o),
(207,423,cs),
(227,423,o),
(236,409,o),
(236,385,cs),
(236,327,l),
(216,327,ls),
(95,327,o),
(24,272,o),
(24,165,cs),
(24,54,o),
(72,-8,o),
(161,-8,cs)
);
},
{
closed = 1;
nodes = (
(176,208,o),
(194,223,o),
(234,223,cs),
(236,223,l),
(236,169,ls),
(236,142,o),
(223,124,o),
(208,124,c),
(187,123,o),
(176,140,o),
(176,173,cs)
);
}
);
width = 417;
},
{
anchors = (
{
name = b.uni0324_2;
position = "{257, 0}";
},
{
name = m.uni0308_1;
position = "{257, 530}";
},
{
name = m.uni0328;
position = "{462, 10}";
}
);
layerId = "A1491DFB-4D7B-4F46-84CC-0E934EA2699F";
shapes = (
{
closed = 1;
nodes = (
(263,-6,o),
(297,8,o),
(335,46,c),
(335,0,l),
(458,0,l),
(458,350,ls),
(458,475,o),
(384,539,o),
(248,539,cs),
(128,539,o),
(51,477,o),
(51,377,cs),
(51,373,l),
(169,373,l),
(169,376,ls),
(169,416,o),
(201,441,o),
(247,441,cs),
(304,441,o),
(332,413,o),
(332,356,cs),
(332,317,l),
(219,317,ls),
(106,317,o),
(37,256,o),
(37,160,cs),
(37,56,o),
(99,-6,o),
(209,-6,cs)
);
},
{
closed = 1;
nodes = (
(160,206,o),
(187,225,o),
(240,225,cs),
(332,225,l),
(332,189,ls),
(332,126,o),
(303,96,o),
(238,96,cs),
(186,96,o),
(160,119,o),
(160,163,cs)
);
}
);
width = 513;
},
{
anchors = (
{
name = b.uni0324_2;
position = "{210, 0}";
},
{
name = m.uni0308_1;
position = "{210, 550}";
},
{
name = m.uni0328;
position = "{378, 10}";
}
);
layerId = "013B1E1E-EC1A-4004-9A9E-28013B12321E";
shapes = (
{
closed = 1;
nodes = (
(211,-8,o),
(236,12,o),
(262,45,c),
(262,0,l),
(373,0,l),
(373,377,ls),
(373,485,o),
(314,549,o),
(207,549,cs),
(109,549,o),
(45,491,o),
(45,387,cs),
(45,383,l),
(155,383,l),
(155,391,ls),
(155,425,o),
(174,444,o),
(204,444,cs),
(238,444,o),
(254,424,o),
(254,386,cs),
(254,319,l),
(209,319,ls),
(96,319,o),
(31,262,o),
(31,159,cs),
(31,52,o),
(79,-8,o),
(167,-8,cs)
);
},
{
closed = 1;
nodes = (
(150,212,o),
(174,231,o),
(223,231,cs),
(254,231,l),
(254,162,ls),
(254,120,o),
(233,95,o),
(202,95,c),
(167,95,o),
(150,118,o),
(150,164,cs)
);
}
);
width = 414;
},
{
anchors = (
{
name = b.uni0324_2;
position = "{257, 0}";
},
{
name = m.uni0308_1;
position = "{257, 530}";
},
{
name = m.uni0328;
position = "{462, 10}";
}
);
layerId = "0F8D56E4-D9E3-4FE5-8622-D887DCE8F82E";
shapes = (
{
closed = 1;
nodes = (
(276,-6,o),
(328,8,o),
(364,55,c),
(364,0,l),
(432,0,l),
(432,353,ls),
(432,468,o),
(368,526,o),
(244,526,cs),
(133,526,o),
(63,468,o),
(63,380,cs),
(63,375,l),
(131,375,l),
(131,378,ls),
(131,434,o),
(176,468,o),
(245,468,cs),
(321,468,o),
(362,430,o),
(362,354,cs),
(362,299,l),
(222,299,ls),
(114,299,o),
(48,238,o),
(48,146,cs),
(48,47,o),
(109,-6,o),
(220,-6,cs)
);
},
{
closed = 1;
nodes = (
(118,211,o),
(156,240,o),
(232,240,cs),
(362,240,l),
(362,176,ls),
(362,91,o),
(322,50,o),
(231,50,cs),
(156,50,o),
(118,82,o),
(118,147,cs)
);
}
);
width = 508;
},
{
anchors = (
{
name = b.uni0324_2;
position = "{161, 0}";
},
{
name = m.uni0308_1;
position = "{161, 560}";
},
{
name = m.uni0328;
position = "{290, 10}";
}
);
layerId = "301B1BEE-A3B7-420C-AFCF-2213D48A32DD";
shapes = (
{
closed = 1;
nodes = (
(221,-8,o),
(260,11,o),
(284,49,c),
(284,0,l),
(350,0,l),
(350,384,ls),
(350,484,o),
(298,538,o),
(199,538,cs),
(110,538,o),
(54,484,o),
(54,399,cs),
(54,390,l),
(120,390,l),
(120,398,ls),
(120,447,o),
(148,476,o),
(199,476,cs),
(254,476,o),
(281,446,o),
(281,387,cs),
(281,308,l),
(199,308,ls),
(98,308,o),
(41,246,o),
(41,150,cs),
(41,49,o),
(89,-8,o),
(176,-8,cs)
);
},
{
closed = 1;
nodes = (
(111,218,o),
(143,244,o),
(206,244,cs),
(281,244,l),
(281,152,ls),
(281,88,o),
(248,52,o),
(193,52,c),
(138,53,o),
(111,86,o),
(111,151,cs)
);
}
);
width = 410;
},
{
anchors = (
{
name = b.uni0324_2;
position = "{257, 0}";
},
{
name = m.uni0308_1;
position = "{257, 530}";
},
{
name = m.uni0328;
position = "{462, 10}";
}
);
layerId = "B98D4703-DDC7-495E-B040-47EC823CED71";
shapes = (
{
closed = 1;
nodes = (
(285,-6,o),
(350,9,o),
(383,61,c),
(383,0,l),
(415,0,l),
(415,355,ls),
(415,463,o),
(357,517,o),
(241,517,cs),
(137,517,o),
(71,462,o),
(71,382,cs),
(71,376,l),
(106,376,l),
(106,379,ls),
(106,446,o),
(159,486,o),
(244,486,cs),
(332,486,o),
(382,441,o),
(382,353,cs),
(382,282,l),
(224,282,ls),
(120,282,o),
(55,226,o),
(55,137,cs),
(55,41,o),
(116,-6,o),
(227,-6,cs)
);
},
{
closed = 1;
nodes = (
(90,215,o),
(135,251,o),
(227,251,cs),
(382,251,l),
(382,167,ls),
(382,67,o),
(334,23,o),
(226,23,cs),
(135,23,o),
(90,61,o),
(90,136,cs)
);
}
);
width = 505;
},
{
anchors = (
{
name = b.uni0324_2;
position = "{128, 0}";
},
{
name = m.uni0308_1;
position = "{128, 567}";
},
{
name = m.uni0328;
position = "{231, 10}";
}
);
layerId = "8C36FF45-EE0D-47F3-80A1-ABABB257461F";
shapes = (
{
closed = 1;
nodes = (
(228,-8,o),
(277,10,o),
(299,52,c),
(299,0,l),
(335,0,l),
(335,389,ls),
(335,484,o),
(287,531,o),
(194,531,cs),
(110,531,o),
(60,480,o),
(60,407,cs),
(60,395,l),
(97,395,l),
(97,403,ls),
(97,462,o),
(131,497,o),
(196,497,cs),
(264,497,o),
(299,460,o),
(299,388,cs),
(299,294,l),
(192,294,ls),
(99,294,o),
(48,236,o),
(48,144,cs),
(48,47,o),
(97,-8,o),
(182,-8,cs)
);
},
{
closed = 1;
nodes = (
(85,222,o),
(123,259,o),
(195,259,cs),
(299,259,l),
(299,145,ls),
(299,66,o),
(258,22,o),
(187,23,cs),
(119,24,o),
(85,63,o),
(85,142,cs)
);
}
);
width = 407;
}
);
leftKerningGroup = a2;
rightKerningGroup = a;
unicode = 97;
},
{
glyphname = b;
layers = (
{
anchors = (
{
name = b.uni0324_2;
position = "{264, 0}";
},
{
name = m.uni0308_1;
position = "{264, 530}";
}
);
layerId = "FC56AA79-0F4D-414B-B093-B262B77ED935";
shapes = (
{
closed = 1;
nodes = (
(425,-6,o),
(494,75,o),
(494,219,cs),
(494,323,ls),
(494,468,o),
(423,548,o),
(314,548,cs),
(271,548,o),
(237,531,o),
(206,499,c),
(206,707,l),
(40,707,l),
(40,0,l),
(201,0,l),
(201,36,l),
(233,7,o),
(270,-6,o),
(317,-6,cs)
);
},
{
closed = 1;
nodes = (
(204,321,ls),
(204,373,o),
(232,401,o),
(267,401,cs),
(304,401,o),
(329,378,o),
(329,317,cs),
(329,223,ls),
(329,168,o),
(309,139,o),
(269,139,cs),
(229,139,o),
(204,165,o),
(204,222,cs)
);
}
);
width = 530;
},
{
anchors = (
{
name = b.uni0324_2;
position = "{246, 0}";
},
{
name = m.uni0308_1;
position = "{246, 543}";
}
);
layerId = "386C80E5-B742-4DC4-8C1D-118FE705019B";
shapes = (
{
closed = 1;
nodes = (
(339,-8,o),
(388,48,o),
(388,164,cs),
(388,385,ls),
(388,504,o),
(344,556,o),
(267,556,c),
(226,557,o),
(198,543,o),
(182,511,c),
(182,707,l),
(30,707,l),
(30,0,l),
(175,0,l),
(175,31,l),
(204,3,o),
(230,-8,o),
(263,-8,cs)
);
},
{
closed = 1;
nodes = (
(178,358,ls),
(178,405,o),
(187,420,o),
(206,420,cs),
(226,420,o),
(236,404,o),
(236,357,cs),
(236,190,ls),
(236,145,o),
(227,127,o),
(206,127,cs),
(187,127,o),
(178,147,o),
(178,191,cs)
);
}
);
width = 418;
},
{
anchors = (
{
name = b.uni0324_2;
position = "{264, 0}";
},
{
name = m.uni0308_1;
position = "{264, 530}";
}
);
layerId = "A1491DFB-4D7B-4F46-84CC-0E934EA2699F";
shapes = (
{
closed = 1;
nodes = (
(413,-6,o),
(481,73,o),
(481,214,cs),
(481,319,ls),
(481,463,o),
(412,539,o),
(301,539,cs),
(252,539,o),
(211,518,o),
(182,478,c),
(182,707,l),
(55,707,l),
(55,0,l),
(179,0,l),
(179,49,l),
(210,12,o),
(252,-6,o),
(305,-6,cs)
);
},
{
closed = 1;
nodes = (
(181,314,ls),
(181,385,o),
(216,426,o),
(269,426,cs),
(324,426,o),
(354,391,o),
(354,314,cs),
(354,218,ls),
(354,145,o),
(327,106,o),
(272,106,cs),
(215,106,o),
(181,146,o),
(181,218,cs)
);
}
);
width = 527;
},
{
anchors = (
{
name = b.uni0324_2;
position = "{213, 0}";
},
{
name = m.uni0308_1;
position = "{213, 550}";
}
);
layerId = "013B1E1E-EC1A-4004-9A9E-28013B12321E";
shapes = (
{
closed = 1;
nodes = (
(331,-8,o),
(381,50,o),
(381,167,cs),
(381,374,ls),
(381,493,o),
(333,549,o),
(252,549,cs),
(211,549,o),
(180,533,o),
(161,498,c),
(161,707,l),
(42,707,l),
(42,0,l),
(157,0,l),
(157,38,l),
(184,6,o),
(213,-8,o),
(250,-8,cs)
);
},
{
closed = 1;
nodes = (
(159,354,ls),
(159,415,o),
(176,442,o),
(211,442,cs),
(244,442,o),
(262,415,o),
(262,354,cs),
(262,186,ls),
(262,123,o),
(246,98,o),
(211,98,cs),
(176,98,o),
(159,127,o),
(159,186,cs)
);
}
);
width = 419;
},
{
anchors = (
{
name = b.uni0324_2;
position = "{264, 0}";
},
{
name = m.uni0308_1;
position = "{264, 530}";
}
);
layerId = "0F8D56E4-D9E3-4FE5-8622-D887DCE8F82E";
shapes = (
{
closed = 1;
nodes = (
(395,-6,o),
(462,70,o),
(462,207,cs),
(462,313,ls),
(462,456,o),
(394,526,o),
(282,526,cs),
(222,526,o),
(174,498,o),
(146,446,c),
(146,707,l),
(77,707,l),
(77,0,l),
(146,0,l),
(146,69,l),
(175,20,o),
(223,-6,o),
(287,-6,cs)
);
},
{
closed = 1;
nodes = (
(146,303,ls),
(146,402,o),
(191,463,o),
(272,463,cs),
(352,463,o),
(392,412,o),
(392,309,cs),
(392,211,ls),
(392,108,o),
(353,56,o),
(276,56,cs),
(193,56,o),
(146,117,o),
(146,212,cs)
);
}
);
width = 522;
},
{
anchors = (
{
name = b.uni0324_2;
position = "{163, 0}";
},
{
name = m.uni0308_1;
position = "{163, 560}";
}
);
layerId = "301B1BEE-A3B7-420C-AFCF-2213D48A32DD";
shapes = (
{
closed = 1;
nodes = (
(319,-8,o),
(371,52,o),
(371,172,cs),
(371,357,ls),
(371,476,o),
(317,538,o),
(230,538,c),
(187,537,o),
(153,517,o),
(130,478,c),
(130,707,l),
(60,707,l),
(60,0,l),
(130,0,l),
(130,48,l),
(153,11,o),
(187,-8,o),
(231,-8,cs)
);
},
{
closed = 1;
nodes = (
(130,348,ls),
(130,432,o),
(161,475,o),
(218,475,cs),
(273,475,o),
(301,433,o),
(301,349,cs),
(301,180,ls),
(301,91,o),
(273,54,o),
(218,54,cs),
(161,54,o),
(130,98,o),
(130,179,cs)
);
}
);
width = 421;
},
{
anchors = (
{
name = b.uni0324_2;
position = "{264, 0}";
},
{
name = m.uni0308_1;
position = "{264, 530}";
}
);
layerId = "B98D4703-DDC7-495E-B040-47EC823CED71";
shapes = (
{
closed = 1;
nodes = (
(383,-6,o),
(449,67,o),
(449,202,cs),
(449,309,ls),
(449,450,o),
(382,517,o),
(269,517,cs),
(202,517,o),
(149,485,o),
(122,425,c),
(122,707,l),
(92,707,l),
(92,0,l),
(124,0,l),
(124,82,l),
(152,25,o),
(204,-6,o),
(275,-6,cs)
);
},
{
closed = 1;
nodes = (
(123,296,ls),
(123,413,o),
(174,488,o),
(274,488,cs),
(371,488,o),
(417,425,o),
(417,306,cs),
(417,206,ls),
(417,85,o),
(371,23,o),
(279,23,cs),
(179,23,o),
(123,99,o),
(123,208,cs)
);
}
);
width = 519;
},
{
anchors = (
{
name = b.uni0324_2;
position = "{130, 0}";
},
{
name = m.uni0308_1;
position = "{130, 567}";
}
);
layerId = "8C36FF45-EE0D-47F3-80A1-ABABB257461F";
shapes = (
{
closed = 1;
nodes = (
(311,-8,o),
(364,54,o),
(364,175,cs),
(364,346,ls),
(364,465,o),
(306,531,o),
(215,531,c),
(172,528,o),
(134,506,o),
(109,465,c),
(109,707,l),
(72,707,l),
(72,0,l),
(112,0,l),
(112,55,l),
(132,14,o),
(170,-8,o),
(218,-8,cs)
);
},
{
closed = 1;
nodes = (
(111,344,ls),
(111,443,o),
(150,497,o),
(223,497,cs),
(291,497,o),
(327,445,o),
(327,346,cs),
(327,176,ls),
(327,69,o),
(291,25,o),
(223,25,cs),
(150,25,o),
(111,78,o),
(111,174,cs)
);
}
);
width = 422;
}
);
leftKerningGroup = b2;
rightKerningGroup = b;
unicode = 98;
},
{
glyphname = c;
layers = (
{
anchors = (
{
name = b.uni0324_2;
position = "{259, 0}";
},
{
name = m.uni0308_1;
position = "{259, 530}";
}
);
layerId = "FC56AA79-0F4D-414B-B093-B262B77ED935";
shapes = (
{
closed = 1;
nodes = (
(391,-6,o),
(482,57,o),
(482,194,cs),
(482,203,l),
(325,203,l),
(325,196,ls),
(325,160,o),
(304,139,o),
(264,139,cs),
(225,139,o),
(200,167,o),
(200,223,cs),
(200,317,ls),
(200,368,o),
(220,401,o),
(263,401,cs),
(303,401,o),
(325,377,o),
(325,340,cs),
(325,333,l),
(482,333,l),
(482,346,ls),
(482,473,o),
(403,548,o),
(262,548,cs),
(119,548,o),
(37,470,o),
(37,318,cs),
(37,224,ls),
(37,73,o),
(120,-6,o),
(261,-6,cs)
);
}
);
width = 518;
},
{
anchors = (
{
name = b.uni0324_2;
position = "{242, 0}";
},
{
name = m.uni0308_1;
position = "{242, 543}";
}
);
layerId = "386C80E5-B742-4DC4-8C1D-118FE705019B";
shapes = (
{
closed = 1;
nodes = (
(331,-8,o),
(385,59,o),
(385,177,cs),
(385,197,l),
(240,197,l),
(240,178,ls),
(240,143,o),
(228,127,o),
(209,127,cs),
(193,127,o),
(183,150,o),
(183,190,cs),
(183,357,ls),
(183,402,o),
(191,420,o),
(210,420,cs),
(230,420,o),
(240,403,o),
(240,372,cs),
(240,351,l),
(385,351,l),
(385,376,ls),
(385,496,o),
(326,556,o),
(211,556,cs),
(88,556,o),
(31,497,o),
(31,350,cs),
(31,197,ls),
(31,53,o),
(89,-8,o),
(210,-8,cs)
);
}
);
width = 415;
},
{
anchors = (
{
name = b.uni0324_2;
position = "{259, 0}";
},
{
name = m.uni0308_1;
position = "{259, 530}";
}
);
layerId = "A1491DFB-4D7B-4F46-84CC-0E934EA2699F";
shapes = (
{
closed = 1;
nodes = (
(382,-6,o),
(471,56,o),
(471,183,cs),
(471,190,l),
(350,190,l),
(350,184,ls),
(350,135,o),
(319,106,o),
(264,106,cs),
(205,106,o),
(172,141,o),
(172,218,cs),
(172,314,ls),
(172,389,o),
(203,426,o),
(264,426,cs),
(319,426,o),
(350,396,o),
(350,345,cs),
(350,339,l),
(471,339,l),
(471,349,ls),
(471,468,o),
(394,539,o),
(262,539,cs),
(126,539,o),
(46,464,o),
(46,316,cs),
(46,217,ls),
(46,69,o),
(126,-6,o),
(262,-6,cs)
);
}
);
width = 517;
},
{
anchors = (
{
name = b.uni0324_2;
position = "{209, 0}";
},
{
name = m.uni0308_1;
position = "{209, 550}";
}
);
layerId = "013B1E1E-EC1A-4004-9A9E-28013B12321E";
shapes = (
{
closed = 1;
nodes = (
(327,-8,o),
(378,60,o),
(378,171,cs),
(378,188,l),
(263,188,l),
(263,171,ls),
(263,122,o),
(245,98,o),
(210,98,cs),
(177,98,o),
(158,126,o),
(158,186,cs),
(158,354,ls),
(158,417,o),
(175,442,o),
(211,442,cs),
(246,442,o),
(263,418,o),
(263,371,cs),
(263,352,l),
(378,352,l),
(378,373,ls),
(378,490,o),
(320,549,o),
(211,549,cs),
(96,549,o),
(39,489,o),
(39,353,cs),
(39,187,ls),
(39,52,o),
(96,-8,o),
(211,-8,cs)
);
}
);
width = 416;
},
{
anchors = (
{
name = b.uni0324_2;
position = "{259, 0}";
},
{
name = m.uni0308_1;
position = "{259, 530}";
}
);
layerId = "0F8D56E4-D9E3-4FE5-8622-D887DCE8F82E";
shapes = (
{
closed = 1;
nodes = (
(371,-6,o),
(455,53,o),
(455,167,cs),
(455,171,l),
(387,171,l),
(387,166,ls),
(387,97,o),
(340,56,o),
(264,56,cs),
(176,56,o),
(130,102,o),
(130,211,cs),
(130,309,ls),
(130,420,o),
(177,463,o),
(265,463,cs),
(342,463,o),
(387,424,o),
(387,353,cs),
(387,348,l),
(455,348,l),
(455,353,ls),
(455,460,o),
(381,526,o),
(262,526,cs),
(137,526,o),
(60,456,o),
(60,313,cs),
(60,207,ls),
(60,63,o),
(135,-6,o),
(263,-6,cs)
);
}
);
width = 515;
},
{
anchors = (
{
name = b.uni0324_2;
position = "{160, 0}";
},
{
name = m.uni0308_1;
position = "{160, 560}";
}
);
layerId = "301B1BEE-A3B7-420C-AFCF-2213D48A32DD";
shapes = (
{
closed = 1;
nodes = (
(320,-8,o),
(368,59,o),
(368,162,cs),
(368,175,l),
(298,175,l),
(298,161,ls),
(298,89,o),
(270,54,o),
(211,54,cs),
(152,54,o),
(121,91,o),
(121,180,cs),
(121,349,ls),
(121,438,o),
(151,475,o),
(212,475,cs),
(269,475,o),
(298,440,o),
(298,369,cs),
(298,354,l),
(368,354,l),
(368,369,ls),
(368,482,o),
(312,538,o),
(211,538,cs),
(108,538,o),
(51,478,o),
(51,357,cs),
(51,172,ls),
(51,51,o),
(108,-8,o),
(212,-8,cs)
);
}
);
width = 418;
},
{
anchors = (
{
name = b.uni0324_2;
position = "{259, 0}";
},
{
name = m.uni0308_1;
position = "{259, 530}";
}
);
layerId = "B98D4703-DDC7-495E-B040-47EC823CED71";
shapes = (
{
closed = 1;
nodes = (
(362,-6,o),
(444,52,o),
(444,156,cs),
(444,158,l),
(412,158,l),
(412,154,ls),
(412,71,o),
(355,23,o),
(264,23,cs),
(156,23,o),
(102,75,o),
(102,206,cs),
(102,306,ls),
(102,441,o),
(159,488,o),
(266,488,cs),
(358,488,o),
(412,442,o),
(412,358,cs),
(412,354,l),
(444,354,l),
(444,356,ls),
(444,455,o),
(371,517,o),
(262,517,cs),
(143,517,o),
(69,450,o),
(69,311,cs),
(69,200,ls),
(69,59,o),
(141,-6,o),
(264,-6,cs)
);
}
);
width = 514;
},
{
anchors = (
{
name = b.uni0324_2;
position = "{127, 0}";
},
{
name = m.uni0308_1;
position = "{127, 567}";
}
);
layerId = "8C36FF45-EE0D-47F3-80A1-ABABB257461F";
shapes = (
{
closed = 1;
nodes = (
(316,-8,o),
(361,59,o),
(361,156,cs),
(361,166,l),
(321,166,l),
(321,154,ls),
(321,67,o),
(287,25,o),
(212,25,cs),
(136,25,o),
(96,67,o),
(96,176,cs),
(96,346,ls),
(96,453,o),
(134,497,o),
(213,497,cs),
(285,497,o),
(321,455,o),
(321,368,cs),
(321,355,l),
(361,355,l),
(361,366,ls),
(361,477,o),
(307,531,o),
(211,531,cs),
(116,531,o),
(59,471,o),
(59,360,cs),
(59,162,ls),
(59,50,o),
(116,-8,o),
(213,-8,cs)
);
}
);
width = 419;
}
);
leftKerningGroup = c;
rightKerningGroup = b;
unicode = 99;
},
{
glyphname = ccedilla;
layers = (
{
anchors = (
{
name = b.uni0324_2;
position = "{229, -160}";
},
{
name = m.uni0308_1;
position = "{259, 530}";
}
);
layerId = "FC56AA79-0F4D-414B-B093-B262B77ED935";
shapes = (
{
closed = 1;
nodes = (
(183,-220,l),
(257,-220,l),
(331,-222,o),
(376,-186,o),
(376,-131,cs),
(376,-75,o),
(352,-40,o),
(294,-34,c),
(303,-4,l),
(416,9,o),
(482,78,o),
(482,194,cs),
(482,203,l),
(325,203,l),
(325,196,ls),
(325,160,o),
(304,139,o),
(264,139,cs),
(225,139,o),
(200,167,o),
(200,223,cs),
(200,317,ls),
(200,368,o),
(220,401,o),
(263,401,cs),
(303,401,o),
(325,377,o),
(325,340,cs),
(325,333,l),
(482,333,l),
(482,346,ls),
(482,473,o),
(403,548,o),
(262,548,cs),
(119,548,o),
(37,470,o),
(37,318,cs),
(37,224,ls),
(37,86,o),
(106,9,o),
(225,-4,c),
(211,-52,l),
(211,-85,l),
(257,-85,ls),
(274,-85,o),
(296,-93,o),
(296,-113,cs),
(296,-132,o),
(269,-133,o),
(257,-133,cs),
(183,-133,l)
);
}
);
width = 518;
},
{
anchors = (
{
name = b.uni0324_2;
position = "{210, -167}";
},
{
name = m.uni0308_1;
position = "{242, 543}";
}
);
layerId = "386C80E5-B742-4DC4-8C1D-118FE705019B";
shapes = (
{
closed = 1;
nodes = (
(109,-220,l),
(183,-220,l),
(257,-222,o),
(302,-186,o),
(302,-131,cs),
(302,-75,o),
(278,-40,o),
(220,-34,c),
(228,-7,l),
(341,0,o),
(385,69,o),
(385,177,cs),
(385,197,l),
(240,197,l),
(240,178,ls),
(240,143,o),
(228,127,o),
(209,127,cs),
(193,127,o),
(183,150,o),
(183,190,cs),
(183,357,ls),
(183,402,o),
(191,420,o),
(210,420,cs),
(230,420,o),
(240,403,o),
(240,372,cs),
(240,351,l),
(385,351,l),
(385,376,ls),
(385,496,o),
(326,556,o),
(211,556,cs),
(88,556,o),
(31,497,o),
(31,350,cs),
(31,197,ls),
(31,78,o),
(71,16,o),
(152,-2,c),
(137,-52,l),
(137,-85,l),
(183,-85,ls),
(200,-85,o),
(222,-93,o),
(222,-113,cs),
(222,-132,o),
(195,-133,o),
(183,-133,cs),
(109,-133,l)
);
}
);
width = 415;
},
{
anchors = (
{
name = b.uni0324_2;
position = "{229, -160}";
},
{
name = m.uni0308_1;
position = "{259, 530}";
}
);
layerId = "A1491DFB-4D7B-4F46-84CC-0E934EA2699F";
shapes = (
{
closed = 1;
nodes = (
(187,-220,l),
(255,-220,l),
(324,-221,o),
(373,-190,o),
(374,-131,cs),
(374,-77,o),
(348,-43,o),
(291,-37,c),
(301,-4,l),
(406,9,o),
(471,75,o),
(471,183,cs),
(471,190,l),
(350,190,l),
(350,184,ls),
(350,135,o),
(319,106,o),
(264,106,cs),
(205,106,o),
(172,141,o),
(172,218,cs),
(172,314,ls),
(172,389,o),
(203,426,o),
(264,426,cs),
(319,426,o),
(350,396,o),
(350,345,cs),
(350,339,l),
(471,339,l),
(471,349,ls),
(471,468,o),
(394,539,o),
(262,539,cs),
(126,539,o),
(46,464,o),
(46,316,cs),
(46,217,ls),
(46,82,o),
(113,8,o),
(227,-4,c),
(213,-50,l),
(213,-85,l),
(255,-85,ls),
(276,-85,o),
(302,-93,o),
(302,-117,cs),
(302,-139,o),
(272,-143,o),
(255,-143,cs),
(187,-143,l)
);
}
);
width = 517;
},
{
anchors = (
{
name = b.uni0324_2;
position = "{173, -168}";
},
{
name = m.uni0308_1;
position = "{209, 550}";
}
);
layerId = "013B1E1E-EC1A-4004-9A9E-28013B12321E";
shapes = (
{
closed = 1;
nodes = (
(135,-220,l),
(203,-220,l),
(272,-221,o),
(321,-190,o),
(322,-131,cs),
(322,-77,o),
(296,-43,o),
(239,-37,c),
(248,-5,l),
(344,11,o),
(378,78,o),
(378,171,cs),
(378,188,l),
(263,188,l),
(263,171,ls),
(263,122,o),
(245,98,o),
(210,98,cs),
(177,98,o),
(158,126,o),
(158,186,cs),
(158,354,ls),
(158,417,o),
(175,442,o),
(211,442,cs),
(246,442,o),
(263,418,o),
(263,371,cs),
(263,352,l),
(378,352,l),
(378,373,ls),
(378,490,o),
(320,549,o),
(211,549,cs),
(96,549,o),
(39,489,o),
(39,353,cs),
(39,187,ls),
(39,67,o),
(84,6,o),
(174,-6,c),
(161,-50,l),
(161,-85,l),
(203,-85,ls),
(224,-85,o),
(250,-93,o),
(250,-117,cs),
(250,-139,o),
(220,-143,o),
(203,-143,cs),
(135,-143,l)
);
}
);
width = 416;
},
{
anchors = (
{
name = b.uni0324_2;
position = "{229, -160}";
},
{
name = m.uni0308_1;
position = "{259, 530}";
}
);
layerId = "0F8D56E4-D9E3-4FE5-8622-D887DCE8F82E";
shapes = (
{
closed = 1;
nodes = (
(193,-220,l),
(251,-220,ls),
(313,-220,o),
(370,-197,o),
(370,-131,cs),
(370,-78,o),
(340,-47,o),
(286,-42,c),
(297,-4,l),
(392,7,o),
(455,69,o),
(455,167,cs),
(455,171,l),
(387,171,l),
(387,166,ls),
(387,97,o),
(340,56,o),
(264,56,cs),
(176,56,o),
(130,102,o),
(130,211,cs),
(130,309,ls),
(130,420,o),
(177,463,o),
(265,463,cs),
(342,463,o),
(387,424,o),
(387,353,cs),
(387,348,l),
(455,348,l),
(455,353,ls),
(455,460,o),
(381,526,o),
(262,526,cs),
(137,526,o),
(60,456,o),
(60,313,cs),
(60,207,ls),
(60,77,o),
(122,8,o),
(228,-4,c),
(215,-48,l),
(215,-85,l),
(251,-85,ls),
(278,-85,o),
(311,-94,o),
(311,-123,cs),
(311,-150,o),
(277,-157,o),
(251,-157,cs),
(193,-157,l)
);
}
);
width = 515;
},
{
anchors = (
{
name = b.uni0324_2;
position = "{118, -170}";
},
{
name = m.uni0308_1;
position = "{160, 560}";
}
);
layerId = "301B1BEE-A3B7-420C-AFCF-2213D48A32DD";
shapes = (
{
closed = 1;
nodes = (
(143,-220,l),
(201,-220,ls),
(263,-220,o),
(320,-197,o),
(320,-131,cs),
(320,-78,o),
(290,-47,o),
(236,-42,c),
(246,-5,l),
(335,9,o),
(368,77,o),
(368,162,cs),
(368,175,l),
(298,175,l),
(298,161,ls),
(298,89,o),
(270,54,o),
(211,54,cs),
(152,54,o),
(121,91,o),
(121,180,cs),
(121,349,ls),
(121,438,o),
(151,475,o),
(212,475,cs),
(269,475,o),
(298,440,o),
(298,369,cs),
(298,354,l),
(368,354,l),
(368,369,ls),
(368,482,o),
(312,538,o),
(211,538,cs),
(108,538,o),
(51,478,o),
(51,357,cs),
(51,172,ls),
(51,65,o),
(95,6,o),
(177,-6,c),
(165,-48,l),
(165,-85,l),
(201,-85,ls),
(228,-85,o),
(261,-94,o),
(261,-123,cs),
(261,-150,o),
(227,-157,o),
(201,-157,cs),
(143,-157,l)
);
}
);
width = 418;
},
{
anchors = (
{
name = b.uni0324_2;
position = "{229, -160}";
},
{
name = m.uni0308_1;
position = "{259, 530}";
}
);
layerId = "B98D4703-DDC7-495E-B040-47EC823CED71";
shapes = (
{
closed = 1;
nodes = (
(190,-220,l),
(237,-220,l),
(306,-221,o),
(356,-192,o),
(356,-138,cs),
(356,-90,o),
(318,-58,o),
(254,-54,c),
(268,-6,l),
(365,-4,o),
(444,53,o),
(444,156,cs),
(444,158,l),
(412,158,l),
(412,154,ls),
(412,71,o),
(355,23,o),
(264,23,cs),
(156,23,o),
(102,75,o),
(102,206,cs),
(102,306,ls),
(102,441,o),
(159,488,o),
(266,488,cs),
(358,488,o),
(412,442,o),
(412,358,cs),
(412,354,l),
(444,354,l),
(444,356,ls),
(444,455,o),
(371,517,o),
(262,517,cs),
(143,517,o),
(69,450,o),
(69,311,cs),
(69,200,ls),
(69,70,o),
(130,5,o),
(236,-5,c),
(218,-61,l),
(218,-83,l),
(237,-83,ls),
(286,-83,o),
(323,-101,o),
(323,-135,cs),
(323,-169,o),
(286,-186,o),
(237,-186,cs),
(190,-186,l)
);
}
);
width = 514;
},
{
anchors = (
{
name = b.uni0324_2;
position = "{81, -171}";
},
{
name = m.uni0308_1;
position = "{127, 567}";
}
);
layerId = "8C36FF45-EE0D-47F3-80A1-ABABB257461F";
shapes = (
{
closed = 1;
nodes = (
(151,-220,l),
(198,-220,l),
(267,-221,o),
(317,-192,o),
(317,-138,cs),
(317,-90,o),
(279,-58,o),
(215,-54,c),
(229,-7,l),
(324,0,o),
(361,66,o),
(361,156,cs),
(361,166,l),
(321,166,l),
(321,154,ls),
(321,67,o),
(287,25,o),
(212,25,cs),
(136,25,o),
(96,67,o),
(96,176,cs),
(96,346,ls),
(96,453,o),
(134,497,o),
(213,497,cs),
(285,497,o),
(321,455,o),
(321,368,cs),
(321,355,l),
(361,355,l),
(361,366,ls),
(361,477,o),
(307,531,o),
(211,531,cs),
(116,531,o),
(59,471,o),
(59,360,cs),
(59,162,ls),
(59,57,o),
(110,0,o),
(196,-7,c),
(179,-61,l),
(179,-83,l),
(198,-83,ls),
(247,-83,o),
(284,-101,o),
(284,-135,cs),
(284,-169,o),
(247,-186,o),
(198,-186,cs),
(151,-186,l)
);
}
);
width = 419;
}
);
leftKerningGroup = c;
rightKerningGroup = b;
unicode = 231;
},
{
glyphname = d;
layers = (
{
anchors = (
{
name = b.uni0324_2;
position = "{263, 0}";
},
{
name = m.uni0308_1;
position = "{263, 530}";
},
{
name = t.uni031B_2;
position = "{506, 800}";
}
);
layerId = "FC56AA79-0F4D-414B-B093-B262B77ED935";
shapes = (
{
closed = 1;
nodes = (
(261,-6,o),
(299,8,o),
(328,36,c),
(328,0,l),
(488,0,l),
(488,707,l),
(324,707,l),
(324,499,l),
(295,531,o),
(258,548,o),
(210,548,cs),
(103,548,o),
(37,471,o),
(37,323,cs),
(37,219,ls),
(37,74,o),
(108,-6,o),
(213,-6,cs)
);
},
{
closed = 1;
nodes = (
(201,317,ls),
(201,373,o),
(220,401,o),
(263,401,cs),
(299,401,o),
(324,376,o),
(324,321,cs),
(324,222,ls),
(324,165,o),
(302,139,o),
(261,139,cs),
(221,139,o),
(201,168,o),
(201,223,cs)
);
}
);
width = 528;
},
{
anchors = (
{
name = b.uni0324_2;
position = "{245, 0}";
},
{
name = m.uni0308_1;
position = "{245, 543}";
},
{
name = t.uni031B_2;
position = "{470, 800}";
}
);
layerId = "386C80E5-B742-4DC4-8C1D-118FE705019B";
shapes = (
{
closed = 1;
nodes = (
(191,-8,o),
(220,5,o),
(245,31,c),
(245,0,l),
(389,0,l),
(389,707,l),
(239,707,l),
(239,511,l),
(224,538,o),
(191,556,o),
(155,556,cs),
(76,556,o),
(31,502,o),
(31,385,cs),
(31,164,ls),
(31,47,o),
(77,-8,o),
(158,-8,cs)
);
},
{
closed = 1;
nodes = (
(183,357,ls),
(183,404,o),
(191,420,o),
(212,420,cs),
(233,420,o),
(242,406,o),
(242,358,cs),
(242,191,ls),
(242,147,o),
(233,127,o),
(214,127,cs),
(190,127,o),
(183,143,o),
(183,190,cs)
);
}
);
width = 418;
},
{
anchors = (
{
name = b.uni0324_2;
position = "{263, 0}";
},
{
name = m.uni0308_1;
position = "{263, 530}";
},
{
name = t.uni031B_2;
position = "{506, 800}";
}
);
layerId = "A1491DFB-4D7B-4F46-84CC-0E934EA2699F";
shapes = (
{
closed = 1;
nodes = (
(277,-6,o),
(318,12,o),
(347,49,c),
(347,0,l),
(471,0,l),
(471,707,l),
(345,707,l),
(345,478,l),
(316,518,o),
(274,539,o),
(221,539,cs),
(113,539,o),
(46,463,o),
(46,319,cs),
(46,214,ls),
(46,71,o),
(117,-6,o),
(222,-6,cs)
);
},
{
closed = 1;
nodes = (
(173,314,ls),
(173,389,o),
(201,426,o),
(258,426,cs),
(313,426,o),
(345,386,o),
(345,314,cs),
(345,218,ls),
(345,146,o),
(314,106,o),
(255,106,cs),
(200,106,o),
(173,145,o),
(173,218,cs)
);
}
);
width = 526;
},
{
anchors = (
{
name = b.uni0324_2;
position = "{211, 0}";
},
{
name = m.uni0308_1;
position = "{211, 550}";
},
{
name = t.uni031B_2;
position = "{402, 800}";
}
);
layerId = "013B1E1E-EC1A-4004-9A9E-28013B12321E";
shapes = (
{
closed = 1;
nodes = (
(208,-8,o),
(239,7,o),
(264,38,c),
(264,0,l),
(378,0,l),
(378,707,l),
(260,707,l),
(260,498,l),
(243,530,o),
(209,549,o),
(169,549,cs),
(88,549,o),
(39,491,o),
(39,374,cs),
(39,167,ls),
(39,50,o),
(88,-8,o),
(171,-8,cs)
);
},
{
closed = 1;
nodes = (
(158,354,ls),
(158,415,o),
(174,442,o),
(209,442,cs),
(245,442,o),
(262,417,o),
(262,354,cs),
(262,186,ls),
(262,127,o),
(245,98,o),
(210,98,cs),
(174,98,o),
(158,123,o),
(158,186,cs)
);
}
);
width = 419;
},
{
anchors = (
{
name = b.uni0324_2;
position = "{263, 0}";
},
{
name = m.uni0308_1;
position = "{263, 530}";
},
{
name = t.uni031B_2;
position = "{506, 800}";
}
);
layerId = "0F8D56E4-D9E3-4FE5-8622-D887DCE8F82E";
shapes = (
{
closed = 1;
nodes = (
(301,-6,o),
(347,19,o),
(376,69,c),
(376,0,l),
(446,0,l),
(446,707,l),
(376,707,l),
(376,446,l),
(347,499,o),
(300,526,o),
(237,526,cs),
(128,526,o),
(60,452,o),
(60,313,cs),
(60,207,ls),
(60,67,o),
(131,-6,o),
(236,-6,cs)
);
},
{
closed = 1;
nodes = (
(131,309,ls),
(131,412,o),
(171,463,o),
(250,463,cs),
(333,463,o),
(376,402,o),
(376,303,cs),
(376,212,ls),
(376,117,o),
(330,56,o),
(246,56,cs),
(170,56,o),
(131,108,o),
(131,211,cs)
);
}
);
width = 523;
},
{
anchors = (
{
name = b.uni0324_2;
position = "{160, 0}";
},
{
name = m.uni0308_1;
position = "{160, 560}";
},
{
name = t.uni031B_2;
position = "{300, 800}";
}
);
layerId = "301B1BEE-A3B7-420C-AFCF-2213D48A32DD";
shapes = (
{
closed = 1;
nodes = (
(235,-8,o),
(269,11,o),
(292,48,c),
(292,0,l),
(361,0,l),
(361,707,l),
(292,707,l),
(292,478,l),
(269,518,o),
(235,538,o),
(190,538,cs),
(105,538,o),
(51,474,o),
(51,357,cs),
(51,172,ls),
(51,55,o),
(106,-8,o),
(190,-8,cs)
);
},
{
closed = 1;
nodes = (
(121,349,ls),
(121,433,o),
(149,475,o),
(204,475,cs),
(263,475,o),
(292,433,o),
(292,348,cs),
(292,179,ls),
(292,98,o),
(263,54,o),
(204,54,cs),
(149,54,o),
(121,93,o),
(121,180,cs)
);
}
);
width = 421;
},
{
anchors = (
{
name = b.uni0324_2;
position = "{263, 0}";
},
{
name = m.uni0308_1;
position = "{263, 530}";
},
{
name = t.uni031B_2;
position = "{506, 800}";
}
);
layerId = "B98D4703-DDC7-495E-B040-47EC823CED71";
shapes = (
{
closed = 1;
nodes = (
(316,-6,o),
(366,23,o),
(395,82,c),
(395,0,l),
(429,0,l),
(429,707,l),
(397,707,l),
(397,425,l),
(368,486,o),
(316,517,o),
(248,517,cs),
(137,517,o),
(69,444,o),
(69,309,cs),
(69,202,ls),
(69,65,o),
(140,-6,o),
(245,-6,cs)
);
},
{
closed = 1;
nodes = (
(103,306,ls),
(103,427,o),
(152,488,o),
(245,488,cs),
(346,488,o),
(397,412,o),
(397,296,cs),
(397,208,ls),
(397,99,o),
(341,23,o),
(240,23,cs),
(149,23,o),
(103,85,o),
(103,206,cs)
);
}
);
width = 521;
},
{
anchors = (
{
name = b.uni0324_2;
position = "{126, 0}";
},
{
name = m.uni0308_1;
position = "{126, 567}";
},
{
name = t.uni031B_2;
position = "{232, 800}";
}
);
layerId = "8C36FF45-EE0D-47F3-80A1-ABABB257461F";
shapes = (
{
closed = 1;
nodes = (
(252,-8,o),
(288,13,o),
(311,55,c),
(311,0,l),
(350,0,l),
(350,707,l),
(313,707,l),
(313,465,l),
(288,510,o),
(253,531,o),
(204,531,cs),
(116,531,o),
(59,463,o),
(59,346,cs),
(59,175,ls),
(59,58,o),
(118,-8,o),
(203,-8,cs)
);
},
{
closed = 1;
nodes = (
(96,346,ls),
(96,445,o),
(133,497,o),
(201,497,cs),
(274,497,o),
(312,444,o),
(312,344,cs),
(312,174,ls),
(312,78,o),
(275,25,o),
(200,25,cs),
(133,25,o),
(96,73,o),
(96,176,cs)
);
}
);
width = 422;
}
);
leftKerningGroup = c;
rightKerningGroup = a;
unicode = 100;
},
{
glyphname = e;
layers = (
{
anchors = (
{
name = b.uni0324_2;
position = "{265, 0}";
},
{
name = m.uni0308_1;
position = "{265, 530}";
},
{
name = m.uni0328;
position = "{326, 10}";
}
);
layerId = "FC56AA79-0F4D-414B-B093-B262B77ED935";
shapes = (
{
closed = 1;
nodes = (
(386,-6,o),
(498,40,o),
(498,167,cs),
(498,172,l),
(341,172,l),
(340,169,l),
(337,148,o),
(315,134,o),
(280,134,cs),
(228,134,o),
(200,160,o),
(200,213,cs),
(200,216,l),
(502,216,l),
(502,294,ls),
(502,458,o),
(417,548,o),
(270,548,cs),
(119,548,o),
(37,459,o),
(37,294,cs),
(37,245,ls),
(37,82,o),
(126,-6,o),
(275,-6,cs)
);
},
{
closed = 1;
nodes = (
(200,326,l),
(200,324,l),
(200,383,o),
(222,408,o),
(270,408,cs),
(315,408,o),
(337,382,o),
(337,338,cs),
(337,326,l)
);
}
);
width = 538;
},
{
anchors = (
{
name = b.uni0324_2;
position = "{250, 0}";
},
{
name = m.uni0308_1;
position = "{250, 543}";
},
{
name = m.uni0328;
position = "{341, 10}";
}
);
layerId = "386C80E5-B742-4DC4-8C1D-118FE705019B";
shapes = (
{
closed = 1;
nodes = (
(327,-8,o),
(386,51,o),
(386,167,cs),
(386,175,l),
(240,175,l),
(240,170,ls),
(240,141,o),
(230,125,o),
(210,125,cs),
(191,125,o),
(183,147,o),
(183,178,cs),
(183,217,l),
(392,217,l),
(392,326,ls),
(392,483,o),
(328,556,o),
(208,556,cs),
(85,556,o),
(31,489,o),
(31,326,cs),
(31,220,ls),
(31,60,o),
(91,-8,o),
(211,-8,cs)
);
},
{
closed = 1;
nodes = (
(183,325,l),
(183,357,ls),
(183,400,o),
(192,420,o),
(211,420,cs),
(231,420,o),
(240,401,o),
(240,356,cs),
(240,325,l)
);
}
);
width = 422;
},
{
anchors = (
{
name = b.uni0324_2;
position = "{265, 0}";
},
{
name = m.uni0308_1;
position = "{265, 530}";
},
{
name = m.uni0328;
position = "{326, 10}";
}
);
layerId = "A1491DFB-4D7B-4F46-84CC-0E934EA2699F";
shapes = (
{
closed = 1;
nodes = (
(374,-6,o),
(479,43,o),
(479,162,cs),
(479,167,l),
(358,167,l),
(357,164,l),
(356,127,o),
(325,103,o),
(274,103,cs),
(207,103,o),
(172,137,o),
(172,214,cs),
(172,228,l),
(483,228,l),
(483,299,ls),
(483,455,o),
(402,539,o),
(265,539,cs),
(126,539,o),
(46,456,o),
(46,299,cs),
(46,234,ls),
(46,77,o),
(129,-6,o),
(269,-6,cs)
);
},
{
closed = 1;
nodes = (
(172,315,l),
(172,318,ls),
(172,397,o),
(204,430,o),
(265,430,cs),
(326,430,o),
(356,397,o),
(356,329,cs),
(356,315,l)
);
}
);
width = 529;
},
{
anchors = (
{
name = b.uni0324_2;
position = "{217, 0}";
},
{
name = m.uni0308_1;
position = "{217, 550}";
},
{
name = m.uni0328;
position = "{287, 10}";
}
);
layerId = "013B1E1E-EC1A-4004-9A9E-28013B12321E";
shapes = (
{
closed = 1;
nodes = (
(323,-8,o),
(378,54,o),
(378,164,cs),
(378,170,l),
(263,170,l),
(263,165,ls),
(263,120,o),
(246,96,o),
(211,96,cs),
(176,96,o),
(158,124,o),
(158,179,cs),
(158,228,l),
(382,228,l),
(382,336,ls),
(382,479,o),
(320,549,o),
(208,549,cs),
(95,549,o),
(39,481,o),
(39,336,cs),
(39,204,ls),
(39,59,o),
(96,-8,o),
(211,-8,cs)
);
},
{
closed = 1;
nodes = (
(158,314,l),
(158,354,ls),
(158,415,o),
(175,442,o),
(210,442,cs),
(246,442,o),
(263,417,o),
(263,354,cs),
(263,314,l)
);
}
);
width = 420;
},
{
anchors = (
{
name = b.uni0324_2;
position = "{265, 0}";
},
{
name = m.uni0308_1;
position = "{265, 530}";
},
{
name = m.uni0328;
position = "{326, 10}";
}
);
layerId = "0F8D56E4-D9E3-4FE5-8622-D887DCE8F82E";
shapes = (
{
closed = 1;
nodes = (
(359,-6,o),
(451,46,o),
(451,155,cs),
(451,160,l),
(383,160,l),
(383,157,ls),
(383,96,o),
(340,56,o),
(265,56,cs),
(177,56,o),
(130,103,o),
(130,215,cs),
(130,246,l),
(455,246,l),
(455,307,ls),
(455,451,o),
(381,526,o),
(258,526,cs),
(137,526,o),
(60,451,o),
(60,307,cs),
(60,217,ls),
(60,69,o),
(133,-6,o),
(260,-6,cs)
);
},
{
closed = 1;
nodes = (
(130,298,l),
(130,309,ls),
(130,418,o),
(177,463,o),
(258,463,cs),
(342,463,o),
(385,420,o),
(385,316,cs),
(385,298,l)
);
}
);
width = 515;
},
{
anchors = (
{
name = b.uni0324_2;
position = "{168, 0}";
},
{
name = m.uni0308_1;
position = "{168, 560}";
},
{
name = m.uni0328;
position = "{206, 10}";
}
);
layerId = "301B1BEE-A3B7-420C-AFCF-2213D48A32DD";
shapes = (
{
closed = 1;
nodes = (
(317,-8,o),
(366,57,o),
(366,159,cs),
(366,162,l),
(297,162,l),
(297,158,ls),
(297,87,o),
(269,52,o),
(213,52,cs),
(153,52,o),
(121,89,o),
(121,181,cs),
(121,244,l),
(367,244,l),
(367,351,ls),
(367,472,o),
(308,538,o),
(208,538,cs),
(108,538,o),
(51,471,o),
(51,351,cs),
(51,180,ls),
(51,56,o),
(104,-8,o),
(211,-8,cs)
);
},
{
closed = 1;
nodes = (
(121,297,l),
(121,349,ls),
(121,438,o),
(150,475,o),
(209,475,cs),
(269,475,o),
(298,440,o),
(298,351,cs),
(298,297,l)
);
}
);
width = 417;
},
{
anchors = (
{
name = b.uni0324_2;
position = "{265, 0}";
},
{
name = m.uni0308_1;
position = "{265, 530}";
},
{
name = m.uni0328;
position = "{326, 10}";
}
);
layerId = "B98D4703-DDC7-495E-B040-47EC823CED71";
shapes = (
{
closed = 1;
nodes = (
(349,-6,o),
(432,47,o),
(432,150,cs),
(432,155,l),
(400,155,l),
(400,152,l),
(401,75,o),
(350,25,o),
(259,25,cs),
(156,25,o),
(102,80,o),
(102,216,cs),
(102,258,l),
(436,258,l),
(436,312,ls),
(436,448,o),
(366,517,o),
(253,517,cs),
(144,517,o),
(69,448,o),
(69,312,cs),
(69,206,ls),
(69,63,o),
(137,-6,o),
(254,-6,cs)
);
},
{
closed = 1;
nodes = (
(102,287,l),
(102,303,ls),
(102,432,o),
(158,485,o),
(253,485,cs),
(353,485,o),
(404,435,o),
(404,307,cs),
(404,287,l)
);
}
);
width = 506;
},
{
anchors = (
{
name = b.uni0324_2;
position = "{135, 0}";
},
{
name = m.uni0308_1;
position = "{135, 567}";
},
{
name = m.uni0328;
position = "{152, 10}";
}
);
layerId = "8C36FF45-EE0D-47F3-80A1-ABABB257461F";
shapes = (
{
closed = 1;
nodes = (
(312,-8,o),
(358,61,o),
(358,156,cs),
(358,157,l),
(320,157,l),
(320,153,ls),
(320,66,o),
(285,23,o),
(214,23,cs),
(138,23,o),
(96,66,o),
(96,182,cs),
(96,255,l),
(357,255,l),
(357,361,ls),
(357,468,o),
(300,531,o),
(208,531,cs),
(117,531,o),
(59,464,o),
(59,361,cs),
(59,164,ls),
(59,55,o),
(110,-8,o),
(211,-8,cs)
);
},
{
closed = 1;
nodes = (
(96,286,l),
(96,346,ls),
(96,454,o),
(133,497,o),
(208,497,cs),
(284,497,o),
(321,456,o),
(321,349,cs),
(321,286,l)
);
}
);
width = 415;
}
);
leftKerningGroup = c;
rightKerningGroup = b;
unicode = 101;
},
